solid 
facet normal 0.0 0.120522931218 0.992710530758
outer loop
vertex 333.776763916 836.0 395.947601318
vertex 328.776763916 836.0 395.947601318
vertex 333.776763916 835.641052246 395.99118042
endloop
endfacet
facet normal 0.0 0.354598253965 0.935018777847
outer loop
vertex 333.776763916 835.641052246 395.99118042
vertex 328.776763916 835.641052246 395.99118042
vertex 333.776763916 835.30291748 396.119415283
endloop
endfacet
facet normal 0.0 0.120522931218 0.992710530758
outer loop
vertex 328.776763916 836.0 395.947601318
vertex 328.776763916 835.641052246 395.99118042
vertex 333.776763916 835.641052246 395.99118042
endloop
endfacet
facet normal 0.0 0.568046450615 0.82299643755
outer loop
vertex 333.776763916 835.30291748 396.119415283
vertex 328.776763916 835.30291748 396.119415283
vertex 333.776763916 835.005310059 396.324829102
endloop
endfacet
facet normal 0.0 0.354598253965 0.935018777847
outer loop
vertex 328.776763916 835.641052246 395.99118042
vertex 328.776763916 835.30291748 396.119415283
vertex 333.776763916 835.30291748 396.119415283
endloop
endfacet
facet normal 0.0 0.748479306698 0.663158237934
outer loop
vertex 333.776763916 835.005310059 396.324829102
vertex 328.776763916 835.005310059 396.324829102
vertex 333.776763916 834.76550293 396.595489502
endloop
endfacet
facet normal 0.0 0.568046450615 0.82299643755
outer loop
vertex 328.776763916 835.30291748 396.119415283
vertex 328.776763916 835.005310059 396.324829102
vertex 333.776763916 835.005310059 396.324829102
endloop
endfacet
facet normal 0.0 0.885477781296 0.464681714773
outer loop
vertex 333.776763916 834.76550293 396.595489502
vertex 328.776763916 834.76550293 396.595489502
vertex 333.776763916 834.597473145 396.915679932
endloop
endfacet
facet normal 0.0 0.748479306698 0.663158237934
outer loop
vertex 328.776763916 835.005310059 396.324829102
vertex 328.776763916 834.76550293 396.595489502
vertex 333.776763916 834.76550293 396.595489502
endloop
endfacet
facet normal 0.0 0.970936477184 0.239337310195
outer loop
vertex 333.776763916 834.597473145 396.915679932
vertex 328.776763916 834.597473145 396.915679932
vertex 333.776763916 834.510925293 397.266784668
endloop
endfacet
facet normal 0.0 0.885477781296 0.464681714773
outer loop
vertex 328.776763916 834.76550293 396.595489502
vertex 328.776763916 834.597473145 396.915679932
vertex 333.776763916 834.597473145 396.915679932
endloop
endfacet
facet normal 0.0 1.0 -0.0
outer loop
vertex 333.776763916 834.510925293 397.266784668
vertex 328.776763916 834.510925293 397.266784668
vertex 333.776763916 834.510925293 397.628387451
endloop
endfacet
facet normal 0.0 0.970936477184 0.239337310195
outer loop
vertex 328.776763916 834.597473145 396.915679932
vertex 328.776763916 834.510925293 397.266784668
vertex 333.776763916 834.510925293 397.266784668
endloop
endfacet
facet normal 0.0 0.970936477184 -0.239337310195
outer loop
vertex 333.776763916 834.510925293 397.628387451
vertex 328.776763916 834.510925293 397.628387451
vertex 333.776763916 834.597473145 397.979492188
endloop
endfacet
facet normal 0.0 1.0 0.0
outer loop
vertex 328.776763916 834.510925293 397.266784668
vertex 328.776763916 834.510925293 397.628387451
vertex 333.776763916 834.510925293 397.628387451
endloop
endfacet
facet normal 0.0 0.885477781296 -0.464681714773
outer loop
vertex 333.776763916 834.597473145 397.979492188
vertex 328.776763916 834.597473145 397.979492188
vertex 333.776763916 834.76550293 398.299682617
endloop
endfacet
facet normal 0.0 0.970936477184 -0.239337310195
outer loop
vertex 328.776763916 834.510925293 397.628387451
vertex 328.776763916 834.597473145 397.979492188
vertex 333.776763916 834.597473145 397.979492188
endloop
endfacet
facet normal 0.0 0.748516380787 -0.663116335869
outer loop
vertex 333.776763916 834.76550293 398.299682617
vertex 328.776763916 834.76550293 398.299682617
vertex 333.776763916 835.005310059 398.570373535
endloop
endfacet
facet normal 0.0 0.885477781296 -0.464681714773
outer loop
vertex 328.776763916 834.597473145 397.979492188
vertex 328.776763916 834.76550293 398.299682617
vertex 333.776763916 834.76550293 398.299682617
endloop
endfacet
facet normal 0.0 0.568046450615 -0.82299643755
outer loop
vertex 333.776763916 835.005310059 398.570373535
vertex 328.776763916 835.005310059 398.570373535
vertex 333.776763916 835.30291748 398.775787354
endloop
endfacet
facet normal 0.0 0.748516380787 -0.663116335869
outer loop
vertex 328.776763916 834.76550293 398.299682617
vertex 328.776763916 835.005310059 398.570373535
vertex 333.776763916 835.005310059 398.570373535
endloop
endfacet
facet normal 0.0 0.354598253965 -0.935018777847
outer loop
vertex 333.776763916 835.30291748 398.775787354
vertex 328.776763916 835.30291748 398.775787354
vertex 333.776763916 835.641052246 398.904022217
endloop
endfacet
facet normal 0.0 0.568046450615 -0.82299643755
outer loop
vertex 328.776763916 835.005310059 398.570373535
vertex 328.776763916 835.30291748 398.775787354
vertex 333.776763916 835.30291748 398.775787354
endloop
endfacet
facet normal 0.0 0.120522931218 -0.992710530758
outer loop
vertex 333.776763916 835.641052246 398.904022217
vertex 328.776763916 835.641052246 398.904022217
vertex 333.776763916 836.0 398.947601318
endloop
endfacet
facet normal 0.0 0.354598253965 -0.935018777847
outer loop
vertex 328.776763916 835.30291748 398.775787354
vertex 328.776763916 835.641052246 398.904022217
vertex 333.776763916 835.641052246 398.904022217
endloop
endfacet
facet normal 0.0 0.120522931218 -0.992710530758
outer loop
vertex 328.776763916 835.641052246 398.904022217
vertex 328.776763916 836.0 398.947601318
vertex 333.776763916 836.0 398.947601318
endloop
endfacet
facet normal -0.0 0.120522931218 0.992710530758
outer loop
vertex 322.276763916 836.0 395.947601318
vertex 322.276763916 835.641052246 395.99118042
vertex 327.276763916 836.0 395.947601318
endloop
endfacet
facet normal 0.0 0.120522931218 0.992710530758
outer loop
vertex 327.276763916 836.0 395.947601318
vertex 322.276763916 835.641052246 395.99118042
vertex 327.276763916 835.641052246 395.99118042
endloop
endfacet
facet normal 0.0 0.354598253965 0.935018777847
outer loop
vertex 327.276763916 835.641052246 395.99118042
vertex 322.276763916 835.30291748 396.119415283
vertex 327.276763916 835.30291748 396.119415283
endloop
endfacet
facet normal -0.0 0.354598253965 0.935018777847
outer loop
vertex 322.276763916 835.641052246 395.99118042
vertex 322.276763916 835.30291748 396.119415283
vertex 327.276763916 835.641052246 395.99118042
endloop
endfacet
facet normal 0.0 0.568046450615 0.82299643755
outer loop
vertex 327.276763916 835.30291748 396.119415283
vertex 322.276763916 835.005310059 396.324829102
vertex 327.276763916 835.005310059 396.324829102
endloop
endfacet
facet normal -0.0 0.568046450615 0.82299643755
outer loop
vertex 322.276763916 835.30291748 396.119415283
vertex 322.276763916 835.005310059 396.324829102
vertex 327.276763916 835.30291748 396.119415283
endloop
endfacet
facet normal 0.0 0.748479306698 0.663158237934
outer loop
vertex 327.276763916 835.005310059 396.324829102
vertex 322.276763916 834.76550293 396.595489502
vertex 327.276763916 834.76550293 396.595489502
endloop
endfacet
facet normal -0.0 0.748479306698 0.663158237934
outer loop
vertex 322.276763916 835.005310059 396.324829102
vertex 322.276763916 834.76550293 396.595489502
vertex 327.276763916 835.005310059 396.324829102
endloop
endfacet
facet normal 0.0 0.885477781296 0.464681714773
outer loop
vertex 327.276763916 834.76550293 396.595489502
vertex 322.276763916 834.597473145 396.915679932
vertex 327.276763916 834.597473145 396.915679932
endloop
endfacet
facet normal -0.0 0.885477781296 0.464681714773
outer loop
vertex 322.276763916 834.76550293 396.595489502
vertex 322.276763916 834.597473145 396.915679932
vertex 327.276763916 834.76550293 396.595489502
endloop
endfacet
facet normal 0.0 0.970936477184 0.239337310195
outer loop
vertex 327.276763916 834.597473145 396.915679932
vertex 322.276763916 834.510925293 397.266784668
vertex 327.276763916 834.510925293 397.266784668
endloop
endfacet
facet normal 0.0 1.0 -0.0
outer loop
vertex 327.276763916 834.510925293 397.266784668
vertex 322.276763916 834.510925293 397.266784668
vertex 327.276763916 834.510925293 397.628387451
endloop
endfacet
facet normal -0.0 0.970936477184 0.239337310195
outer loop
vertex 322.276763916 834.597473145 396.915679932
vertex 322.276763916 834.510925293 397.266784668
vertex 327.276763916 834.597473145 396.915679932
endloop
endfacet
facet normal 0.0 1.0 0.0
outer loop
vertex 322.276763916 834.510925293 397.266784668
vertex 322.276763916 834.510925293 397.628387451
vertex 327.276763916 834.510925293 397.628387451
endloop
endfacet
facet normal 0.0 0.970936477184 -0.239337310195
outer loop
vertex 327.276763916 834.510925293 397.628387451
vertex 322.276763916 834.597473145 397.979492188
vertex 327.276763916 834.597473145 397.979492188
endloop
endfacet
facet normal 0.0 0.970936477184 -0.239337310195
outer loop
vertex 322.276763916 834.510925293 397.628387451
vertex 322.276763916 834.597473145 397.979492188
vertex 327.276763916 834.510925293 397.628387451
endloop
endfacet
facet normal 0.0 0.885477781296 -0.464681714773
outer loop
vertex 327.276763916 834.597473145 397.979492188
vertex 322.276763916 834.76550293 398.299682617
vertex 327.276763916 834.76550293 398.299682617
endloop
endfacet
facet normal 0.0 0.885477781296 -0.464681714773
outer loop
vertex 322.276763916 834.597473145 397.979492188
vertex 322.276763916 834.76550293 398.299682617
vertex 327.276763916 834.597473145 397.979492188
endloop
endfacet
facet normal 0.0 0.748516380787 -0.663116335869
outer loop
vertex 327.276763916 834.76550293 398.299682617
vertex 322.276763916 835.005310059 398.570373535
vertex 327.276763916 835.005310059 398.570373535
endloop
endfacet
facet normal 0.0 0.748516380787 -0.663116335869
outer loop
vertex 322.276763916 834.76550293 398.299682617
vertex 322.276763916 835.005310059 398.570373535
vertex 327.276763916 834.76550293 398.299682617
endloop
endfacet
facet normal 0.0 0.568046450615 -0.82299643755
outer loop
vertex 327.276763916 835.005310059 398.570373535
vertex 322.276763916 835.30291748 398.775787354
vertex 327.276763916 835.30291748 398.775787354
endloop
endfacet
facet normal 0.0 0.568046450615 -0.82299643755
outer loop
vertex 322.276763916 835.005310059 398.570373535
vertex 322.276763916 835.30291748 398.775787354
vertex 327.276763916 835.005310059 398.570373535
endloop
endfacet
facet normal 0.0 0.354598253965 -0.935018777847
outer loop
vertex 327.276763916 835.30291748 398.775787354
vertex 322.276763916 835.641052246 398.904022217
vertex 327.276763916 835.641052246 398.904022217
endloop
endfacet
facet normal 0.0 0.120522931218 -0.992710530758
outer loop
vertex 327.276763916 835.641052246 398.904022217
vertex 322.276763916 835.641052246 398.904022217
vertex 327.276763916 836.0 398.947601318
endloop
endfacet
facet normal 0.0 0.354598253965 -0.935018777847
outer loop
vertex 322.276763916 835.30291748 398.775787354
vertex 322.276763916 835.641052246 398.904022217
vertex 327.276763916 835.30291748 398.775787354
endloop
endfacet
facet normal 0.0 0.120522931218 -0.992710530758
outer loop
vertex 322.276763916 835.641052246 398.904022217
vertex 322.276763916 836.0 398.947601318
vertex 327.276763916 836.0 398.947601318
endloop
endfacet
facet normal 0.0 -0.981004536152 0.193984612823
outer loop
vertex 333.776763916 833.462402344 404.093475342
vertex 333.776763916 833.972045898 406.670806885
vertex 322.276763916 833.972045898 406.670806885
endloop
endfacet
facet normal 0.0 -0.986252605915 0.165244668722
outer loop
vertex 333.776763916 833.462402344 404.093475342
vertex 322.276763916 833.462402344 404.093475342
vertex 322.276763916 833.028259277 401.502319336
endloop
endfacet
facet normal 0.0 -0.981004536152 0.193984612823
outer loop
vertex 333.776763916 833.462402344 404.093475342
vertex 322.276763916 833.972045898 406.670806885
vertex 322.276763916 833.462402344 404.093475342
endloop
endfacet
facet normal 0.0 -0.986252605915 0.165244668722
outer loop
vertex 333.776763916 833.028259277 401.502319336
vertex 333.776763916 833.462402344 404.093475342
vertex 322.276763916 833.028259277 401.502319336
endloop
endfacet
facet normal 0.0 -0.99422109127 0.107352130115
outer loop
vertex 333.776763916 832.670043945 398.899627686
vertex 322.276763916 832.670043945 398.899627686
vertex 322.276763916 832.388000488 396.287536621
endloop
endfacet
facet normal 0.0 -0.990661084652 0.136347308755
outer loop
vertex 333.776763916 832.670043945 398.899627686
vertex 322.276763916 833.028259277 401.502319336
vertex 322.276763916 832.670043945 398.899627686
endloop
endfacet
facet normal 0.0 -0.990661084652 0.136347308755
outer loop
vertex 333.776763916 832.670043945 398.899627686
vertex 333.776763916 833.028259277 401.502319336
vertex 322.276763916 833.028259277 401.502319336
endloop
endfacet
facet normal 0.0 -0.996934235096 0.0782437622547
outer loop
vertex 333.776763916 832.388000488 396.287536621
vertex 322.276763916 832.388000488 396.287536621
vertex 322.276763916 832.182434082 393.668334961
endloop
endfacet
facet normal 0.0 -0.99422109127 0.107352130115
outer loop
vertex 333.776763916 832.388000488 396.287536621
vertex 333.776763916 832.670043945 398.899627686
vertex 322.276763916 832.388000488 396.287536621
endloop
endfacet
facet normal 0.0 -0.996934235096 0.0782437622547
outer loop
vertex 333.776763916 832.182434082 393.668334961
vertex 333.776763916 832.388000488 396.287536621
vertex 322.276763916 832.182434082 393.668334961
endloop
endfacet
facet normal 0.0 -0.998794496059 0.0490882880986
outer loop
vertex 333.776763916 832.053466797 391.044250488
vertex 322.276763916 832.182434082 393.668334961
vertex 322.276763916 832.053466797 391.044250488
endloop
endfacet
facet normal 0.0 -0.998794496059 0.0490882880986
outer loop
vertex 333.776763916 832.053466797 391.044250488
vertex 333.776763916 832.182434082 393.668334961
vertex 322.276763916 832.182434082 393.668334961
endloop
endfacet
facet normal 0.0 0.998794436455 0.0490882843733
outer loop
vertex 322.276763916 839.817565918 393.668334961
vertex 327.276763916 839.946533203 391.044250488
vertex 322.276763916 839.946533203 391.044250488
endloop
endfacet
facet normal 0.000714917492587 0.99872648716 0.050447165966
outer loop
vertex 327.276763916 839.801574707 393.9140625
vertex 327.276763916 839.946533203 391.044250488
vertex 322.276763916 839.817565918 393.668334961
endloop
endfacet
facet normal -0.000656891497783 0.996933996677 0.0782437473536
outer loop
vertex 322.276763916 839.611999512 396.287536621
vertex 327.276763916 839.801574707 393.9140625
vertex 322.276763916 839.817565918 393.668334961
endloop
endfacet
facet normal 0.0 0.998794436455 0.0490882843733
outer loop
vertex 333.776763916 839.817565918 393.668334961
vertex 333.776763916 839.946533203 391.044250488
vertex 328.776763916 839.946533203 391.044250488
endloop
endfacet
facet normal -0.000714917492587 0.99872648716 0.050447165966
outer loop
vertex 333.776763916 839.817565918 393.668334961
vertex 328.776763916 839.946533203 391.044250488
vertex 328.776763916 839.801574707 393.9140625
endloop
endfacet
facet normal 0.00130538386293 0.996602535248 0.0823510289192
outer loop
vertex 327.276763916 839.564941406 396.777770996
vertex 327.276763916 839.801574707 393.9140625
vertex 322.276763916 839.611999512 396.287536621
endloop
endfacet
facet normal -0.00116830994375 0.994220376015 0.10735206306
outer loop
vertex 322.276763916 839.329956055 398.899627686
vertex 327.276763916 839.564941406 396.777770996
vertex 322.276763916 839.611999512 396.287536621
endloop
endfacet
facet normal -0.00130538386293 0.996602535248 0.0823510289192
outer loop
vertex 333.776763916 839.611999512 396.287536621
vertex 328.776763916 839.801574707 393.9140625
vertex 328.776763916 839.564941406 396.777770996
endloop
endfacet
facet normal 0.000656891497783 0.996933996677 0.0782437473536
outer loop
vertex 333.776763916 839.611999512 396.287536621
vertex 333.776763916 839.817565918 393.668334961
vertex 328.776763916 839.801574707 393.9140625
endloop
endfacet
facet normal -0.00155461928807 0.990659892559 0.136347144842
outer loop
vertex 327.276763916 839.236938477 399.632476807
vertex 322.276763916 839.329956055 398.899627686
vertex 322.276763916 838.971740723 401.502319336
endloop
endfacet
facet normal 0.00175126129761 0.993462204933 0.114147849381
outer loop
vertex 327.276763916 839.236938477 399.632476807
vertex 327.276763916 839.564941406 396.777770996
vertex 322.276763916 839.329956055 398.899627686
endloop
endfacet
facet normal -0.00175125920214 0.993462204933 0.114147849381
outer loop
vertex 333.776763916 839.329956055 398.899627686
vertex 328.776763916 839.564941406 396.777770996
vertex 328.776763916 839.236938477 399.632476807
endloop
endfacet
facet normal 0.00116830994375 0.994220376015 0.10735206306
outer loop
vertex 333.776763916 839.329956055 398.899627686
vertex 333.776763916 839.611999512 396.287536621
vertex 328.776763916 839.564941406 396.777770996
endloop
endfacet
facet normal -0.00180245458614 0.98625099659 0.165244400501
outer loop
vertex 327.276763916 838.817871094 402.475219727
vertex 322.276763916 838.971740723 401.502319336
vertex 322.276763916 838.537597656 404.093475342
endloop
endfacet
facet normal 0.00206725299358 0.989305973053 0.145840093493
outer loop
vertex 327.276763916 838.817871094 402.475219727
vertex 327.276763916 839.236938477 399.632476807
vertex 322.276763916 838.971740723 401.502319336
endloop
endfacet
facet normal -0.00206725485623 0.989305973053 0.145840093493
outer loop
vertex 333.776763916 838.971740723 401.502319336
vertex 328.776763916 839.236938477 399.632476807
vertex 328.776763916 838.817871094 402.475219727
endloop
endfacet
facet normal 0.00155462149996 0.990659892559 0.136347144842
outer loop
vertex 333.776763916 838.971740723 401.502319336
vertex 333.776763916 839.329956055 398.899627686
vertex 328.776763916 839.236938477 399.632476807
endloop
endfacet
facet normal -0.00191631598864 0.981002748013 0.193984255195
outer loop
vertex 327.276763916 838.308166504 405.303131104
vertex 322.276763916 838.537597656 404.093475342
vertex 322.276763916 838.027954102 406.670806885
endloop
endfacet
facet normal 0.00224423618056 0.984139561653 0.177381962538
outer loop
vertex 327.276763916 838.308166504 405.303131104
vertex 327.276763916 838.817871094 402.475219727
vertex 322.276763916 838.537597656 404.093475342
endloop
endfacet
facet normal -0.00198174221441 0.981048047543 0.193754345179
outer loop
vertex 327.285675049 838.285522461 405.417877197
vertex 327.276763916 838.308166504 405.303131104
vertex 322.276763916 838.027954102 406.670806885
endloop
endfacet
facet normal -0.0014686450595 0.980657696724 0.19572532177
outer loop
vertex 327.311889648 838.263305664 405.529388428
vertex 327.285675049 838.285522461 405.417877197
vertex 322.276763916 838.027954102 406.670806885
endloop
endfacet
facet normal -0.00119099498261 0.980422496796 0.196901634336
outer loop
vertex 327.371002197 838.235778809 405.666809082
vertex 327.311889648 838.263305664 405.529388428
vertex 322.276763916 838.027954102 406.670806885
endloop
endfacet
facet normal -0.000887378409971 0.98012471199 0.198380514979
outer loop
vertex 327.456726074 838.21081543 405.790527344
vertex 327.371002197 838.235778809 405.666809082
vertex 322.276763916 838.027954102 406.670806885
endloop
endfacet
facet normal -0.000714126508683 0.979926347733 0.199358791113
outer loop
vertex 327.56652832 838.189575195 405.895324707
vertex 327.456726074 838.21081543 405.790527344
vertex 322.276763916 838.027954102 406.670806885
endloop
endfacet
facet normal -0.000484310410684 0.979619324207 0.200862452388
outer loop
vertex 327.694854736 838.173156738 405.975708008
vertex 327.56652832 838.189575195 405.895324707
vertex 322.276763916 838.027954102 406.670806885
endloop
endfacet
facet normal -0.000283057946945 0.979309797287 0.202366515994
outer loop
vertex 327.837432861 838.162231445 406.028778076
vertex 327.694854736 838.173156738 405.975708008
vertex 322.276763916 838.027954102 406.670806885
endloop
endfacet
facet normal -0.000321118684951 0.979375064373 0.202050507069
outer loop
vertex 327.987976074 838.157470703 406.052093506
vertex 327.837432861 838.162231445 406.028778076
vertex 322.276763916 838.027954102 406.670806885
endloop
endfacet
facet normal -0.00224423408508 0.984139561653 0.177381962538
outer loop
vertex 333.776763916 838.537597656 404.093475342
vertex 328.776763916 838.817871094 402.475219727
vertex 328.776763916 838.308166504 405.303131104
endloop
endfacet
facet normal 0.0018024512101 0.98625099659 0.165244400501
outer loop
vertex 333.776763916 838.537597656 404.093475342
vertex 333.776763916 838.971740723 401.502319336
vertex 328.776763916 838.817871094 402.475219727
endloop
endfacet
facet normal 0.00191631598864 0.981002748013 0.193984255195
outer loop
vertex 333.776763916 838.027954102 406.670806885
vertex 333.776763916 838.537597656 404.093475342
vertex 328.776763916 838.308166504 405.303131104
endloop
endfacet
facet normal 0.0 0.978784799576 0.204891115427
outer loop
vertex 333.776763916 838.027954102 406.670806885
vertex 327.987976074 838.157470703 406.052093506
vertex 322.276763916 838.027954102 406.670806885
endloop
endfacet
facet normal 0.00176803139038 0.980899870396 0.194505289197
outer loop
vertex 333.776763916 838.027954102 406.670806885
vertex 328.776763916 838.308166504 405.303131104
vertex 328.75402832 838.271850586 405.486480713
endloop
endfacet
facet normal 0.00131735787727 0.980534732342 0.19634129107
outer loop
vertex 333.776763916 838.027954102 406.670806885
vertex 328.75402832 838.271850586 405.486480713
vertex 328.687011719 838.237426758 405.658843994
endloop
endfacet
facet normal 0.000856551574543 0.98008710146 0.198566287756
outer loop
vertex 333.776763916 838.027954102 406.670806885
vertex 328.687011719 838.237426758 405.658843994
vertex 328.579589844 838.20690918 405.809936523
endloop
endfacet
facet normal 0.000602356682066 0.979787766933 0.200038790703
outer loop
vertex 333.776763916 838.027954102 406.670806885
vertex 328.579589844 838.20690918 405.809936523
vertex 328.437530518 838.182373047 405.930541992
endloop
endfacet
facet normal 0.000444664008683 0.979564487934 0.201129496098
outer loop
vertex 333.776763916 838.027954102 406.670806885
vertex 328.437530518 838.182373047 405.930541992
vertex 328.287353516 838.166870117 406.006378174
endloop
endfacet
facet normal 0.000305311928969 0.979337334633 0.20223325491
outer loop
vertex 333.776763916 838.027954102 406.670806885
vertex 328.287353516 838.166870117 406.006378174
vertex 328.139953613 838.159057617 406.044433594
endloop
endfacet
facet normal 7.24229539628e-05 0.978920519352 0.204242005944
outer loop
vertex 333.776763916 838.027954102 406.670806885
vertex 328.139953613 838.159057617 406.044433594
vertex 327.987976074 838.157470703 406.052093506
endloop
endfacet
facet normal -1.0 -0.0 0.0
outer loop
vertex 322.276763916 834.069702148 406.649841309
vertex 322.276763916 833.462402344 404.093475342
vertex 322.276763916 833.972045898 406.670806885
endloop
endfacet
facet normal -1.0 -0.0 -0.0
outer loop
vertex 322.276763916 837.489746094 408.703125
vertex 322.276763916 837.930297852 406.649841309
vertex 322.276763916 834.510253906 408.703125
endloop
endfacet
facet normal -1.0 0.0 -0.0
outer loop
vertex 322.276763916 834.510253906 408.703125
vertex 322.276763916 837.930297852 406.649841309
vertex 322.276763916 834.069702148 406.649841309
endloop
endfacet
facet normal -1.0 0.0 -0.0
outer loop
vertex 322.276763916 834.069702148 406.649841309
vertex 322.276763916 837.930297852 406.649841309
vertex 322.276763916 833.462402344 404.093475342
endloop
endfacet
facet normal -1.0 0.0 -0.0
outer loop
vertex 322.276763916 833.462402344 404.093475342
vertex 322.276763916 838.537597656 404.093475342
vertex 322.276763916 833.028259277 401.502319336
endloop
endfacet
facet normal -1.0 0.0 -0.0
outer loop
vertex 322.276763916 838.027954102 406.670806885
vertex 322.276763916 838.537597656 404.093475342
vertex 322.276763916 837.930297852 406.649841309
endloop
endfacet
facet normal -1.0 0.0 -0.0
outer loop
vertex 322.276763916 837.930297852 406.649841309
vertex 322.276763916 838.537597656 404.093475342
vertex 322.276763916 833.462402344 404.093475342
endloop
endfacet
facet normal -1.0 0.0 -0.0
outer loop
vertex 322.276763916 833.028259277 401.502319336
vertex 322.276763916 835.005310059 398.570373535
vertex 322.276763916 832.670043945 398.899627686
endloop
endfacet
facet normal -1.0 -0.0 0.0
outer loop
vertex 322.276763916 835.005310059 398.570373535
vertex 322.276763916 834.76550293 398.299682617
vertex 322.276763916 832.670043945 398.899627686
endloop
endfacet
facet normal -1.0 0.0 0.0
outer loop
vertex 322.276763916 833.028259277 401.502319336
vertex 322.276763916 835.30291748 398.775787354
vertex 322.276763916 835.005310059 398.570373535
endloop
endfacet
facet normal -1.0 -0.0 0.0
outer loop
vertex 322.276763916 834.76550293 398.299682617
vertex 322.276763916 834.597473145 397.979492188
vertex 322.276763916 832.670043945 398.899627686
endloop
endfacet
facet normal -1.0 0.0 0.0
outer loop
vertex 322.276763916 833.028259277 401.502319336
vertex 322.276763916 835.641052246 398.904022217
vertex 322.276763916 835.30291748 398.775787354
endloop
endfacet
facet normal -1.0 0.0 -0.0
outer loop
vertex 322.276763916 832.670043945 398.899627686
vertex 322.276763916 834.510925293 397.628387451
vertex 322.276763916 832.388000488 396.287536621
endloop
endfacet
facet normal -1.0 -0.0 0.0
outer loop
vertex 322.276763916 834.597473145 397.979492188
vertex 322.276763916 834.510925293 397.628387451
vertex 322.276763916 832.670043945 398.899627686
endloop
endfacet
facet normal -1.0 0.0 0.0
outer loop
vertex 322.276763916 833.028259277 401.502319336
vertex 322.276763916 836.0 398.947601318
vertex 322.276763916 835.641052246 398.904022217
endloop
endfacet
facet normal -1.0 0.0 -0.0
outer loop
vertex 322.276763916 834.510925293 397.628387451
vertex 322.276763916 834.510925293 397.266784668
vertex 322.276763916 832.388000488 396.287536621
endloop
endfacet
facet normal -1.0 0.0 0.0
outer loop
vertex 322.276763916 836.0 398.947601318
vertex 322.276763916 838.971740723 401.502319336
vertex 322.276763916 836.358947754 398.904022217
endloop
endfacet
facet normal -1.0 0.0 -0.0
outer loop
vertex 322.276763916 838.537597656 404.093475342
vertex 322.276763916 838.971740723 401.502319336
vertex 322.276763916 833.028259277 401.502319336
endloop
endfacet
facet normal -1.0 0.0 0.0
outer loop
vertex 322.276763916 833.028259277 401.502319336
vertex 322.276763916 838.971740723 401.502319336
vertex 322.276763916 836.0 398.947601318
endloop
endfacet
facet normal -1.0 0.0 -0.0
outer loop
vertex 322.276763916 834.510925293 397.266784668
vertex 322.276763916 834.597473145 396.915679932
vertex 322.276763916 832.388000488 396.287536621
endloop
endfacet
facet normal -1.0 0.0 0.0
outer loop
vertex 322.276763916 838.971740723 401.502319336
vertex 322.276763916 836.69708252 398.775787354
vertex 322.276763916 836.358947754 398.904022217
endloop
endfacet
facet normal -1.0 0.0 -0.0
outer loop
vertex 322.276763916 834.597473145 396.915679932
vertex 322.276763916 834.76550293 396.595489502
vertex 322.276763916 832.388000488 396.287536621
endloop
endfacet
facet normal -1.0 0.0 0.0
outer loop
vertex 322.276763916 838.971740723 401.502319336
vertex 322.276763916 836.994689941 398.570373535
vertex 322.276763916 836.69708252 398.775787354
endloop
endfacet
facet normal -1.0 0.0 -0.0
outer loop
vertex 322.276763916 832.388000488 396.287536621
vertex 322.276763916 835.005310059 396.324829102
vertex 322.276763916 832.182434082 393.668334961
endloop
endfacet
facet normal -1.0 0.0 -0.0
outer loop
vertex 322.276763916 834.76550293 396.595489502
vertex 322.276763916 835.005310059 396.324829102
vertex 322.276763916 832.388000488 396.287536621
endloop
endfacet
facet normal -1.0 0.0 -0.0
outer loop
vertex 322.276763916 835.005310059 396.324829102
vertex 322.276763916 835.30291748 396.119415283
vertex 322.276763916 832.182434082 393.668334961
endloop
endfacet
facet normal -1.0 0.0 -0.0
outer loop
vertex 322.276763916 835.30291748 396.119415283
vertex 322.276763916 835.641052246 395.99118042
vertex 322.276763916 832.182434082 393.668334961
endloop
endfacet
facet normal -1.0 0.0 -0.0
outer loop
vertex 322.276763916 835.641052246 395.99118042
vertex 322.276763916 836.0 395.947601318
vertex 322.276763916 832.182434082 393.668334961
endloop
endfacet
facet normal -1.0 0.0 -0.0
outer loop
vertex 322.276763916 838.971740723 401.502319336
vertex 322.276763916 839.329956055 398.899627686
vertex 322.276763916 836.994689941 398.570373535
endloop
endfacet
facet normal -1.0 0.0 0.0
outer loop
vertex 322.276763916 836.994689941 398.570373535
vertex 322.276763916 839.329956055 398.899627686
vertex 322.276763916 837.23449707 398.299682617
endloop
endfacet
facet normal -1.0 0.0 0.0
outer loop
vertex 322.276763916 837.23449707 398.299682617
vertex 322.276763916 839.329956055 398.899627686
vertex 322.276763916 837.402526855 397.979492188
endloop
endfacet
facet normal -1.0 0.0 0.0
outer loop
vertex 322.276763916 837.402526855 397.979492188
vertex 322.276763916 839.329956055 398.899627686
vertex 322.276763916 837.489074707 397.628387451
endloop
endfacet
facet normal -1.0 0.0 0.0
outer loop
vertex 322.276763916 832.182434082 393.668334961
vertex 322.276763916 832.153442383 391.042541504
vertex 322.276763916 832.053466797 391.044250488
endloop
endfacet
facet normal -1.0 0.0 0.0
outer loop
vertex 322.276763916 836.0 395.947601318
vertex 322.276763916 832.153442383 391.042541504
vertex 322.276763916 832.182434082 393.668334961
endloop
endfacet
facet normal -1.0 0.0 -0.0
outer loop
vertex 322.276763916 839.329956055 398.899627686
vertex 322.276763916 839.611999512 396.287536621
vertex 322.276763916 837.489074707 397.628387451
endloop
endfacet
facet normal -1.0 0.0 0.0
outer loop
vertex 322.276763916 837.489074707 397.628387451
vertex 322.276763916 839.611999512 396.287536621
vertex 322.276763916 837.489074707 397.266784668
endloop
endfacet
facet normal -1.0 0.0 -0.0
outer loop
vertex 322.276763916 837.489074707 397.266784668
vertex 322.276763916 839.611999512 396.287536621
vertex 322.276763916 837.402526855 396.915679932
endloop
endfacet
facet normal -1.0 0.0 -0.0
outer loop
vertex 322.276763916 837.402526855 396.915679932
vertex 322.276763916 839.611999512 396.287536621
vertex 322.276763916 837.23449707 396.595489502
endloop
endfacet
facet normal -1.0 0.0 -0.0
outer loop
vertex 322.276763916 837.23449707 396.595489502
vertex 322.276763916 839.611999512 396.287536621
vertex 322.276763916 836.994689941 396.324829102
endloop
endfacet
facet normal -1.0 0.0 0.0
outer loop
vertex 322.276763916 832.104370117 388.196838379
vertex 322.276763916 832.118408203 388.130859375
vertex 322.276763916 832.10760498 388.16305542
endloop
endfacet
facet normal -1.0 0.0 0.0
outer loop
vertex 322.276763916 832.104370117 388.196838379
vertex 322.276763916 832.136169434 388.101898193
vertex 322.276763916 832.118408203 388.130859375
endloop
endfacet
facet normal -1.0 0.0 0.0
outer loop
vertex 322.276763916 832.104370117 388.196838379
vertex 322.276763916 832.159973145 388.077667236
vertex 322.276763916 832.136169434 388.101898193
endloop
endfacet
facet normal -1.0 0.0 0.0
outer loop
vertex 322.276763916 832.104370117 388.196838379
vertex 322.276763916 832.188598633 388.059448242
vertex 322.276763916 832.159973145 388.077667236
endloop
endfacet
facet normal -1.0 0.0 -0.0
outer loop
vertex 322.276763916 832.153442383 391.042541504
vertex 322.276763916 832.254333496 388.044250488
vertex 322.276763916 832.104370117 388.196838379
endloop
endfacet
facet normal -1.0 0.0 0.0
outer loop
vertex 322.276763916 832.188598633 388.059448242
vertex 322.276763916 832.254333496 388.044250488
vertex 322.276763916 832.220581055 388.048095703
endloop
endfacet
facet normal -1.0 0.0 0.0
outer loop
vertex 322.276763916 832.104370117 388.196838379
vertex 322.276763916 832.254333496 388.044250488
vertex 322.276763916 832.188598633 388.059448242
endloop
endfacet
facet normal -1.0 -0.0 -0.0
outer loop
vertex 322.276763916 839.611999512 396.287536621
vertex 322.276763916 839.817565918 393.668334961
vertex 322.276763916 836.994689941 396.324829102
endloop
endfacet
facet normal -1.0 0.0 -0.0
outer loop
vertex 322.276763916 836.994689941 396.324829102
vertex 322.276763916 839.817565918 393.668334961
vertex 322.276763916 836.69708252 396.119415283
endloop
endfacet
facet normal -1.0 0.0 -0.0
outer loop
vertex 322.276763916 836.69708252 396.119415283
vertex 322.276763916 839.817565918 393.668334961
vertex 322.276763916 836.358947754 395.99118042
endloop
endfacet
facet normal -1.0 0.0 -0.0
outer loop
vertex 322.276763916 836.358947754 395.99118042
vertex 322.276763916 839.817565918 393.668334961
vertex 322.276763916 836.0 395.947601318
endloop
endfacet
facet normal -1.0 0.0 -0.0
outer loop
vertex 322.276763916 836.0 395.947601318
vertex 322.276763916 839.846557617 391.042541504
vertex 322.276763916 832.153442383 391.042541504
endloop
endfacet
facet normal -1.0 -0.0 -0.0
outer loop
vertex 322.276763916 839.817565918 393.668334961
vertex 322.276763916 839.846557617 391.042541504
vertex 322.276763916 836.0 395.947601318
endloop
endfacet
facet normal -1.0 0.0 0.0
outer loop
vertex 322.276763916 839.817565918 393.668334961
vertex 322.276763916 839.946533203 391.044250488
vertex 322.276763916 839.846557617 391.042541504
endloop
endfacet
facet normal -1.0 -0.0 0.0
outer loop
vertex 322.276763916 839.895629883 388.196838379
vertex 322.276763916 839.745666504 388.044250488
vertex 322.276763916 839.846557617 391.042541504
endloop
endfacet
facet normal -1.0 0.0 0.0
outer loop
vertex 322.276763916 832.153442383 391.042541504
vertex 322.276763916 839.745666504 388.044250488
vertex 322.276763916 832.254333496 388.044250488
endloop
endfacet
facet normal -1.0 -0.0 0.0
outer loop
vertex 322.276763916 839.846557617 391.042541504
vertex 322.276763916 839.745666504 388.044250488
vertex 322.276763916 832.153442383 391.042541504
endloop
endfacet
facet normal -1.0 -0.0 0.0
outer loop
vertex 322.276763916 839.89239502 388.16305542
vertex 322.276763916 839.881591797 388.130859375
vertex 322.276763916 839.895629883 388.196838379
endloop
endfacet
facet normal -1.0 0.0 0.0
outer loop
vertex 322.276763916 839.895629883 388.196838379
vertex 322.276763916 839.881591797 388.130859375
vertex 322.276763916 839.745666504 388.044250488
endloop
endfacet
facet normal -1.0 0.0 0.0
outer loop
vertex 322.276763916 839.779418945 388.048095703
vertex 322.276763916 839.863830566 388.101898193
vertex 322.276763916 839.811401367 388.059448242
endloop
endfacet
facet normal -1.0 0.0 0.0
outer loop
vertex 322.276763916 839.745666504 388.044250488
vertex 322.276763916 839.863830566 388.101898193
vertex 322.276763916 839.779418945 388.048095703
endloop
endfacet
facet normal -1.0 0.0 0.0
outer loop
vertex 322.276763916 839.881591797 388.130859375
vertex 322.276763916 839.863830566 388.101898193
vertex 322.276763916 839.745666504 388.044250488
endloop
endfacet
facet normal -1.0 0.0 0.0
outer loop
vertex 322.276763916 839.863830566 388.101898193
vertex 322.276763916 839.840026855 388.077667236
vertex 322.276763916 839.811401367 388.059448242
endloop
endfacet
facet normal 1.0 0.0 0.0
outer loop
vertex 333.776763916 833.462402344 404.093475342
vertex 333.776763916 834.069702148 406.649841309
vertex 333.776763916 833.972045898 406.670806885
endloop
endfacet
facet normal 1.0 0.0 0.0
outer loop
vertex 333.776763916 837.930297852 406.649841309
vertex 333.776763916 837.489746094 408.703125
vertex 333.776763916 834.510253906 408.703125
endloop
endfacet
facet normal 1.0 0.0 0.0
outer loop
vertex 333.776763916 837.930297852 406.649841309
vertex 333.776763916 834.510253906 408.703125
vertex 333.776763916 834.069702148 406.649841309
endloop
endfacet
facet normal 1.0 0.0 0.0
outer loop
vertex 333.776763916 837.930297852 406.649841309
vertex 333.776763916 834.069702148 406.649841309
vertex 333.776763916 833.462402344 404.093475342
endloop
endfacet
facet normal 1.0 0.0 0.0
outer loop
vertex 333.776763916 838.537597656 404.093475342
vertex 333.776763916 838.027954102 406.670806885
vertex 333.776763916 837.930297852 406.649841309
endloop
endfacet
facet normal 1.0 0.0 0.0
outer loop
vertex 333.776763916 838.537597656 404.093475342
vertex 333.776763916 833.462402344 404.093475342
vertex 333.776763916 833.028259277 401.502319336
endloop
endfacet
facet normal 1.0 0.0 0.0
outer loop
vertex 333.776763916 838.537597656 404.093475342
vertex 333.776763916 837.930297852 406.649841309
vertex 333.776763916 833.462402344 404.093475342
endloop
endfacet
facet normal 1.0 0.0 0.0
outer loop
vertex 333.776763916 835.005310059 398.570373535
vertex 333.776763916 833.028259277 401.502319336
vertex 333.776763916 832.670043945 398.899627686
endloop
endfacet
facet normal 1.0 0.0 -0.0
outer loop
vertex 333.776763916 834.76550293 398.299682617
vertex 333.776763916 835.005310059 398.570373535
vertex 333.776763916 832.670043945 398.899627686
endloop
endfacet
facet normal 1.0 0.0 0.0
outer loop
vertex 333.776763916 835.30291748 398.775787354
vertex 333.776763916 833.028259277 401.502319336
vertex 333.776763916 835.005310059 398.570373535
endloop
endfacet
facet normal 1.0 0.0 -0.0
outer loop
vertex 333.776763916 834.597473145 397.979492188
vertex 333.776763916 834.76550293 398.299682617
vertex 333.776763916 832.670043945 398.899627686
endloop
endfacet
facet normal 1.0 0.0 0.0
outer loop
vertex 333.776763916 835.641052246 398.904022217
vertex 333.776763916 833.028259277 401.502319336
vertex 333.776763916 835.30291748 398.775787354
endloop
endfacet
facet normal 1.0 0.0 0.0
outer loop
vertex 333.776763916 834.510925293 397.628387451
vertex 333.776763916 832.670043945 398.899627686
vertex 333.776763916 832.388000488 396.287536621
endloop
endfacet
facet normal 1.0 0.0 -0.0
outer loop
vertex 333.776763916 834.510925293 397.628387451
vertex 333.776763916 834.597473145 397.979492188
vertex 333.776763916 832.670043945 398.899627686
endloop
endfacet
facet normal 1.0 0.0 0.0
outer loop
vertex 333.776763916 836.0 398.947601318
vertex 333.776763916 833.028259277 401.502319336
vertex 333.776763916 835.641052246 398.904022217
endloop
endfacet
facet normal 1.0 0.0 -0.0
outer loop
vertex 333.776763916 834.510925293 397.266784668
vertex 333.776763916 834.510925293 397.628387451
vertex 333.776763916 832.388000488 396.287536621
endloop
endfacet
facet normal 1.0 0.0 0.0
outer loop
vertex 333.776763916 838.971740723 401.502319336
vertex 333.776763916 833.028259277 401.502319336
vertex 333.776763916 836.0 398.947601318
endloop
endfacet
facet normal 1.0 0.0 0.0
outer loop
vertex 333.776763916 838.971740723 401.502319336
vertex 333.776763916 836.0 398.947601318
vertex 333.776763916 836.358947754 398.904022217
endloop
endfacet
facet normal 1.0 0.0 0.0
outer loop
vertex 333.776763916 838.971740723 401.502319336
vertex 333.776763916 838.537597656 404.093475342
vertex 333.776763916 833.028259277 401.502319336
endloop
endfacet
facet normal 1.0 0.0 0.0
outer loop
vertex 333.776763916 834.597473145 396.915679932
vertex 333.776763916 834.510925293 397.266784668
vertex 333.776763916 832.388000488 396.287536621
endloop
endfacet
facet normal 1.0 0.0 -0.0
outer loop
vertex 333.776763916 836.69708252 398.775787354
vertex 333.776763916 838.971740723 401.502319336
vertex 333.776763916 836.358947754 398.904022217
endloop
endfacet
facet normal 1.0 0.0 0.0
outer loop
vertex 333.776763916 834.76550293 396.595489502
vertex 333.776763916 834.597473145 396.915679932
vertex 333.776763916 832.388000488 396.287536621
endloop
endfacet
facet normal 1.0 0.0 -0.0
outer loop
vertex 333.776763916 836.994689941 398.570373535
vertex 333.776763916 838.971740723 401.502319336
vertex 333.776763916 836.69708252 398.775787354
endloop
endfacet
facet normal 1.0 0.0 0.0
outer loop
vertex 333.776763916 835.005310059 396.324829102
vertex 333.776763916 832.388000488 396.287536621
vertex 333.776763916 832.182434082 393.668334961
endloop
endfacet
facet normal 1.0 0.0 0.0
outer loop
vertex 333.776763916 835.005310059 396.324829102
vertex 333.776763916 834.76550293 396.595489502
vertex 333.776763916 832.388000488 396.287536621
endloop
endfacet
facet normal 1.0 0.0 0.0
outer loop
vertex 333.776763916 835.30291748 396.119415283
vertex 333.776763916 835.005310059 396.324829102
vertex 333.776763916 832.182434082 393.668334961
endloop
endfacet
facet normal 1.0 0.0 0.0
outer loop
vertex 333.776763916 835.641052246 395.99118042
vertex 333.776763916 835.30291748 396.119415283
vertex 333.776763916 832.182434082 393.668334961
endloop
endfacet
facet normal 1.0 0.0 0.0
outer loop
vertex 333.776763916 836.0 395.947601318
vertex 333.776763916 835.641052246 395.99118042
vertex 333.776763916 832.182434082 393.668334961
endloop
endfacet
facet normal 1.0 0.0 0.0
outer loop
vertex 333.776763916 839.329956055 398.899627686
vertex 333.776763916 838.971740723 401.502319336
vertex 333.776763916 836.994689941 398.570373535
endloop
endfacet
facet normal 1.0 0.0 0.0
outer loop
vertex 333.776763916 839.329956055 398.899627686
vertex 333.776763916 836.994689941 398.570373535
vertex 333.776763916 837.23449707 398.299682617
endloop
endfacet
facet normal 1.0 0.0 0.0
outer loop
vertex 333.776763916 839.329956055 398.899627686
vertex 333.776763916 837.23449707 398.299682617
vertex 333.776763916 837.402526855 397.979492188
endloop
endfacet
facet normal 1.0 0.0 0.0
outer loop
vertex 333.776763916 839.329956055 398.899627686
vertex 333.776763916 837.402526855 397.979492188
vertex 333.776763916 837.489074707 397.628387451
endloop
endfacet
facet normal 1.0 0.0 -0.0
outer loop
vertex 333.776763916 832.153442383 391.042541504
vertex 333.776763916 832.182434082 393.668334961
vertex 333.776763916 832.053466797 391.044250488
endloop
endfacet
facet normal 1.0 0.0 0.0
outer loop
vertex 333.776763916 832.153442383 391.042541504
vertex 333.776763916 836.0 395.947601318
vertex 333.776763916 832.182434082 393.668334961
endloop
endfacet
facet normal 1.0 0.0 0.0
outer loop
vertex 333.776763916 839.611999512 396.287536621
vertex 333.776763916 839.329956055 398.899627686
vertex 333.776763916 837.489074707 397.628387451
endloop
endfacet
facet normal 1.0 0.0 0.0
outer loop
vertex 333.776763916 839.611999512 396.287536621
vertex 333.776763916 837.489074707 397.628387451
vertex 333.776763916 837.489074707 397.266784668
endloop
endfacet
facet normal 1.0 0.0 0.0
outer loop
vertex 333.776763916 839.611999512 396.287536621
vertex 333.776763916 837.489074707 397.266784668
vertex 333.776763916 837.402526855 396.915679932
endloop
endfacet
facet normal 1.0 0.0 0.0
outer loop
vertex 333.776763916 839.611999512 396.287536621
vertex 333.776763916 837.402526855 396.915679932
vertex 333.776763916 837.23449707 396.595489502
endloop
endfacet
facet normal 1.0 0.0 0.0
outer loop
vertex 333.776763916 839.611999512 396.287536621
vertex 333.776763916 837.23449707 396.595489502
vertex 333.776763916 836.994689941 396.324829102
endloop
endfacet
facet normal 1.0 0.0 0.0
outer loop
vertex 333.776763916 832.118408203 388.130859375
vertex 333.776763916 832.104370117 388.196838379
vertex 333.776763916 832.10760498 388.16305542
endloop
endfacet
facet normal 1.0 0.0 0.0
outer loop
vertex 333.776763916 832.136169434 388.101898193
vertex 333.776763916 832.104370117 388.196838379
vertex 333.776763916 832.118408203 388.130859375
endloop
endfacet
facet normal 1.0 0.0 0.0
outer loop
vertex 333.776763916 832.159973145 388.077667236
vertex 333.776763916 832.104370117 388.196838379
vertex 333.776763916 832.136169434 388.101898193
endloop
endfacet
facet normal 1.0 0.0 0.0
outer loop
vertex 333.776763916 832.188598633 388.059448242
vertex 333.776763916 832.104370117 388.196838379
vertex 333.776763916 832.159973145 388.077667236
endloop
endfacet
facet normal 1.0 0.0 0.0
outer loop
vertex 333.776763916 832.254333496 388.044250488
vertex 333.776763916 832.153442383 391.042541504
vertex 333.776763916 832.104370117 388.196838379
endloop
endfacet
facet normal 1.0 0.0 0.0
outer loop
vertex 333.776763916 832.254333496 388.044250488
vertex 333.776763916 832.188598633 388.059448242
vertex 333.776763916 832.220581055 388.048095703
endloop
endfacet
facet normal 1.0 0.0 0.0
outer loop
vertex 333.776763916 832.254333496 388.044250488
vertex 333.776763916 832.104370117 388.196838379
vertex 333.776763916 832.188598633 388.059448242
endloop
endfacet
facet normal 1.0 0.0 0.0
outer loop
vertex 333.776763916 839.817565918 393.668334961
vertex 333.776763916 839.611999512 396.287536621
vertex 333.776763916 836.994689941 396.324829102
endloop
endfacet
facet normal 1.0 0.0 0.0
outer loop
vertex 333.776763916 839.817565918 393.668334961
vertex 333.776763916 836.994689941 396.324829102
vertex 333.776763916 836.69708252 396.119415283
endloop
endfacet
facet normal 1.0 0.0 0.0
outer loop
vertex 333.776763916 839.817565918 393.668334961
vertex 333.776763916 836.69708252 396.119415283
vertex 333.776763916 836.358947754 395.99118042
endloop
endfacet
facet normal 1.0 0.0 0.0
outer loop
vertex 333.776763916 839.817565918 393.668334961
vertex 333.776763916 836.358947754 395.99118042
vertex 333.776763916 836.0 395.947601318
endloop
endfacet
facet normal 1.0 0.0 0.0
outer loop
vertex 333.776763916 839.846557617 391.042541504
vertex 333.776763916 839.817565918 393.668334961
vertex 333.776763916 836.0 395.947601318
endloop
endfacet
facet normal 1.0 0.0 0.0
outer loop
vertex 333.776763916 839.846557617 391.042541504
vertex 333.776763916 836.0 395.947601318
vertex 333.776763916 832.153442383 391.042541504
endloop
endfacet
facet normal 1.0 0.0 0.0
outer loop
vertex 333.776763916 839.946533203 391.044250488
vertex 333.776763916 839.817565918 393.668334961
vertex 333.776763916 839.846557617 391.042541504
endloop
endfacet
facet normal 1.0 0.0 0.0
outer loop
vertex 333.776763916 839.745666504 388.044250488
vertex 333.776763916 839.895629883 388.196838379
vertex 333.776763916 839.846557617 391.042541504
endloop
endfacet
facet normal 1.0 0.0 0.0
outer loop
vertex 333.776763916 839.745666504 388.044250488
vertex 333.776763916 832.153442383 391.042541504
vertex 333.776763916 832.254333496 388.044250488
endloop
endfacet
facet normal 1.0 0.0 -0.0
outer loop
vertex 333.776763916 839.745666504 388.044250488
vertex 333.776763916 839.846557617 391.042541504
vertex 333.776763916 832.153442383 391.042541504
endloop
endfacet
facet normal 1.0 0.0 0.0
outer loop
vertex 333.776763916 839.881591797 388.130859375
vertex 333.776763916 839.89239502 388.16305542
vertex 333.776763916 839.895629883 388.196838379
endloop
endfacet
facet normal 1.0 0.0 0.0
outer loop
vertex 333.776763916 839.840026855 388.077667236
vertex 333.776763916 839.745666504 388.044250488
vertex 333.776763916 839.779418945 388.048095703
endloop
endfacet
facet normal 1.0 0.0 0.0
outer loop
vertex 333.776763916 839.840026855 388.077667236
vertex 333.776763916 839.779418945 388.048095703
vertex 333.776763916 839.811401367 388.059448242
endloop
endfacet
facet normal 1.0 0.0 0.0
outer loop
vertex 333.776763916 839.840026855 388.077667236
vertex 333.776763916 839.863830566 388.101898193
vertex 333.776763916 839.881591797 388.130859375
endloop
endfacet
facet normal 1.0 0.0 -0.0
outer loop
vertex 333.776763916 839.840026855 388.077667236
vertex 333.776763916 839.895629883 388.196838379
vertex 333.776763916 839.745666504 388.044250488
endloop
endfacet
facet normal 1.0 0.0 0.0
outer loop
vertex 333.776763916 839.840026855 388.077667236
vertex 333.776763916 839.881591797 388.130859375
vertex 333.776763916 839.895629883 388.196838379
endloop
endfacet
facet normal 0.0 0.0 1.0
outer loop
vertex 333.776763916 837.489746094 408.703125
vertex 322.276763916 834.510253906 408.703125
vertex 333.776763916 834.510253906 408.703125
endloop
endfacet
facet normal 0.0 0.0 1.0
outer loop
vertex 333.776763916 837.489746094 408.703125
vertex 322.276763916 837.489746094 408.703125
vertex 322.276763916 834.510253906 408.703125
endloop
endfacet
facet normal 0.0 0.0170915201306 -0.99985396862
outer loop
vertex 333.776763916 839.846557617 391.042541504
vertex 328.776763916 839.846557617 391.042541504
vertex 333.776763916 839.946533203 391.044250488
endloop
endfacet
facet normal 0.0 0.0170915201306 -0.99985396862
outer loop
vertex 328.776763916 839.846557617 391.042541504
vertex 328.776763916 839.946533203 391.044250488
vertex 333.776763916 839.946533203 391.044250488
endloop
endfacet
facet normal 0.0 0.999851346016 0.0172417741269
outer loop
vertex 333.776763916 839.895629883 388.196838379
vertex 328.776763916 839.846557617 391.042541504
vertex 333.776763916 839.846557617 391.042541504
endloop
endfacet
facet normal -0.0 0.999851346016 0.0172417741269
outer loop
vertex 328.776763916 839.895629883 388.196838379
vertex 328.776763916 839.846557617 391.042541504
vertex 333.776763916 839.895629883 388.196838379
endloop
endfacet
facet normal 0.0 0.113191872835 -0.993573129177
outer loop
vertex 333.776763916 839.745666504 388.044250488
vertex 328.776763916 839.745666504 388.044250488
vertex 328.776763916 839.779418945 388.048095703
endloop
endfacet
facet normal 0.0 0.334512889385 -0.94239115715
outer loop
vertex 333.776763916 839.779418945 388.048095703
vertex 328.776763916 839.779418945 388.048095703
vertex 328.776763916 839.811401367 388.059448242
endloop
endfacet
facet normal 0.0 0.113191872835 -0.993573129177
outer loop
vertex 333.776763916 839.779418945 388.048095703
vertex 333.776763916 839.745666504 388.044250488
vertex 328.776763916 839.779418945 388.048095703
endloop
endfacet
facet normal 0.0 0.536933660507 -0.843624472618
outer loop
vertex 333.776763916 839.811401367 388.059448242
vertex 328.776763916 839.811401367 388.059448242
vertex 328.776763916 839.840026855 388.077667236
endloop
endfacet
facet normal 0.0 0.334512889385 -0.94239115715
outer loop
vertex 333.776763916 839.811401367 388.059448242
vertex 333.776763916 839.779418945 388.048095703
vertex 328.776763916 839.811401367 388.059448242
endloop
endfacet
facet normal 0.0 0.713367938995 -0.700789690018
outer loop
vertex 333.776763916 839.840026855 388.077667236
vertex 328.776763916 839.840026855 388.077667236
vertex 328.776763916 839.863830566 388.101898193
endloop
endfacet
facet normal 0.0 0.536933660507 -0.843624472618
outer loop
vertex 333.776763916 839.840026855 388.077667236
vertex 333.776763916 839.811401367 388.059448242
vertex 328.776763916 839.840026855 388.077667236
endloop
endfacet
facet normal 0.0 0.852459251881 -0.522793769836
outer loop
vertex 333.776763916 839.863830566 388.101898193
vertex 328.776763916 839.863830566 388.101898193
vertex 328.776763916 839.881591797 388.130859375
endloop
endfacet
facet normal 0.0 0.713367938995 -0.700789690018
outer loop
vertex 333.776763916 839.863830566 388.101898193
vertex 333.776763916 839.840026855 388.077667236
vertex 328.776763916 839.863830566 388.101898193
endloop
endfacet
facet normal 0.0 0.948052406311 -0.318114250898
outer loop
vertex 333.776763916 839.881591797 388.130859375
vertex 328.776763916 839.881591797 388.130859375
vertex 328.776763916 839.89239502 388.16305542
endloop
endfacet
facet normal 0.0 0.852459251881 -0.522793769836
outer loop
vertex 333.776763916 839.881591797 388.130859375
vertex 333.776763916 839.863830566 388.101898193
vertex 328.776763916 839.881591797 388.130859375
endloop
endfacet
facet normal 0.0 0.99544686079 -0.0953183099627
outer loop
vertex 333.776763916 839.89239502 388.16305542
vertex 328.776763916 839.89239502 388.16305542
vertex 328.776763916 839.895629883 388.196838379
endloop
endfacet
facet normal 0.0 0.948052406311 -0.318114250898
outer loop
vertex 333.776763916 839.89239502 388.16305542
vertex 333.776763916 839.881591797 388.130859375
vertex 328.776763916 839.89239502 388.16305542
endloop
endfacet
facet normal 0.0 0.99544686079 -0.0953183099627
outer loop
vertex 333.776763916 839.895629883 388.196838379
vertex 333.776763916 839.89239502 388.16305542
vertex 328.776763916 839.895629883 388.196838379
endloop
endfacet
facet normal 0.0 -0.0170915201306 -0.999853909016
outer loop
vertex 322.276763916 832.053466797 391.044250488
vertex 322.276763916 832.153442383 391.042541504
vertex 333.776763916 832.053466797 391.044250488
endloop
endfacet
facet normal 0.0 -0.0170915201306 -0.999853909016
outer loop
vertex 333.776763916 832.053466797 391.044250488
vertex 322.276763916 832.153442383 391.042541504
vertex 333.776763916 832.153442383 391.042541504
endloop
endfacet
facet normal 0.0 0.0170915201306 -0.99985396862
outer loop
vertex 322.276763916 839.846557617 391.042541504
vertex 322.276763916 839.946533203 391.044250488
vertex 327.276763916 839.846557617 391.042541504
endloop
endfacet
facet normal 0.0 0.0170915201306 -0.99985396862
outer loop
vertex 327.276763916 839.846557617 391.042541504
vertex 322.276763916 839.946533203 391.044250488
vertex 327.276763916 839.946533203 391.044250488
endloop
endfacet
facet normal 0.0 -0.999851286411 0.0172417722642
outer loop
vertex 322.276763916 832.153442383 391.042541504
vertex 322.276763916 832.104370117 388.196838379
vertex 333.776763916 832.153442383 391.042541504
endloop
endfacet
facet normal 0.0 -0.999851286411 0.0172417722642
outer loop
vertex 333.776763916 832.153442383 391.042541504
vertex 322.276763916 832.104370117 388.196838379
vertex 333.776763916 832.104370117 388.196838379
endloop
endfacet
facet normal 0.0 0.0 -1.0
outer loop
vertex 328.776763916 834.25 388.044250488
vertex 333.776763916 839.745666504 388.044250488
vertex 333.776763916 832.254333496 388.044250488
endloop
endfacet
facet normal 0.0 0.0 -1.0
outer loop
vertex 333.776763916 832.254333496 388.044250488
vertex 327.276763916 834.25 388.044250488
vertex 328.776763916 834.25 388.044250488
endloop
endfacet
facet normal 0.0 0.0 -1.0
outer loop
vertex 333.776763916 832.254333496 388.044250488
vertex 322.276763916 832.254333496 388.044250488
vertex 327.276763916 834.25 388.044250488
endloop
endfacet
facet normal 0.0 0.0 -1.0
outer loop
vertex 328.776763916 834.25 388.044250488
vertex 328.776763916 839.745666504 388.044250488
vertex 333.776763916 839.745666504 388.044250488
endloop
endfacet
facet normal 0.0 0.0 -1.0
outer loop
vertex 327.276763916 834.25 388.044250488
vertex 322.276763916 839.745666504 388.044250488
vertex 327.276763916 839.745666504 388.044250488
endloop
endfacet
facet normal 0.0 0.0 -1.0
outer loop
vertex 322.276763916 832.254333496 388.044250488
vertex 322.276763916 839.745666504 388.044250488
vertex 327.276763916 834.25 388.044250488
endloop
endfacet
facet normal -0.0 0.999851346016 0.0172417741269
outer loop
vertex 322.276763916 839.895629883 388.196838379
vertex 322.276763916 839.846557617 391.042541504
vertex 327.276763916 839.895629883 388.196838379
endloop
endfacet
facet normal 0.0 0.999851346016 0.0172417741269
outer loop
vertex 327.276763916 839.895629883 388.196838379
vertex 322.276763916 839.846557617 391.042541504
vertex 327.276763916 839.846557617 391.042541504
endloop
endfacet
facet normal -0.0 -0.995446801186 -0.0953183025122
outer loop
vertex 333.776763916 832.10760498 388.16305542
vertex 322.276763916 832.104370117 388.196838379
vertex 322.276763916 832.10760498 388.16305542
endloop
endfacet
facet normal 0.0 -0.995446801186 -0.0953183025122
outer loop
vertex 333.776763916 832.10760498 388.16305542
vertex 333.776763916 832.104370117 388.196838379
vertex 322.276763916 832.104370117 388.196838379
endloop
endfacet
facet normal -0.0 -0.948052406311 -0.318114280701
outer loop
vertex 333.776763916 832.118408203 388.130859375
vertex 322.276763916 832.10760498 388.16305542
vertex 322.276763916 832.118408203 388.130859375
endloop
endfacet
facet normal 0.0 -0.948052406311 -0.318114280701
outer loop
vertex 333.776763916 832.118408203 388.130859375
vertex 333.776763916 832.10760498 388.16305542
vertex 322.276763916 832.10760498 388.16305542
endloop
endfacet
facet normal -0.0 -0.713367938995 -0.700789630413
outer loop
vertex 333.776763916 832.136169434 388.101898193
vertex 322.276763916 832.136169434 388.101898193
vertex 322.276763916 832.159973145 388.077667236
endloop
endfacet
facet normal -0.0 -0.852459192276 -0.522793769836
outer loop
vertex 333.776763916 832.136169434 388.101898193
vertex 322.276763916 832.118408203 388.130859375
vertex 322.276763916 832.136169434 388.101898193
endloop
endfacet
facet normal 0.0 -0.852459192276 -0.522793769836
outer loop
vertex 333.776763916 832.136169434 388.101898193
vertex 333.776763916 832.118408203 388.130859375
vertex 322.276763916 832.118408203 388.130859375
endloop
endfacet
facet normal -0.0 -0.536933660507 -0.843624472618
outer loop
vertex 333.776763916 832.159973145 388.077667236
vertex 322.276763916 832.159973145 388.077667236
vertex 322.276763916 832.188598633 388.059448242
endloop
endfacet
facet normal -0.0 -0.713367938995 -0.700789630413
outer loop
vertex 333.776763916 832.159973145 388.077667236
vertex 333.776763916 832.136169434 388.101898193
vertex 322.276763916 832.159973145 388.077667236
endloop
endfacet
facet normal -0.0 -0.334512919188 -0.942391216755
outer loop
vertex 333.776763916 832.188598633 388.059448242
vertex 322.276763916 832.188598633 388.059448242
vertex 322.276763916 832.220581055 388.048095703
endloop
endfacet
facet normal -0.0 -0.536933660507 -0.843624472618
outer loop
vertex 333.776763916 832.188598633 388.059448242
vertex 333.776763916 832.159973145 388.077667236
vertex 322.276763916 832.188598633 388.059448242
endloop
endfacet
facet normal -0.0 -0.113191880286 -0.993573188782
outer loop
vertex 333.776763916 832.220581055 388.048095703
vertex 322.276763916 832.220581055 388.048095703
vertex 322.276763916 832.254333496 388.044250488
endloop
endfacet
facet normal -0.0 -0.334512919188 -0.942391216755
outer loop
vertex 333.776763916 832.220581055 388.048095703
vertex 333.776763916 832.188598633 388.059448242
vertex 322.276763916 832.220581055 388.048095703
endloop
endfacet
facet normal -0.0 -0.113191880286 -0.993573188782
outer loop
vertex 333.776763916 832.254333496 388.044250488
vertex 333.776763916 832.220581055 388.048095703
vertex 322.276763916 832.254333496 388.044250488
endloop
endfacet
facet normal 0.0 0.113191872835 -0.993573129177
outer loop
vertex 327.276763916 839.745666504 388.044250488
vertex 322.276763916 839.745666504 388.044250488
vertex 322.276763916 839.779418945 388.048095703
endloop
endfacet
facet normal 0.0 0.334512889385 -0.94239115715
outer loop
vertex 327.276763916 839.779418945 388.048095703
vertex 322.276763916 839.779418945 388.048095703
vertex 322.276763916 839.811401367 388.059448242
endloop
endfacet
facet normal 0.0 0.113191872835 -0.993573129177
outer loop
vertex 327.276763916 839.779418945 388.048095703
vertex 327.276763916 839.745666504 388.044250488
vertex 322.276763916 839.779418945 388.048095703
endloop
endfacet
facet normal 0.0 0.536933660507 -0.843624472618
outer loop
vertex 327.276763916 839.811401367 388.059448242
vertex 322.276763916 839.811401367 388.059448242
vertex 322.276763916 839.840026855 388.077667236
endloop
endfacet
facet normal 0.0 0.334512889385 -0.94239115715
outer loop
vertex 327.276763916 839.811401367 388.059448242
vertex 327.276763916 839.779418945 388.048095703
vertex 322.276763916 839.811401367 388.059448242
endloop
endfacet
facet normal 0.0 0.713367938995 -0.700789690018
outer loop
vertex 327.276763916 839.840026855 388.077667236
vertex 322.276763916 839.840026855 388.077667236
vertex 322.276763916 839.863830566 388.101898193
endloop
endfacet
facet normal 0.0 0.536933660507 -0.843624472618
outer loop
vertex 327.276763916 839.840026855 388.077667236
vertex 327.276763916 839.811401367 388.059448242
vertex 322.276763916 839.840026855 388.077667236
endloop
endfacet
facet normal 0.0 0.852459251881 -0.522793769836
outer loop
vertex 327.276763916 839.863830566 388.101898193
vertex 322.276763916 839.863830566 388.101898193
vertex 322.276763916 839.881591797 388.130859375
endloop
endfacet
facet normal 0.0 0.713367938995 -0.700789690018
outer loop
vertex 327.276763916 839.863830566 388.101898193
vertex 327.276763916 839.840026855 388.077667236
vertex 322.276763916 839.863830566 388.101898193
endloop
endfacet
facet normal 0.0 0.948052406311 -0.318114250898
outer loop
vertex 327.276763916 839.881591797 388.130859375
vertex 322.276763916 839.881591797 388.130859375
vertex 322.276763916 839.89239502 388.16305542
endloop
endfacet
facet normal 0.0 0.852459251881 -0.522793769836
outer loop
vertex 327.276763916 839.881591797 388.130859375
vertex 327.276763916 839.863830566 388.101898193
vertex 322.276763916 839.881591797 388.130859375
endloop
endfacet
facet normal 0.0 0.99544686079 -0.0953183099627
outer loop
vertex 327.276763916 839.89239502 388.16305542
vertex 322.276763916 839.89239502 388.16305542
vertex 322.276763916 839.895629883 388.196838379
endloop
endfacet
facet normal 0.0 0.948052406311 -0.318114250898
outer loop
vertex 327.276763916 839.89239502 388.16305542
vertex 327.276763916 839.881591797 388.130859375
vertex 322.276763916 839.89239502 388.16305542
endloop
endfacet
facet normal 0.0 0.99544686079 -0.0953183099627
outer loop
vertex 327.276763916 839.895629883 388.196838379
vertex 327.276763916 839.89239502 388.16305542
vertex 322.276763916 839.895629883 388.196838379
endloop
endfacet
facet normal 0.996998071671 0.0 -0.0774264484644
outer loop
vertex 327.276763916 838.308166504 405.303131104
vertex 327.285675049 838.285522461 405.417877197
vertex 327.276763916 834.25 405.303131104
endloop
endfacet
facet normal 0.992709755898 0.00123487238307 -0.12052282691
outer loop
vertex 327.276763916 834.25 405.303131104
vertex 327.285675049 838.285522461 405.417877197
vertex 327.298553467 834.25 405.48260498
endloop
endfacet
facet normal 0.935018241405 0.00102652213536 -0.354598075151
outer loop
vertex 327.298553467 834.25 405.48260498
vertex 327.311889648 838.263305664 405.529388428
vertex 327.362670898 834.25 405.651672363
endloop
endfacet
facet normal 0.973437309265 -0.000565798545722 -0.228953078389
outer loop
vertex 327.285675049 838.285522461 405.417877197
vertex 327.311889648 838.263305664 405.529388428
vertex 327.298553467 834.25 405.48260498
endloop
endfacet
facet normal 0.918586015701 -0.000419157440774 -0.395220786333
outer loop
vertex 327.311889648 838.263305664 405.529388428
vertex 327.371002197 838.235778809 405.666809082
vertex 327.362670898 834.25 405.651672363
endloop
endfacet
facet normal 0.823035895824 0.000367943488527 -0.567989289761
outer loop
vertex 327.362670898 834.25 405.651672363
vertex 327.456726074 838.21081543 405.790527344
vertex 327.465362549 834.25 405.800476074
endloop
endfacet
facet normal 0.822007775307 0.00044448216795 -0.569476127625
outer loop
vertex 327.371002197 838.235778809 405.666809082
vertex 327.456726074 838.21081543 405.790527344
vertex 327.362670898 834.25 405.651672363
endloop
endfacet
facet normal 0.663115978241 0.000992766930722 -0.748516023159
outer loop
vertex 327.465362549 834.25 405.800476074
vertex 327.56652832 838.189575195 405.895324707
vertex 327.600708008 834.25 405.920379639
endloop
endfacet
facet normal 0.690396308899 -0.000311711628456 -0.723431229591
outer loop
vertex 327.456726074 838.21081543 405.790527344
vertex 327.56652832 838.189575195 405.895324707
vertex 327.465362549 834.25 405.800476074
endloop
endfacet
facet normal 0.464681297541 0.00133662065491 -0.885477006435
outer loop
vertex 327.600708008 834.25 405.920379639
vertex 327.694854736 838.173156738 405.975708008
vertex 327.760803223 834.25 406.004394531
endloop
endfacet
facet normal 0.530777752399 -0.000784983392805 -0.847510576248
outer loop
vertex 327.56652832 838.189575195 405.895324707
vertex 327.694854736 838.173156738 405.975708008
vertex 327.600708008 834.25 405.920379639
endloop
endfacet
facet normal 0.239356696606 0.00136313901749 -0.970930755138
outer loop
vertex 327.760803223 834.25 406.004394531
vertex 327.837432861 838.162231445 406.028778076
vertex 327.936340332 834.25 406.047668457
endloop
endfacet
facet normal 0.348769307137 -0.000990128843114 -0.93720805645
outer loop
vertex 327.694854736 838.173156738 405.975708008
vertex 327.837432861 838.162231445 406.028778076
vertex 327.760803223 834.25 406.004394531
endloop
endfacet
facet normal 0.0 0.00113245798275 -0.999999403954
outer loop
vertex 327.936340332 834.25 406.047668457
vertex 327.987976074 838.157470703 406.052093506
vertex 328.117156982 834.25 406.047668457
endloop
endfacet
facet normal 0.153022706509 -0.00090301601449 -0.988222241402
outer loop
vertex 327.837432861 838.162231445 406.028778076
vertex 327.987976074 838.157470703 406.052093506
vertex 327.936340332 834.25 406.047668457
endloop
endfacet
facet normal -0.239317685366 0.000592156720813 -0.970941185951
outer loop
vertex 328.117156982 834.25 406.047668457
vertex 328.139953613 838.159057617 406.044433594
vertex 328.292724609 834.25 406.004394531
endloop
endfacet
facet normal -0.0503321550786 -0.00053295691032 -0.99873238802
outer loop
vertex 327.987976074 838.157470703 406.052093506
vertex 328.139953613 838.159057617 406.044433594
vertex 328.117156982 834.25 406.047668457
endloop
endfacet
facet normal -0.249988406897 0.000147553611896 -0.968248784542
outer loop
vertex 328.139953613 838.159057617 406.044433594
vertex 328.287353516 838.166870117 406.006378174
vertex 328.292724609 834.25 406.004394531
endloop
endfacet
facet normal -0.464681684971 0.00048161164159 -0.885477662086
outer loop
vertex 328.292724609 834.25 406.004394531
vertex 328.437530518 838.182373047 405.930541992
vertex 328.452819824 834.25 405.920379639
endloop
endfacet
facet normal -0.450751721859 -0.000166033729329 -0.892649352551
outer loop
vertex 328.287353516 838.166870117 406.006378174
vertex 328.437530518 838.182373047 405.930541992
vertex 328.292724609 834.25 406.004394531
endloop
endfacet
facet normal -0.66320002079 0.000357250013622 -0.7484421134
outer loop
vertex 328.452819824 834.25 405.920379639
vertex 328.579589844 838.20690918 405.809936523
vertex 328.588134766 834.25 405.800476074
endloop
endfacet
facet normal -0.647141814232 -0.000545950664673 -0.762369453907
outer loop
vertex 328.437530518 838.182373047 405.930541992
vertex 328.579589844 838.20690918 405.809936523
vertex 328.452819824 834.25 405.920379639
endloop
endfacet
facet normal -0.822956979275 0.000228162927669 -0.568103611469
outer loop
vertex 328.588134766 834.25 405.800476074
vertex 328.687011719 838.237426758 405.658843994
vertex 328.690856934 834.25 405.651672363
endloop
endfacet
facet normal -0.814974844456 -0.000374434050173 -0.579496204853
outer loop
vertex 328.579589844 838.20690918 405.809936523
vertex 328.687011719 838.237426758 405.658843994
vertex 328.588134766 834.25 405.800476074
endloop
endfacet
facet normal -0.935018718243 0.000121774348372 -0.354598253965
outer loop
vertex 328.690856934 834.25 405.651672363
vertex 328.75402832 838.271850586 405.486480713
vertex 328.754974365 834.25 405.48260498
endloop
endfacet
facet normal -0.992710530758 -0.000117367402709 -0.120522923768
outer loop
vertex 328.754974365 834.25 405.48260498
vertex 328.75402832 838.271850586 405.486480713
vertex 328.776763916 834.25 405.303131104
endloop
endfacet
facet normal -0.932012736797 -0.000246928218985 -0.362425357103
outer loop
vertex 328.687011719 838.237426758 405.658843994
vertex 328.75402832 838.271850586 405.486480713
vertex 328.690856934 834.25 405.651672363
endloop
endfacet
facet normal -0.992399334908 0.0 -0.123058855534
outer loop
vertex 328.75402832 838.271850586 405.486480713
vertex 328.776763916 838.308166504 405.303131104
vertex 328.776763916 834.25 405.303131104
endloop
endfacet
facet normal 0.0 1.0 0.0
outer loop
vertex 328.117156982 834.25 406.047668457
vertex 328.292724609 834.25 406.004394531
vertex 328.452819824 834.25 405.920379639
endloop
endfacet
facet normal 0.0 1.0 0.0
outer loop
vertex 328.117156982 834.25 406.047668457
vertex 328.452819824 834.25 405.920379639
vertex 328.588134766 834.25 405.800476074
endloop
endfacet
facet normal 0.0 1.0 0.0
outer loop
vertex 328.776763916 834.25 405.303131104
vertex 328.588134766 834.25 405.800476074
vertex 328.690856934 834.25 405.651672363
endloop
endfacet
facet normal 0.0 1.0 0.0
outer loop
vertex 328.776763916 834.25 405.303131104
vertex 328.690856934 834.25 405.651672363
vertex 328.754974365 834.25 405.48260498
endloop
endfacet
facet normal 0.0 1.0 0.0
outer loop
vertex 327.760803223 834.25 406.004394531
vertex 327.936340332 834.25 406.047668457
vertex 328.117156982 834.25 406.047668457
endloop
endfacet
facet normal 0.0 1.0 0.0
outer loop
vertex 327.600708008 834.25 405.920379639
vertex 327.760803223 834.25 406.004394531
vertex 328.117156982 834.25 406.047668457
endloop
endfacet
facet normal 0.0 1.0 0.0
outer loop
vertex 327.465362549 834.25 405.800476074
vertex 327.600708008 834.25 405.920379639
vertex 328.117156982 834.25 406.047668457
endloop
endfacet
facet normal 0.0 1.0 0.0
outer loop
vertex 327.298553467 834.25 405.48260498
vertex 327.362670898 834.25 405.651672363
vertex 327.465362549 834.25 405.800476074
endloop
endfacet
facet normal 0.0 1.0 0.0
outer loop
vertex 327.276763916 834.25 405.303131104
vertex 328.588134766 834.25 405.800476074
vertex 328.776763916 834.25 405.303131104
endloop
endfacet
facet normal 0.0 1.0 0.0
outer loop
vertex 327.276763916 834.25 405.303131104
vertex 328.117156982 834.25 406.047668457
vertex 328.588134766 834.25 405.800476074
endloop
endfacet
facet normal 0.0 1.0 0.0
outer loop
vertex 327.276763916 834.25 405.303131104
vertex 327.465362549 834.25 405.800476074
vertex 328.117156982 834.25 406.047668457
endloop
endfacet
facet normal 0.0 1.0 0.0
outer loop
vertex 327.276763916 834.25 405.303131104
vertex 327.298553467 834.25 405.48260498
vertex 327.465362549 834.25 405.800476074
endloop
endfacet
facet normal 0.0 1.0 0.0
outer loop
vertex 327.276763916 834.25 388.044250488
vertex 328.776763916 834.25 405.303131104
vertex 328.776763916 834.25 388.044250488
endloop
endfacet
facet normal 0.0 1.0 0.0
outer loop
vertex 327.276763916 834.25 388.044250488
vertex 327.276763916 834.25 405.303131104
vertex 328.776763916 834.25 405.303131104
endloop
endfacet
facet normal -1.0 -0.0 -0.0
outer loop
vertex 328.776763916 838.308166504 405.303131104
vertex 328.776763916 838.817871094 402.475219727
vertex 328.776763916 834.25 405.303131104
endloop
endfacet
facet normal -1.0 -0.0 0.0
outer loop
vertex 328.776763916 835.005310059 398.570373535
vertex 328.776763916 834.76550293 398.299682617
vertex 328.776763916 834.25 405.303131104
endloop
endfacet
facet normal -1.0 0.0 0.0
outer loop
vertex 328.776763916 834.25 405.303131104
vertex 328.776763916 835.30291748 398.775787354
vertex 328.776763916 835.005310059 398.570373535
endloop
endfacet
facet normal -1.0 -0.0 0.0
outer loop
vertex 328.776763916 834.76550293 398.299682617
vertex 328.776763916 834.597473145 397.979492188
vertex 328.776763916 834.25 405.303131104
endloop
endfacet
facet normal -1.0 0.0 0.0
outer loop
vertex 328.776763916 834.25 405.303131104
vertex 328.776763916 835.641052246 398.904022217
vertex 328.776763916 835.30291748 398.775787354
endloop
endfacet
facet normal -1.0 -0.0 0.0
outer loop
vertex 328.776763916 834.597473145 397.979492188
vertex 328.776763916 834.510925293 397.628387451
vertex 328.776763916 834.25 405.303131104
endloop
endfacet
facet normal -1.0 -0.0 0.0
outer loop
vertex 328.776763916 838.817871094 402.475219727
vertex 328.776763916 836.0 398.947601318
vertex 328.776763916 834.25 405.303131104
endloop
endfacet
facet normal -1.0 0.0 0.0
outer loop
vertex 328.776763916 834.25 405.303131104
vertex 328.776763916 836.0 398.947601318
vertex 328.776763916 835.641052246 398.904022217
endloop
endfacet
facet normal -1.0 0.0 0.0
outer loop
vertex 328.776763916 838.817871094 402.475219727
vertex 328.776763916 836.358947754 398.904022217
vertex 328.776763916 836.0 398.947601318
endloop
endfacet
facet normal -1.0 0.0 0.0
outer loop
vertex 328.776763916 838.817871094 402.475219727
vertex 328.776763916 836.69708252 398.775787354
vertex 328.776763916 836.358947754 398.904022217
endloop
endfacet
facet normal -1.0 0.0 0.0
outer loop
vertex 328.776763916 837.23449707 398.299682617
vertex 328.776763916 839.236938477 399.632476807
vertex 328.776763916 837.402526855 397.979492188
endloop
endfacet
facet normal -1.0 0.0 0.0
outer loop
vertex 328.776763916 836.994689941 398.570373535
vertex 328.776763916 839.236938477 399.632476807
vertex 328.776763916 837.23449707 398.299682617
endloop
endfacet
facet normal -1.0 0.0 0.0
outer loop
vertex 328.776763916 836.69708252 398.775787354
vertex 328.776763916 839.236938477 399.632476807
vertex 328.776763916 836.994689941 398.570373535
endloop
endfacet
facet normal -1.0 0.0 -0.0
outer loop
vertex 328.776763916 838.817871094 402.475219727
vertex 328.776763916 839.236938477 399.632476807
vertex 328.776763916 836.69708252 398.775787354
endloop
endfacet
facet normal -1.0 0.0 0.0
outer loop
vertex 328.776763916 839.236938477 399.632476807
vertex 328.776763916 837.489074707 397.628387451
vertex 328.776763916 837.402526855 397.979492188
endloop
endfacet
facet normal -1.0 0.0 -0.0
outer loop
vertex 328.776763916 837.402526855 396.915679932
vertex 328.776763916 839.564941406 396.777770996
vertex 328.776763916 837.23449707 396.595489502
endloop
endfacet
facet normal -1.0 0.0 -0.0
outer loop
vertex 328.776763916 837.489074707 397.266784668
vertex 328.776763916 839.564941406 396.777770996
vertex 328.776763916 837.402526855 396.915679932
endloop
endfacet
facet normal -1.0 0.0 0.0
outer loop
vertex 328.776763916 837.489074707 397.628387451
vertex 328.776763916 839.564941406 396.777770996
vertex 328.776763916 837.489074707 397.266784668
endloop
endfacet
facet normal -1.0 0.0 -0.0
outer loop
vertex 328.776763916 839.236938477 399.632476807
vertex 328.776763916 839.564941406 396.777770996
vertex 328.776763916 837.489074707 397.628387451
endloop
endfacet
facet normal -1.0 0.0 -0.0
outer loop
vertex 328.776763916 839.564941406 396.777770996
vertex 328.776763916 839.801574707 393.9140625
vertex 328.776763916 837.23449707 396.595489502
endloop
endfacet
facet normal -1.0 0.0 -0.0
outer loop
vertex 328.776763916 836.358947754 395.99118042
vertex 328.776763916 839.801574707 393.9140625
vertex 328.776763916 836.0 395.947601318
endloop
endfacet
facet normal -1.0 0.0 -0.0
outer loop
vertex 328.776763916 836.69708252 396.119415283
vertex 328.776763916 839.801574707 393.9140625
vertex 328.776763916 836.358947754 395.99118042
endloop
endfacet
facet normal -1.0 0.0 -0.0
outer loop
vertex 328.776763916 836.994689941 396.324829102
vertex 328.776763916 839.801574707 393.9140625
vertex 328.776763916 836.69708252 396.119415283
endloop
endfacet
facet normal -1.0 0.0 -0.0
outer loop
vertex 328.776763916 837.23449707 396.595489502
vertex 328.776763916 839.801574707 393.9140625
vertex 328.776763916 836.994689941 396.324829102
endloop
endfacet
facet normal -1.0 -0.0 0.0
outer loop
vertex 328.776763916 834.597473145 396.915679932
vertex 328.776763916 834.25 388.044250488
vertex 328.776763916 834.510925293 397.266784668
endloop
endfacet
facet normal -1.0 -0.0 0.0
outer loop
vertex 328.776763916 834.76550293 396.595489502
vertex 328.776763916 834.25 388.044250488
vertex 328.776763916 834.597473145 396.915679932
endloop
endfacet
facet normal -1.0 -0.0 0.0
outer loop
vertex 328.776763916 835.005310059 396.324829102
vertex 328.776763916 834.25 388.044250488
vertex 328.776763916 834.76550293 396.595489502
endloop
endfacet
facet normal -1.0 -0.0 0.0
outer loop
vertex 328.776763916 835.30291748 396.119415283
vertex 328.776763916 834.25 388.044250488
vertex 328.776763916 835.005310059 396.324829102
endloop
endfacet
facet normal -1.0 -0.0 0.0
outer loop
vertex 328.776763916 835.641052246 395.99118042
vertex 328.776763916 834.25 388.044250488
vertex 328.776763916 835.30291748 396.119415283
endloop
endfacet
facet normal -1.0 -0.0 0.0
outer loop
vertex 328.776763916 836.0 395.947601318
vertex 328.776763916 834.25 388.044250488
vertex 328.776763916 835.641052246 395.99118042
endloop
endfacet
facet normal -1.0 0.0 -0.0
outer loop
vertex 328.776763916 836.0 395.947601318
vertex 328.776763916 839.846557617 391.042541504
vertex 328.776763916 834.25 388.044250488
endloop
endfacet
facet normal -1.0 -0.0 -0.0
outer loop
vertex 328.776763916 839.801574707 393.9140625
vertex 328.776763916 839.846557617 391.042541504
vertex 328.776763916 836.0 395.947601318
endloop
endfacet
facet normal -1.0 0.0 0.0
outer loop
vertex 328.776763916 839.801574707 393.9140625
vertex 328.776763916 839.946533203 391.044250488
vertex 328.776763916 839.846557617 391.042541504
endloop
endfacet
facet normal -1.0 0.0 0.0
outer loop
vertex 328.776763916 839.846557617 391.042541504
vertex 328.776763916 839.745666504 388.044250488
vertex 328.776763916 834.25 388.044250488
endloop
endfacet
facet normal -1.0 -0.0 0.0
outer loop
vertex 328.776763916 839.895629883 388.196838379
vertex 328.776763916 839.745666504 388.044250488
vertex 328.776763916 839.846557617 391.042541504
endloop
endfacet
facet normal -1.0 0.0 0.0
outer loop
vertex 328.776763916 839.745666504 388.044250488
vertex 328.776763916 839.811401367 388.059448242
vertex 328.776763916 839.779418945 388.048095703
endloop
endfacet
facet normal -1.0 -0.0 0.0
outer loop
vertex 328.776763916 839.89239502 388.16305542
vertex 328.776763916 839.840026855 388.077667236
vertex 328.776763916 839.895629883 388.196838379
endloop
endfacet
facet normal -1.0 -0.0 0.0
outer loop
vertex 328.776763916 839.881591797 388.130859375
vertex 328.776763916 839.840026855 388.077667236
vertex 328.776763916 839.89239502 388.16305542
endloop
endfacet
facet normal -1.0 -0.0 0.0
outer loop
vertex 328.776763916 839.863830566 388.101898193
vertex 328.776763916 839.840026855 388.077667236
vertex 328.776763916 839.881591797 388.130859375
endloop
endfacet
facet normal -1.0 0.0 0.0
outer loop
vertex 328.776763916 839.895629883 388.196838379
vertex 328.776763916 839.840026855 388.077667236
vertex 328.776763916 839.745666504 388.044250488
endloop
endfacet
facet normal -1.0 0.0 0.0
outer loop
vertex 328.776763916 839.745666504 388.044250488
vertex 328.776763916 839.840026855 388.077667236
vertex 328.776763916 839.811401367 388.059448242
endloop
endfacet
facet normal -1.0 0.0 0.0
outer loop
vertex 328.776763916 834.25 388.044250488
vertex 328.776763916 834.25 405.303131104
vertex 328.776763916 834.510925293 397.266784668
endloop
endfacet
facet normal -1.0 0.0 0.0
outer loop
vertex 328.776763916 834.510925293 397.266784668
vertex 328.776763916 834.25 405.303131104
vertex 328.776763916 834.510925293 397.628387451
endloop
endfacet
facet normal 1.0 0.0 -0.0
outer loop
vertex 327.276763916 839.811401367 388.059448242
vertex 327.276763916 839.840026855 388.077667236
vertex 327.276763916 839.779418945 388.048095703
endloop
endfacet
facet normal 1.0 0.0 -0.0
outer loop
vertex 327.276763916 839.840026855 388.077667236
vertex 327.276763916 839.863830566 388.101898193
vertex 327.276763916 839.779418945 388.048095703
endloop
endfacet
facet normal 1.0 0.0 -0.0
outer loop
vertex 327.276763916 839.779418945 388.048095703
vertex 327.276763916 839.89239502 388.16305542
vertex 327.276763916 839.745666504 388.044250488
endloop
endfacet
facet normal 1.0 0.0 -0.0
outer loop
vertex 327.276763916 839.881591797 388.130859375
vertex 327.276763916 839.89239502 388.16305542
vertex 327.276763916 839.863830566 388.101898193
endloop
endfacet
facet normal 1.0 0.0 -0.0
outer loop
vertex 327.276763916 839.863830566 388.101898193
vertex 327.276763916 839.89239502 388.16305542
vertex 327.276763916 839.779418945 388.048095703
endloop
endfacet
facet normal 1.0 0.0 -0.0
outer loop
vertex 327.276763916 839.89239502 388.16305542
vertex 327.276763916 839.895629883 388.196838379
vertex 327.276763916 839.745666504 388.044250488
endloop
endfacet
facet normal 1.0 0.0 -0.0
outer loop
vertex 327.276763916 839.745666504 388.044250488
vertex 327.276763916 839.846557617 391.042541504
vertex 327.276763916 834.25 388.044250488
endloop
endfacet
facet normal 1.0 0.0 0.0
outer loop
vertex 327.276763916 839.895629883 388.196838379
vertex 327.276763916 839.846557617 391.042541504
vertex 327.276763916 839.745666504 388.044250488
endloop
endfacet
facet normal 1.0 0.0 0.0
outer loop
vertex 327.276763916 835.005310059 396.324829102
vertex 327.276763916 834.76550293 396.595489502
vertex 327.276763916 834.25 388.044250488
endloop
endfacet
facet normal 1.0 0.0 0.0
outer loop
vertex 327.276763916 834.25 388.044250488
vertex 327.276763916 835.30291748 396.119415283
vertex 327.276763916 835.005310059 396.324829102
endloop
endfacet
facet normal 1.0 0.0 0.0
outer loop
vertex 327.276763916 834.76550293 396.595489502
vertex 327.276763916 834.597473145 396.915679932
vertex 327.276763916 834.25 388.044250488
endloop
endfacet
facet normal 1.0 0.0 0.0
outer loop
vertex 327.276763916 834.25 388.044250488
vertex 327.276763916 835.641052246 395.99118042
vertex 327.276763916 835.30291748 396.119415283
endloop
endfacet
facet normal 1.0 0.0 0.0
outer loop
vertex 327.276763916 834.597473145 396.915679932
vertex 327.276763916 834.510925293 397.266784668
vertex 327.276763916 834.25 388.044250488
endloop
endfacet
facet normal 1.0 0.0 0.0
outer loop
vertex 327.276763916 839.846557617 391.042541504
vertex 327.276763916 836.0 395.947601318
vertex 327.276763916 834.25 388.044250488
endloop
endfacet
facet normal 1.0 0.0 0.0
outer loop
vertex 327.276763916 834.25 388.044250488
vertex 327.276763916 836.0 395.947601318
vertex 327.276763916 835.641052246 395.99118042
endloop
endfacet
facet normal 1.0 0.0 0.0
outer loop
vertex 327.276763916 839.946533203 391.044250488
vertex 327.276763916 839.801574707 393.9140625
vertex 327.276763916 839.846557617 391.042541504
endloop
endfacet
facet normal 1.0 -0.0 0.0
outer loop
vertex 327.276763916 836.69708252 396.119415283
vertex 327.276763916 839.801574707 393.9140625
vertex 327.276763916 836.994689941 396.324829102
endloop
endfacet
facet normal 1.0 -0.0 0.0
outer loop
vertex 327.276763916 836.358947754 395.99118042
vertex 327.276763916 839.801574707 393.9140625
vertex 327.276763916 836.69708252 396.119415283
endloop
endfacet
facet normal 1.0 -0.0 0.0
outer loop
vertex 327.276763916 836.0 395.947601318
vertex 327.276763916 839.801574707 393.9140625
vertex 327.276763916 836.358947754 395.99118042
endloop
endfacet
facet normal 1.0 0.0 0.0
outer loop
vertex 327.276763916 839.846557617 391.042541504
vertex 327.276763916 839.801574707 393.9140625
vertex 327.276763916 836.0 395.947601318
endloop
endfacet
facet normal 1.0 0.0 0.0
outer loop
vertex 327.276763916 839.801574707 393.9140625
vertex 327.276763916 837.23449707 396.595489502
vertex 327.276763916 836.994689941 396.324829102
endloop
endfacet
facet normal 1.0 0.0 0.0
outer loop
vertex 327.276763916 839.801574707 393.9140625
vertex 327.276763916 839.564941406 396.777770996
vertex 327.276763916 837.23449707 396.595489502
endloop
endfacet
facet normal 1.0 -0.0 0.0
outer loop
vertex 327.276763916 837.489074707 397.266784668
vertex 327.276763916 839.564941406 396.777770996
vertex 327.276763916 837.489074707 397.628387451
endloop
endfacet
facet normal 1.0 -0.0 0.0
outer loop
vertex 327.276763916 837.402526855 396.915679932
vertex 327.276763916 839.564941406 396.777770996
vertex 327.276763916 837.489074707 397.266784668
endloop
endfacet
facet normal 1.0 0.0 0.0
outer loop
vertex 327.276763916 837.23449707 396.595489502
vertex 327.276763916 839.564941406 396.777770996
vertex 327.276763916 837.402526855 396.915679932
endloop
endfacet
facet normal 1.0 0.0 0.0
outer loop
vertex 327.276763916 839.564941406 396.777770996
vertex 327.276763916 839.236938477 399.632476807
vertex 327.276763916 837.489074707 397.628387451
endloop
endfacet
facet normal 1.0 0.0 -0.0
outer loop
vertex 327.276763916 836.994689941 398.570373535
vertex 327.276763916 839.236938477 399.632476807
vertex 327.276763916 836.69708252 398.775787354
endloop
endfacet
facet normal 1.0 0.0 -0.0
outer loop
vertex 327.276763916 837.23449707 398.299682617
vertex 327.276763916 839.236938477 399.632476807
vertex 327.276763916 836.994689941 398.570373535
endloop
endfacet
facet normal 1.0 0.0 -0.0
outer loop
vertex 327.276763916 837.402526855 397.979492188
vertex 327.276763916 839.236938477 399.632476807
vertex 327.276763916 837.23449707 398.299682617
endloop
endfacet
facet normal 1.0 0.0 -0.0
outer loop
vertex 327.276763916 837.489074707 397.628387451
vertex 327.276763916 839.236938477 399.632476807
vertex 327.276763916 837.402526855 397.979492188
endloop
endfacet
facet normal 1.0 0.0 0.0
outer loop
vertex 327.276763916 834.597473145 397.979492188
vertex 327.276763916 834.25 405.303131104
vertex 327.276763916 834.510925293 397.628387451
endloop
endfacet
facet normal 1.0 0.0 0.0
outer loop
vertex 327.276763916 834.76550293 398.299682617
vertex 327.276763916 834.25 405.303131104
vertex 327.276763916 834.597473145 397.979492188
endloop
endfacet
facet normal 1.0 0.0 0.0
outer loop
vertex 327.276763916 835.005310059 398.570373535
vertex 327.276763916 834.25 405.303131104
vertex 327.276763916 834.76550293 398.299682617
endloop
endfacet
facet normal 1.0 0.0 0.0
outer loop
vertex 327.276763916 835.30291748 398.775787354
vertex 327.276763916 834.25 405.303131104
vertex 327.276763916 835.005310059 398.570373535
endloop
endfacet
facet normal 1.0 0.0 0.0
outer loop
vertex 327.276763916 835.641052246 398.904022217
vertex 327.276763916 834.25 405.303131104
vertex 327.276763916 835.30291748 398.775787354
endloop
endfacet
facet normal 1.0 0.0 0.0
outer loop
vertex 327.276763916 836.0 398.947601318
vertex 327.276763916 834.25 405.303131104
vertex 327.276763916 835.641052246 398.904022217
endloop
endfacet
facet normal 1.0 0.0 0.0
outer loop
vertex 327.276763916 839.236938477 399.632476807
vertex 327.276763916 838.817871094 402.475219727
vertex 327.276763916 836.69708252 398.775787354
endloop
endfacet
facet normal 1.0 0.0 -0.0
outer loop
vertex 327.276763916 836.0 398.947601318
vertex 327.276763916 838.817871094 402.475219727
vertex 327.276763916 834.25 405.303131104
endloop
endfacet
facet normal 1.0 0.0 -0.0
outer loop
vertex 327.276763916 836.358947754 398.904022217
vertex 327.276763916 838.817871094 402.475219727
vertex 327.276763916 836.0 398.947601318
endloop
endfacet
facet normal 1.0 0.0 -0.0
outer loop
vertex 327.276763916 836.69708252 398.775787354
vertex 327.276763916 838.817871094 402.475219727
vertex 327.276763916 836.358947754 398.904022217
endloop
endfacet
facet normal 1.0 0.0 0.0
outer loop
vertex 327.276763916 838.817871094 402.475219727
vertex 327.276763916 838.308166504 405.303131104
vertex 327.276763916 834.25 405.303131104
endloop
endfacet
facet normal 1.0 0.0 0.0
outer loop
vertex 327.276763916 834.25 405.303131104
vertex 327.276763916 834.25 388.044250488
vertex 327.276763916 834.510925293 397.628387451
endloop
endfacet
facet normal 1.0 0.0 0.0
outer loop
vertex 327.276763916 834.510925293 397.628387451
vertex 327.276763916 834.25 388.044250488
vertex 327.276763916 834.510925293 397.266784668
endloop
endfacet
facet normal 0.0 0.209904670715 0.977721869946
outer loop
vertex 322.276763916 834.069702148 406.649841309
vertex 322.276763916 833.972045898 406.670806885
vertex 333.776763916 833.972045898 406.670806885
endloop
endfacet
facet normal -0.0 0.209904670715 0.977721869946
outer loop
vertex 322.276763916 834.069702148 406.649841309
vertex 333.776763916 833.972045898 406.670806885
vertex 333.776763916 834.069702148 406.649841309
endloop
endfacet
facet normal 0.0 -0.977747499943 0.2097851336
outer loop
vertex 322.276763916 834.069702148 406.649841309
vertex 333.776763916 834.069702148 406.649841309
vertex 333.776763916 834.510253906 408.703125
endloop
endfacet
facet normal 0.0 -0.977747499943 0.2097851336
outer loop
vertex 322.276763916 834.510253906 408.703125
vertex 322.276763916 834.069702148 406.649841309
vertex 333.776763916 834.510253906 408.703125
endloop
endfacet
facet normal 0.0 -0.209904670715 0.977721869946
outer loop
vertex 322.276763916 838.027954102 406.670806885
vertex 322.276763916 837.930297852 406.649841309
vertex 333.776763916 837.930297852 406.649841309
endloop
endfacet
facet normal 0.0 -0.209904670715 0.977721869946
outer loop
vertex 322.276763916 838.027954102 406.670806885
vertex 333.776763916 837.930297852 406.649841309
vertex 333.776763916 838.027954102 406.670806885
endloop
endfacet
facet normal 0.0 0.977747499943 0.2097851336
outer loop
vertex 322.276763916 837.930297852 406.649841309
vertex 322.276763916 837.489746094 408.703125
vertex 333.776763916 837.489746094 408.703125
endloop
endfacet
facet normal -0.0 0.977747499943 0.2097851336
outer loop
vertex 322.276763916 837.930297852 406.649841309
vertex 333.776763916 837.489746094 408.703125
vertex 333.776763916 837.930297852 406.649841309
endloop
endfacet
facet normal 0.0 -0.120522931218 -0.992710530758
outer loop
vertex 322.276763916 836.0 398.947601318
vertex 322.276763916 836.358947754 398.904022217
vertex 327.276763916 836.0 398.947601318
endloop
endfacet
facet normal 0.0 -0.120522931218 -0.992710530758
outer loop
vertex 327.276763916 836.0 398.947601318
vertex 322.276763916 836.358947754 398.904022217
vertex 327.276763916 836.358947754 398.904022217
endloop
endfacet
facet normal -0.0 -0.354598253965 -0.935018777847
outer loop
vertex 327.276763916 836.358947754 398.904022217
vertex 322.276763916 836.358947754 398.904022217
vertex 327.276763916 836.69708252 398.775787354
endloop
endfacet
facet normal 0.0 -0.354598253965 -0.935018777847
outer loop
vertex 322.276763916 836.358947754 398.904022217
vertex 322.276763916 836.69708252 398.775787354
vertex 327.276763916 836.69708252 398.775787354
endloop
endfacet
facet normal 0.0 -0.568046450615 -0.82299643755
outer loop
vertex 327.276763916 836.69708252 398.775787354
vertex 322.276763916 836.994689941 398.570373535
vertex 327.276763916 836.994689941 398.570373535
endloop
endfacet
facet normal 0.0 -0.568046450615 -0.82299643755
outer loop
vertex 322.276763916 836.69708252 398.775787354
vertex 322.276763916 836.994689941 398.570373535
vertex 327.276763916 836.69708252 398.775787354
endloop
endfacet
facet normal 0.0 -0.748516380787 -0.663116335869
outer loop
vertex 327.276763916 836.994689941 398.570373535
vertex 322.276763916 837.23449707 398.299682617
vertex 327.276763916 837.23449707 398.299682617
endloop
endfacet
facet normal 0.0 -0.748516380787 -0.663116335869
outer loop
vertex 322.276763916 836.994689941 398.570373535
vertex 322.276763916 837.23449707 398.299682617
vertex 327.276763916 836.994689941 398.570373535
endloop
endfacet
facet normal 0.0 -0.885477781296 -0.464681714773
outer loop
vertex 327.276763916 837.23449707 398.299682617
vertex 322.276763916 837.402526855 397.979492188
vertex 327.276763916 837.402526855 397.979492188
endloop
endfacet
facet normal 0.0 -0.885477781296 -0.464681714773
outer loop
vertex 322.276763916 837.23449707 398.299682617
vertex 322.276763916 837.402526855 397.979492188
vertex 327.276763916 837.23449707 398.299682617
endloop
endfacet
facet normal 0.0 -0.970936477184 -0.239337310195
outer loop
vertex 327.276763916 837.402526855 397.979492188
vertex 322.276763916 837.489074707 397.628387451
vertex 327.276763916 837.489074707 397.628387451
endloop
endfacet
facet normal 0.0 -0.970936477184 -0.239337310195
outer loop
vertex 322.276763916 837.402526855 397.979492188
vertex 322.276763916 837.489074707 397.628387451
vertex 327.276763916 837.402526855 397.979492188
endloop
endfacet
facet normal 0.0 -1.0 -0.0
outer loop
vertex 327.276763916 837.489074707 397.628387451
vertex 322.276763916 837.489074707 397.266784668
vertex 327.276763916 837.489074707 397.266784668
endloop
endfacet
facet normal 0.0 -0.970936477184 0.239337310195
outer loop
vertex 327.276763916 837.489074707 397.266784668
vertex 322.276763916 837.489074707 397.266784668
vertex 327.276763916 837.402526855 396.915679932
endloop
endfacet
facet normal 0.0 -1.0 0.0
outer loop
vertex 322.276763916 837.489074707 397.628387451
vertex 322.276763916 837.489074707 397.266784668
vertex 327.276763916 837.489074707 397.628387451
endloop
endfacet
facet normal 0.0 -0.885477781296 0.464681714773
outer loop
vertex 327.276763916 837.402526855 396.915679932
vertex 322.276763916 837.402526855 396.915679932
vertex 327.276763916 837.23449707 396.595489502
endloop
endfacet
facet normal 0.0 -0.970936477184 0.239337310195
outer loop
vertex 322.276763916 837.489074707 397.266784668
vertex 322.276763916 837.402526855 396.915679932
vertex 327.276763916 837.402526855 396.915679932
endloop
endfacet
facet normal 0.0 -0.885477781296 0.464681714773
outer loop
vertex 322.276763916 837.402526855 396.915679932
vertex 322.276763916 837.23449707 396.595489502
vertex 327.276763916 837.23449707 396.595489502
endloop
endfacet
facet normal 0.0 -0.748479306698 0.663158237934
outer loop
vertex 327.276763916 837.23449707 396.595489502
vertex 322.276763916 836.994689941 396.324829102
vertex 327.276763916 836.994689941 396.324829102
endloop
endfacet
facet normal 0.0 -0.748479306698 0.663158237934
outer loop
vertex 322.276763916 837.23449707 396.595489502
vertex 322.276763916 836.994689941 396.324829102
vertex 327.276763916 837.23449707 396.595489502
endloop
endfacet
facet normal 0.0 -0.568046450615 0.82299643755
outer loop
vertex 327.276763916 836.994689941 396.324829102
vertex 322.276763916 836.69708252 396.119415283
vertex 327.276763916 836.69708252 396.119415283
endloop
endfacet
facet normal 0.0 -0.568046450615 0.82299643755
outer loop
vertex 322.276763916 836.994689941 396.324829102
vertex 322.276763916 836.69708252 396.119415283
vertex 327.276763916 836.994689941 396.324829102
endloop
endfacet
facet normal 0.0 -0.354598253965 0.935018777847
outer loop
vertex 327.276763916 836.69708252 396.119415283
vertex 322.276763916 836.358947754 395.99118042
vertex 327.276763916 836.358947754 395.99118042
endloop
endfacet
facet normal 0.0 -0.354598253965 0.935018777847
outer loop
vertex 322.276763916 836.69708252 396.119415283
vertex 322.276763916 836.358947754 395.99118042
vertex 327.276763916 836.69708252 396.119415283
endloop
endfacet
facet normal 0.0 -0.120522931218 0.992710530758
outer loop
vertex 327.276763916 836.358947754 395.99118042
vertex 322.276763916 836.0 395.947601318
vertex 327.276763916 836.0 395.947601318
endloop
endfacet
facet normal 0.0 -0.120522931218 0.992710530758
outer loop
vertex 322.276763916 836.358947754 395.99118042
vertex 322.276763916 836.0 395.947601318
vertex 327.276763916 836.358947754 395.99118042
endloop
endfacet
facet normal -0.0 -0.120522931218 -0.992710530758
outer loop
vertex 333.776763916 836.0 398.947601318
vertex 328.776763916 836.0 398.947601318
vertex 333.776763916 836.358947754 398.904022217
endloop
endfacet
facet normal -0.0 -0.354598253965 -0.935018777847
outer loop
vertex 333.776763916 836.358947754 398.904022217
vertex 328.776763916 836.358947754 398.904022217
vertex 333.776763916 836.69708252 398.775787354
endloop
endfacet
facet normal 0.0 -0.120522931218 -0.992710530758
outer loop
vertex 328.776763916 836.0 398.947601318
vertex 328.776763916 836.358947754 398.904022217
vertex 333.776763916 836.358947754 398.904022217
endloop
endfacet
facet normal -0.0 -0.568046450615 -0.82299643755
outer loop
vertex 333.776763916 836.69708252 398.775787354
vertex 328.776763916 836.69708252 398.775787354
vertex 333.776763916 836.994689941 398.570373535
endloop
endfacet
facet normal 0.0 -0.354598253965 -0.935018777847
outer loop
vertex 328.776763916 836.358947754 398.904022217
vertex 328.776763916 836.69708252 398.775787354
vertex 333.776763916 836.69708252 398.775787354
endloop
endfacet
facet normal -0.0 -0.748516380787 -0.663116335869
outer loop
vertex 333.776763916 836.994689941 398.570373535
vertex 328.776763916 836.994689941 398.570373535
vertex 333.776763916 837.23449707 398.299682617
endloop
endfacet
facet normal 0.0 -0.568046450615 -0.82299643755
outer loop
vertex 328.776763916 836.69708252 398.775787354
vertex 328.776763916 836.994689941 398.570373535
vertex 333.776763916 836.994689941 398.570373535
endloop
endfacet
facet normal -0.0 -0.885477781296 -0.464681714773
outer loop
vertex 333.776763916 837.23449707 398.299682617
vertex 328.776763916 837.23449707 398.299682617
vertex 333.776763916 837.402526855 397.979492188
endloop
endfacet
facet normal 0.0 -0.748516380787 -0.663116335869
outer loop
vertex 328.776763916 836.994689941 398.570373535
vertex 328.776763916 837.23449707 398.299682617
vertex 333.776763916 837.23449707 398.299682617
endloop
endfacet
facet normal 0.0 -0.885477781296 -0.464681714773
outer loop
vertex 328.776763916 837.23449707 398.299682617
vertex 328.776763916 837.402526855 397.979492188
vertex 333.776763916 837.402526855 397.979492188
endloop
endfacet
facet normal 0.0 -0.970936477184 -0.239337310195
outer loop
vertex 333.776763916 837.402526855 397.979492188
vertex 328.776763916 837.489074707 397.628387451
vertex 333.776763916 837.489074707 397.628387451
endloop
endfacet
facet normal 0.0 -0.970936477184 -0.239337310195
outer loop
vertex 328.776763916 837.402526855 397.979492188
vertex 328.776763916 837.489074707 397.628387451
vertex 333.776763916 837.402526855 397.979492188
endloop
endfacet
facet normal 0.0 -1.0 -0.0
outer loop
vertex 333.776763916 837.489074707 397.628387451
vertex 328.776763916 837.489074707 397.266784668
vertex 333.776763916 837.489074707 397.266784668
endloop
endfacet
facet normal 0.0 -1.0 0.0
outer loop
vertex 328.776763916 837.489074707 397.628387451
vertex 328.776763916 837.489074707 397.266784668
vertex 333.776763916 837.489074707 397.628387451
endloop
endfacet
facet normal 0.0 -0.970936477184 0.239337310195
outer loop
vertex 333.776763916 837.489074707 397.266784668
vertex 328.776763916 837.402526855 396.915679932
vertex 333.776763916 837.402526855 396.915679932
endloop
endfacet
facet normal 0.0 -0.970936477184 0.239337310195
outer loop
vertex 328.776763916 837.489074707 397.266784668
vertex 328.776763916 837.402526855 396.915679932
vertex 333.776763916 837.489074707 397.266784668
endloop
endfacet
facet normal 0.0 -0.885477781296 0.464681714773
outer loop
vertex 333.776763916 837.402526855 396.915679932
vertex 328.776763916 837.23449707 396.595489502
vertex 333.776763916 837.23449707 396.595489502
endloop
endfacet
facet normal 0.0 -0.885477781296 0.464681714773
outer loop
vertex 328.776763916 837.402526855 396.915679932
vertex 328.776763916 837.23449707 396.595489502
vertex 333.776763916 837.402526855 396.915679932
endloop
endfacet
facet normal 0.0 -0.748479306698 0.663158237934
outer loop
vertex 333.776763916 837.23449707 396.595489502
vertex 328.776763916 836.994689941 396.324829102
vertex 333.776763916 836.994689941 396.324829102
endloop
endfacet
facet normal 0.0 -0.748479306698 0.663158237934
outer loop
vertex 328.776763916 837.23449707 396.595489502
vertex 328.776763916 836.994689941 396.324829102
vertex 333.776763916 837.23449707 396.595489502
endloop
endfacet
facet normal 0.0 -0.568046450615 0.82299643755
outer loop
vertex 333.776763916 836.994689941 396.324829102
vertex 328.776763916 836.69708252 396.119415283
vertex 333.776763916 836.69708252 396.119415283
endloop
endfacet
facet normal 0.0 -0.568046450615 0.82299643755
outer loop
vertex 328.776763916 836.994689941 396.324829102
vertex 328.776763916 836.69708252 396.119415283
vertex 333.776763916 836.994689941 396.324829102
endloop
endfacet
facet normal 0.0 -0.354598253965 0.935018777847
outer loop
vertex 333.776763916 836.69708252 396.119415283
vertex 328.776763916 836.358947754 395.99118042
vertex 333.776763916 836.358947754 395.99118042
endloop
endfacet
facet normal 0.0 -0.120522931218 0.992710530758
outer loop
vertex 333.776763916 836.358947754 395.99118042
vertex 328.776763916 836.358947754 395.99118042
vertex 333.776763916 836.0 395.947601318
endloop
endfacet
facet normal 0.0 -0.354598253965 0.935018777847
outer loop
vertex 328.776763916 836.69708252 396.119415283
vertex 328.776763916 836.358947754 395.99118042
vertex 333.776763916 836.69708252 396.119415283
endloop
endfacet
facet normal 0.0 -0.120522931218 0.992710530758
outer loop
vertex 328.776763916 836.358947754 395.99118042
vertex 328.776763916 836.0 395.947601318
vertex 333.776763916 836.0 395.947601318
endloop
endfacet
