solid 
facet normal 0.0 -0.980738043785 0.195327743888
outer loop
vertex 4.0 833.482727051 16.2601165771
vertex 4.0 834.000305176 18.8588695526
vertex -4.0 834.000305176 18.8588695526
endloop
endfacet
facet normal 0.0 -0.980738043785 0.195327743888
outer loop
vertex 4.0 833.482727051 16.2601165771
vertex -4.0 834.000305176 18.8588695526
vertex -4.0 833.482727051 16.2601165771
endloop
endfacet
facet normal 0.0 -0.986062824726 0.166373059154
outer loop
vertex 4.0 833.041870117 13.6472377777
vertex -4.0 833.482727051 16.2601165771
vertex -4.0 833.041870117 13.6472377777
endloop
endfacet
facet normal 0.0 -0.986062824726 0.166373059154
outer loop
vertex 4.0 833.041870117 13.6472377777
vertex 4.0 833.482727051 16.2601165771
vertex -4.0 833.482727051 16.2601165771
endloop
endfacet
facet normal 0.0 -0.994155228138 0.107959799469
outer loop
vertex 4.0 832.678283691 11.0225019455
vertex -4.0 832.678283691 11.0225019455
vertex -4.0 832.392211914 8.38819026947
endloop
endfacet
facet normal 0.0 -0.990541636944 0.137212857604
outer loop
vertex 4.0 832.678283691 11.0225019455
vertex -4.0 833.041870117 13.6472377777
vertex -4.0 832.678283691 11.0225019455
endloop
endfacet
facet normal 0.0 -0.990541636944 0.137212857604
outer loop
vertex 4.0 832.678283691 11.0225019455
vertex 4.0 833.041870117 13.6472377777
vertex -4.0 833.041870117 13.6472377777
endloop
endfacet
facet normal 0.0 -0.994155228138 0.107959799469
outer loop
vertex 4.0 832.392211914 8.38819026947
vertex 4.0 832.678283691 11.0225019455
vertex -4.0 832.392211914 8.38819026947
endloop
endfacet
facet normal 0.0 -0.998788893223 0.0492003373802
outer loop
vertex 4.0 832.183837891 5.74659156799
vertex -4.0 832.183837891 5.74659156799
vertex -4.0 832.053466797 3.09999990463
endloop
endfacet
facet normal 0.0 -0.996903300285 0.0786375105381
outer loop
vertex 4.0 832.183837891 5.74659156799
vertex -4.0 832.392211914 8.38819026947
vertex -4.0 832.183837891 5.74659156799
endloop
endfacet
facet normal 0.0 -0.996903300285 0.0786375105381
outer loop
vertex 4.0 832.183837891 5.74659156799
vertex 4.0 832.392211914 8.38819026947
vertex -4.0 832.392211914 8.38819026947
endloop
endfacet
facet normal 0.0 -0.998788893223 0.0492003373802
outer loop
vertex 4.0 832.053466797 3.09999990463
vertex 4.0 832.183837891 5.74659156799
vertex -4.0 832.053466797 3.09999990463
endloop
endfacet
facet normal 0.0 0.998788893223 0.0492003373802
outer loop
vertex 4.0 839.816162109 5.74659156799
vertex 4.0 839.946533203 3.09999990463
vertex -4.0 839.946533203 3.09999990463
endloop
endfacet
facet normal 0.0 0.998788893223 0.0492003373802
outer loop
vertex 4.0 839.816162109 5.74659156799
vertex -4.0 839.946533203 3.09999990463
vertex -4.0 839.816162109 5.74659156799
endloop
endfacet
facet normal 0.0 0.994155228138 0.107959799469
outer loop
vertex 4.0 839.607788086 8.38819026947
vertex -4.0 839.607788086 8.38819026947
vertex -4.0 839.321716309 11.0225019455
endloop
endfacet
facet normal 0.0 0.996903300285 0.0786375105381
outer loop
vertex 4.0 839.607788086 8.38819026947
vertex -4.0 839.816162109 5.74659156799
vertex -4.0 839.607788086 8.38819026947
endloop
endfacet
facet normal 0.0 0.996903300285 0.0786375105381
outer loop
vertex 4.0 839.607788086 8.38819026947
vertex 4.0 839.816162109 5.74659156799
vertex -4.0 839.816162109 5.74659156799
endloop
endfacet
facet normal 0.0 0.994155228138 0.107959799469
outer loop
vertex 4.0 839.321716309 11.0225019455
vertex 4.0 839.607788086 8.38819026947
vertex -4.0 839.321716309 11.0225019455
endloop
endfacet
facet normal 0.0 0.990541636944 0.137212857604
outer loop
vertex 4.0 838.958129883 13.6472377777
vertex -4.0 839.321716309 11.0225019455
vertex -4.0 838.958129883 13.6472377777
endloop
endfacet
facet normal 0.0 0.990541636944 0.137212857604
outer loop
vertex 4.0 838.958129883 13.6472377777
vertex 4.0 839.321716309 11.0225019455
vertex -4.0 839.321716309 11.0225019455
endloop
endfacet
facet normal 0.0 0.986062824726 0.166373059154
outer loop
vertex 4.0 838.517272949 16.2601165771
vertex -4.0 838.958129883 13.6472377777
vertex -4.0 838.517272949 16.2601165771
endloop
endfacet
facet normal 0.0 0.986062824726 0.166373059154
outer loop
vertex 4.0 838.517272949 16.2601165771
vertex 4.0 838.958129883 13.6472377777
vertex -4.0 838.958129883 13.6472377777
endloop
endfacet
facet normal 0.0 0.980738043785 0.195327743888
outer loop
vertex 4.0 837.999694824 18.8588695526
vertex -4.0 838.517272949 16.2601165771
vertex -4.0 837.999694824 18.8588695526
endloop
endfacet
facet normal 0.0 0.980738043785 0.195327743888
outer loop
vertex 4.0 837.999694824 18.8588695526
vertex 4.0 838.517272949 16.2601165771
vertex -4.0 838.517272949 16.2601165771
endloop
endfacet
facet normal -1.0 -0.0 -0.0
outer loop
vertex -4.0 837.999694824 18.8588695526
vertex -4.0 838.517272949 16.2601165771
vertex -4.0 834.000305176 18.8588695526
endloop
endfacet
facet normal -1.0 0.0 -0.0
outer loop
vertex -4.0 834.000305176 18.8588695526
vertex -4.0 838.517272949 16.2601165771
vertex -4.0 833.482727051 16.2601165771
endloop
endfacet
facet normal -1.0 0.0 -0.0
outer loop
vertex -4.0 833.482727051 16.2601165771
vertex -4.0 838.958129883 13.6472377777
vertex -4.0 833.041870117 13.6472377777
endloop
endfacet
facet normal -1.0 -0.0 -0.0
outer loop
vertex -4.0 838.517272949 16.2601165771
vertex -4.0 838.958129883 13.6472377777
vertex -4.0 833.482727051 16.2601165771
endloop
endfacet
facet normal -1.0 0.0 -0.0
outer loop
vertex -4.0 833.041870117 13.6472377777
vertex -4.0 839.321716309 11.0225019455
vertex -4.0 832.678283691 11.0225019455
endloop
endfacet
facet normal -1.0 -0.0 -0.0
outer loop
vertex -4.0 838.958129883 13.6472377777
vertex -4.0 839.321716309 11.0225019455
vertex -4.0 833.041870117 13.6472377777
endloop
endfacet
facet normal -1.0 0.0 0.0
outer loop
vertex -4.0 832.183837891 5.74659156799
vertex -4.0 832.153442383 3.09827566147
vertex -4.0 832.053466797 3.09999990463
endloop
endfacet
facet normal -1.0 0.0 -0.0
outer loop
vertex -4.0 832.678283691 11.0225019455
vertex -4.0 839.607788086 8.38819026947
vertex -4.0 832.392211914 8.38819026947
endloop
endfacet
facet normal -1.0 -0.0 -0.0
outer loop
vertex -4.0 839.321716309 11.0225019455
vertex -4.0 839.607788086 8.38819026947
vertex -4.0 832.678283691 11.0225019455
endloop
endfacet
facet normal -1.0 0.0 0.0
outer loop
vertex -4.0 832.10760498 0.218787029386
vertex -4.0 832.136169434 0.157636702061
vertex -4.0 832.118408203 0.186587020755
endloop
endfacet
facet normal -1.0 0.0 0.0
outer loop
vertex -4.0 832.104370117 0.252586603165
vertex -4.0 832.136169434 0.157636702061
vertex -4.0 832.10760498 0.218787029386
endloop
endfacet
facet normal -1.0 0.0 0.0
outer loop
vertex -4.0 832.159973145 0.133419677615
vertex -4.0 832.220581055 0.103843487799
vertex -4.0 832.188598633 0.115176975727
endloop
endfacet
facet normal -1.0 0.0 0.0
outer loop
vertex -4.0 832.136169434 0.157636702061
vertex -4.0 832.220581055 0.103843487799
vertex -4.0 832.159973145 0.133419677615
endloop
endfacet
facet normal -1.0 0.0 -0.0
outer loop
vertex -4.0 832.153442383 3.09827566147
vertex -4.0 832.254333496 0.10000000149
vertex -4.0 832.104370117 0.252586603165
endloop
endfacet
facet normal -1.0 0.0 0.0
outer loop
vertex -4.0 832.104370117 0.252586603165
vertex -4.0 832.254333496 0.10000000149
vertex -4.0 832.136169434 0.157636702061
endloop
endfacet
facet normal -1.0 0.0 0.0
outer loop
vertex -4.0 832.136169434 0.157636702061
vertex -4.0 832.254333496 0.10000000149
vertex -4.0 832.220581055 0.103843487799
endloop
endfacet
facet normal -1.0 0.0 -0.0
outer loop
vertex -4.0 832.392211914 8.38819026947
vertex -4.0 839.816162109 5.74659156799
vertex -4.0 832.183837891 5.74659156799
endloop
endfacet
facet normal -1.0 -0.0 -0.0
outer loop
vertex -4.0 839.607788086 8.38819026947
vertex -4.0 839.816162109 5.74659156799
vertex -4.0 832.392211914 8.38819026947
endloop
endfacet
facet normal -1.0 0.0 -0.0
outer loop
vertex -4.0 832.183837891 5.74659156799
vertex -4.0 839.846557617 3.09827566147
vertex -4.0 832.153442383 3.09827566147
endloop
endfacet
facet normal -1.0 -0.0 -0.0
outer loop
vertex -4.0 839.816162109 5.74659156799
vertex -4.0 839.846557617 3.09827566147
vertex -4.0 832.183837891 5.74659156799
endloop
endfacet
facet normal -1.0 0.0 0.0
outer loop
vertex -4.0 832.153442383 3.09827566147
vertex -4.0 839.846557617 3.09827566147
vertex -4.0 832.254333496 0.10000000149
endloop
endfacet
facet normal -1.0 0.0 0.0
outer loop
vertex -4.0 839.816162109 5.74659156799
vertex -4.0 839.946533203 3.09999990463
vertex -4.0 839.846557617 3.09827566147
endloop
endfacet
facet normal -1.0 -0.0 0.0
outer loop
vertex -4.0 839.895629883 0.252586603165
vertex -4.0 839.745666504 0.10000000149
vertex -4.0 839.846557617 3.09827566147
endloop
endfacet
facet normal -1.0 0.0 0.0
outer loop
vertex -4.0 839.846557617 3.09827566147
vertex -4.0 839.745666504 0.10000000149
vertex -4.0 832.254333496 0.10000000149
endloop
endfacet
facet normal -1.0 -0.0 0.0
outer loop
vertex -4.0 839.89239502 0.218787029386
vertex -4.0 839.881591797 0.186587020755
vertex -4.0 839.895629883 0.252586603165
endloop
endfacet
facet normal -1.0 0.0 0.0
outer loop
vertex -4.0 839.895629883 0.252586603165
vertex -4.0 839.881591797 0.186587020755
vertex -4.0 839.745666504 0.10000000149
endloop
endfacet
facet normal -1.0 -0.0 0.0
outer loop
vertex -4.0 839.863830566 0.157636702061
vertex -4.0 839.840026855 0.133419677615
vertex -4.0 839.881591797 0.186587020755
endloop
endfacet
facet normal -1.0 0.0 0.0
outer loop
vertex -4.0 839.779418945 0.103843487799
vertex -4.0 839.840026855 0.133419677615
vertex -4.0 839.811401367 0.115176975727
endloop
endfacet
facet normal -1.0 0.0 0.0
outer loop
vertex -4.0 839.745666504 0.10000000149
vertex -4.0 839.840026855 0.133419677615
vertex -4.0 839.779418945 0.103843487799
endloop
endfacet
facet normal -1.0 0.0 0.0
outer loop
vertex -4.0 839.881591797 0.186587020755
vertex -4.0 839.840026855 0.133419677615
vertex -4.0 839.745666504 0.10000000149
endloop
endfacet
facet normal 1.0 0.0 0.0
outer loop
vertex 4.0 838.517272949 16.2601165771
vertex 4.0 837.999694824 18.8588695526
vertex 4.0 834.000305176 18.8588695526
endloop
endfacet
facet normal 1.0 0.0 0.0
outer loop
vertex 4.0 838.517272949 16.2601165771
vertex 4.0 834.000305176 18.8588695526
vertex 4.0 833.482727051 16.2601165771
endloop
endfacet
facet normal 1.0 0.0 0.0
outer loop
vertex 4.0 838.958129883 13.6472377777
vertex 4.0 833.482727051 16.2601165771
vertex 4.0 833.041870117 13.6472377777
endloop
endfacet
facet normal 1.0 0.0 0.0
outer loop
vertex 4.0 838.958129883 13.6472377777
vertex 4.0 838.517272949 16.2601165771
vertex 4.0 833.482727051 16.2601165771
endloop
endfacet
facet normal 1.0 0.0 0.0
outer loop
vertex 4.0 839.321716309 11.0225019455
vertex 4.0 833.041870117 13.6472377777
vertex 4.0 832.678283691 11.0225019455
endloop
endfacet
facet normal 1.0 0.0 0.0
outer loop
vertex 4.0 839.321716309 11.0225019455
vertex 4.0 838.958129883 13.6472377777
vertex 4.0 833.041870117 13.6472377777
endloop
endfacet
facet normal 1.0 0.0 -0.0
outer loop
vertex 4.0 832.153442383 3.09827566147
vertex 4.0 832.183837891 5.74659156799
vertex 4.0 832.053466797 3.09999990463
endloop
endfacet
facet normal 1.0 0.0 0.0
outer loop
vertex 4.0 839.607788086 8.38819026947
vertex 4.0 832.678283691 11.0225019455
vertex 4.0 832.392211914 8.38819026947
endloop
endfacet
facet normal 1.0 0.0 0.0
outer loop
vertex 4.0 839.607788086 8.38819026947
vertex 4.0 839.321716309 11.0225019455
vertex 4.0 832.678283691 11.0225019455
endloop
endfacet
facet normal 1.0 0.0 0.0
outer loop
vertex 4.0 832.136169434 0.157636702061
vertex 4.0 832.104370117 0.252586603165
vertex 4.0 832.10760498 0.218787029386
endloop
endfacet
facet normal 1.0 0.0 0.0
outer loop
vertex 4.0 832.136169434 0.157636702061
vertex 4.0 832.10760498 0.218787029386
vertex 4.0 832.118408203 0.186587020755
endloop
endfacet
facet normal 1.0 0.0 0.0
outer loop
vertex 4.0 832.220581055 0.103843487799
vertex 4.0 832.136169434 0.157636702061
vertex 4.0 832.159973145 0.133419677615
endloop
endfacet
facet normal 1.0 0.0 0.0
outer loop
vertex 4.0 832.220581055 0.103843487799
vertex 4.0 832.159973145 0.133419677615
vertex 4.0 832.188598633 0.115176975727
endloop
endfacet
facet normal 1.0 0.0 0.0
outer loop
vertex 4.0 832.254333496 0.10000000149
vertex 4.0 832.153442383 3.09827566147
vertex 4.0 832.104370117 0.252586603165
endloop
endfacet
facet normal 1.0 0.0 0.0
outer loop
vertex 4.0 832.254333496 0.10000000149
vertex 4.0 832.104370117 0.252586603165
vertex 4.0 832.136169434 0.157636702061
endloop
endfacet
facet normal 1.0 0.0 0.0
outer loop
vertex 4.0 832.254333496 0.10000000149
vertex 4.0 832.136169434 0.157636702061
vertex 4.0 832.220581055 0.103843487799
endloop
endfacet
facet normal 1.0 0.0 0.0
outer loop
vertex 4.0 839.816162109 5.74659156799
vertex 4.0 832.392211914 8.38819026947
vertex 4.0 832.183837891 5.74659156799
endloop
endfacet
facet normal 1.0 0.0 0.0
outer loop
vertex 4.0 839.816162109 5.74659156799
vertex 4.0 839.607788086 8.38819026947
vertex 4.0 832.392211914 8.38819026947
endloop
endfacet
facet normal 1.0 0.0 0.0
outer loop
vertex 4.0 839.846557617 3.09827566147
vertex 4.0 832.183837891 5.74659156799
vertex 4.0 832.153442383 3.09827566147
endloop
endfacet
facet normal 1.0 0.0 0.0
outer loop
vertex 4.0 839.846557617 3.09827566147
vertex 4.0 839.816162109 5.74659156799
vertex 4.0 832.183837891 5.74659156799
endloop
endfacet
facet normal 1.0 0.0 0.0
outer loop
vertex 4.0 839.846557617 3.09827566147
vertex 4.0 832.153442383 3.09827566147
vertex 4.0 832.254333496 0.10000000149
endloop
endfacet
facet normal 1.0 0.0 0.0
outer loop
vertex 4.0 839.946533203 3.09999990463
vertex 4.0 839.816162109 5.74659156799
vertex 4.0 839.846557617 3.09827566147
endloop
endfacet
facet normal 1.0 0.0 0.0
outer loop
vertex 4.0 839.745666504 0.10000000149
vertex 4.0 839.895629883 0.252586603165
vertex 4.0 839.846557617 3.09827566147
endloop
endfacet
facet normal 1.0 0.0 -0.0
outer loop
vertex 4.0 839.745666504 0.10000000149
vertex 4.0 839.846557617 3.09827566147
vertex 4.0 832.254333496 0.10000000149
endloop
endfacet
facet normal 1.0 0.0 0.0
outer loop
vertex 4.0 839.881591797 0.186587020755
vertex 4.0 839.89239502 0.218787029386
vertex 4.0 839.895629883 0.252586603165
endloop
endfacet
facet normal 1.0 0.0 -0.0
outer loop
vertex 4.0 839.881591797 0.186587020755
vertex 4.0 839.895629883 0.252586603165
vertex 4.0 839.745666504 0.10000000149
endloop
endfacet
facet normal 1.0 0.0 0.0
outer loop
vertex 4.0 839.840026855 0.133419677615
vertex 4.0 839.745666504 0.10000000149
vertex 4.0 839.779418945 0.103843487799
endloop
endfacet
facet normal 1.0 0.0 0.0
outer loop
vertex 4.0 839.840026855 0.133419677615
vertex 4.0 839.779418945 0.103843487799
vertex 4.0 839.811401367 0.115176975727
endloop
endfacet
facet normal 1.0 0.0 0.0
outer loop
vertex 4.0 839.840026855 0.133419677615
vertex 4.0 839.863830566 0.157636702061
vertex 4.0 839.881591797 0.186587020755
endloop
endfacet
facet normal 1.0 0.0 -0.0
outer loop
vertex 4.0 839.840026855 0.133419677615
vertex 4.0 839.881591797 0.186587020755
vertex 4.0 839.745666504 0.10000000149
endloop
endfacet
facet normal 0.0 0.0 1.0
outer loop
vertex 4.0 834.000305176 18.8588695526
vertex -4.0 837.999694824 18.8588695526
vertex -4.0 834.000305176 18.8588695526
endloop
endfacet
facet normal 0.0 0.0 1.0
outer loop
vertex 4.0 837.999694824 18.8588695526
vertex -4.0 837.999694824 18.8588695526
vertex 4.0 834.000305176 18.8588695526
endloop
endfacet
facet normal 0.0 0.0172440782189 -0.999851346016
outer loop
vertex -4.0 839.846557617 3.09827566147
vertex -4.0 839.946533203 3.09999990463
vertex 4.0 839.946533203 3.09999990463
endloop
endfacet
facet normal 0.0 0.0172440782189 -0.999851346016
outer loop
vertex -4.0 839.846557617 3.09827566147
vertex 4.0 839.946533203 3.09999990463
vertex 4.0 839.846557617 3.09827566147
endloop
endfacet
facet normal 0.0 -0.0172440782189 -0.999851346016
outer loop
vertex -4.0 832.053466797 3.09999990463
vertex -4.0 832.153442383 3.09827566147
vertex 4.0 832.153442383 3.09827566147
endloop
endfacet
facet normal 0.0 -0.0172440782189 -0.999851346016
outer loop
vertex -4.0 832.053466797 3.09999990463
vertex 4.0 832.153442383 3.09827566147
vertex 4.0 832.053466797 3.09999990463
endloop
endfacet
facet normal -0.0 0.999851405621 0.0172418598086
outer loop
vertex -4.0 839.895629883 0.252586603165
vertex 4.0 839.846557617 3.09827566147
vertex 4.0 839.895629883 0.252586603165
endloop
endfacet
facet normal 0.0 0.999851405621 0.0172418598086
outer loop
vertex -4.0 839.895629883 0.252586603165
vertex -4.0 839.846557617 3.09827566147
vertex 4.0 839.846557617 3.09827566147
endloop
endfacet
facet normal 0.0 0.0 -1.0
outer loop
vertex -4.0 839.745666504 0.10000000149
vertex 4.0 839.745666504 0.10000000149
vertex 4.0 832.254333496 0.10000000149
endloop
endfacet
facet normal 0.0 0.0 -1.0
outer loop
vertex -4.0 832.254333496 0.10000000149
vertex -4.0 839.745666504 0.10000000149
vertex 4.0 832.254333496 0.10000000149
endloop
endfacet
facet normal 0.0 -0.999851405621 0.0172418598086
outer loop
vertex -4.0 832.153442383 3.09827566147
vertex -4.0 832.104370117 0.252586603165
vertex 4.0 832.104370117 0.252586603165
endloop
endfacet
facet normal 0.0 -0.999851405621 0.0172418598086
outer loop
vertex -4.0 832.153442383 3.09827566147
vertex 4.0 832.104370117 0.252586603165
vertex 4.0 832.153442383 3.09827566147
endloop
endfacet
facet normal 0.0 -0.113141641021 -0.993578851223
outer loop
vertex -4.0 832.220581055 0.103843487799
vertex 4.0 832.254333496 0.10000000149
vertex 4.0 832.220581055 0.103843487799
endloop
endfacet
facet normal 0.0 -0.113141641021 -0.993578851223
outer loop
vertex -4.0 832.220581055 0.103843487799
vertex -4.0 832.254333496 0.10000000149
vertex 4.0 832.254333496 0.10000000149
endloop
endfacet
facet normal 0.0 -0.334014207125 -0.942568063736
outer loop
vertex -4.0 832.188598633 0.115176975727
vertex 4.0 832.220581055 0.103843487799
vertex 4.0 832.188598633 0.115176975727
endloop
endfacet
facet normal 0.0 -0.334014207125 -0.942568063736
outer loop
vertex -4.0 832.188598633 0.115176975727
vertex -4.0 832.220581055 0.103843487799
vertex 4.0 832.220581055 0.103843487799
endloop
endfacet
facet normal 0.0 -0.537430644035 -0.84330791235
outer loop
vertex -4.0 832.159973145 0.133419677615
vertex 4.0 832.188598633 0.115176975727
vertex 4.0 832.159973145 0.133419677615
endloop
endfacet
facet normal 0.0 -0.537430644035 -0.84330791235
outer loop
vertex -4.0 832.159973145 0.133419677615
vertex -4.0 832.188598633 0.115176975727
vertex 4.0 832.188598633 0.115176975727
endloop
endfacet
facet normal 0.0 -0.713166415691 -0.700994729996
outer loop
vertex -4.0 832.136169434 0.157636702061
vertex 4.0 832.159973145 0.133419677615
vertex 4.0 832.136169434 0.157636702061
endloop
endfacet
facet normal 0.0 -0.713166415691 -0.700994729996
outer loop
vertex -4.0 832.136169434 0.157636702061
vertex -4.0 832.159973145 0.133419677615
vertex 4.0 832.159973145 0.133419677615
endloop
endfacet
facet normal 0.0 -0.852371811867 -0.522936284542
outer loop
vertex -4.0 832.118408203 0.186587020755
vertex 4.0 832.136169434 0.157636702061
vertex 4.0 832.118408203 0.186587020755
endloop
endfacet
facet normal 0.0 -0.852371811867 -0.522936284542
outer loop
vertex -4.0 832.118408203 0.186587020755
vertex -4.0 832.136169434 0.157636702061
vertex 4.0 832.136169434 0.157636702061
endloop
endfacet
facet normal 0.0 -0.948064148426 -0.318079054356
outer loop
vertex -4.0 832.10760498 0.218787029386
vertex 4.0 832.118408203 0.186587020755
vertex 4.0 832.10760498 0.218787029386
endloop
endfacet
facet normal 0.0 -0.948064148426 -0.318079054356
outer loop
vertex -4.0 832.10760498 0.218787029386
vertex -4.0 832.118408203 0.186587020755
vertex 4.0 832.118408203 0.186587020755
endloop
endfacet
facet normal 0.0 -0.995451271534 -0.0952718779445
outer loop
vertex -4.0 832.104370117 0.252586603165
vertex 4.0 832.10760498 0.218787029386
vertex 4.0 832.104370117 0.252586603165
endloop
endfacet
facet normal 0.0 -0.995451271534 -0.0952718779445
outer loop
vertex -4.0 832.104370117 0.252586603165
vertex -4.0 832.10760498 0.218787029386
vertex 4.0 832.10760498 0.218787029386
endloop
endfacet
facet normal 0.0 0.995451271534 -0.0952718779445
outer loop
vertex -4.0 839.89239502 0.218787029386
vertex 4.0 839.895629883 0.252586603165
vertex 4.0 839.89239502 0.218787029386
endloop
endfacet
facet normal 0.0 0.995451271534 -0.0952718779445
outer loop
vertex -4.0 839.89239502 0.218787029386
vertex -4.0 839.895629883 0.252586603165
vertex 4.0 839.895629883 0.252586603165
endloop
endfacet
facet normal 0.0 0.948064148426 -0.318079054356
outer loop
vertex -4.0 839.881591797 0.186587020755
vertex 4.0 839.89239502 0.218787029386
vertex 4.0 839.881591797 0.186587020755
endloop
endfacet
facet normal 0.0 0.948064148426 -0.318079054356
outer loop
vertex -4.0 839.881591797 0.186587020755
vertex -4.0 839.89239502 0.218787029386
vertex 4.0 839.89239502 0.218787029386
endloop
endfacet
facet normal 0.0 0.852371811867 -0.522936284542
outer loop
vertex -4.0 839.863830566 0.157636702061
vertex 4.0 839.881591797 0.186587020755
vertex 4.0 839.863830566 0.157636702061
endloop
endfacet
facet normal 0.0 0.852371811867 -0.522936284542
outer loop
vertex -4.0 839.863830566 0.157636702061
vertex -4.0 839.881591797 0.186587020755
vertex 4.0 839.881591797 0.186587020755
endloop
endfacet
facet normal 0.0 0.713166415691 -0.700994729996
outer loop
vertex -4.0 839.840026855 0.133419677615
vertex 4.0 839.863830566 0.157636702061
vertex 4.0 839.840026855 0.133419677615
endloop
endfacet
facet normal 0.0 0.713166415691 -0.700994729996
outer loop
vertex -4.0 839.840026855 0.133419677615
vertex -4.0 839.863830566 0.157636702061
vertex 4.0 839.863830566 0.157636702061
endloop
endfacet
facet normal 0.0 0.537430644035 -0.84330791235
outer loop
vertex -4.0 839.811401367 0.115176975727
vertex 4.0 839.840026855 0.133419677615
vertex 4.0 839.811401367 0.115176975727
endloop
endfacet
facet normal 0.0 0.537430644035 -0.84330791235
outer loop
vertex -4.0 839.811401367 0.115176975727
vertex -4.0 839.840026855 0.133419677615
vertex 4.0 839.840026855 0.133419677615
endloop
endfacet
facet normal 0.0 0.334014207125 -0.942568063736
outer loop
vertex -4.0 839.779418945 0.103843487799
vertex 4.0 839.811401367 0.115176975727
vertex 4.0 839.779418945 0.103843487799
endloop
endfacet
facet normal 0.0 0.334014207125 -0.942568063736
outer loop
vertex -4.0 839.779418945 0.103843487799
vertex -4.0 839.811401367 0.115176975727
vertex 4.0 839.811401367 0.115176975727
endloop
endfacet
facet normal 0.0 0.113141641021 -0.993578851223
outer loop
vertex -4.0 839.745666504 0.10000000149
vertex 4.0 839.779418945 0.103843487799
vertex 4.0 839.745666504 0.10000000149
endloop
endfacet
facet normal 0.0 0.113141641021 -0.993578851223
outer loop
vertex -4.0 839.745666504 0.10000000149
vertex -4.0 839.779418945 0.103843487799
vertex 4.0 839.779418945 0.103843487799
endloop
endfacet
