solid 
facet normal 0.0 0.999651134014 0.0264108721167
outer loop
vertex 54.1650009155 4.25 0.0
vertex -54.1650009155 4.25 0.0
vertex -54.1650009155 4.12421417236 4.76099157333
endloop
endfacet
facet normal 0.0 0.996861994267 0.0791588798165
outer loop
vertex 54.1650009155 4.12421417236 4.76099157333
vertex -54.1650009155 4.12421417236 4.76099157333
vertex -54.1650009155 3.74720788002 9.50869941711
endloop
endfacet
facet normal 0.0 0.999651134014 0.0264108721167
outer loop
vertex 54.1650009155 4.12421417236 4.76099157333
vertex 54.1650009155 4.25 0.0
vertex -54.1650009155 4.12421417236 4.76099157333
endloop
endfacet
facet normal 0.0 0.996861994267 0.0791588798165
outer loop
vertex 54.1650009155 3.74720788002 9.50869941711
vertex 54.1650009155 4.12421417236 4.76099157333
vertex -54.1650009155 3.74720788002 9.50869941711
endloop
endfacet
facet normal 0.0 0.991291463375 0.131686016917
outer loop
vertex 54.1650009155 3.12003302574 14.2298774719
vertex -54.1650009155 3.74720788002 9.50869941711
vertex -54.1650009155 3.12003302574 14.2298774719
endloop
endfacet
facet normal 0.0 0.991291463375 0.131686016917
outer loop
vertex 54.1650009155 3.12003302574 14.2298774719
vertex 54.1650009155 3.74720788002 9.50869941711
vertex -54.1650009155 3.74720788002 9.50869941711
endloop
endfacet
facet normal 0.0 0.982955098152 0.183845803142
outer loop
vertex 54.1650009155 2.24443912506 18.9113521576
vertex -54.1650009155 3.12003302574 14.2298774719
vertex -54.1650009155 2.24443912506 18.9113521576
endloop
endfacet
facet normal 0.0 0.982955098152 0.183845803142
outer loop
vertex 54.1650009155 2.24443912506 18.9113521576
vertex 54.1650009155 3.12003302574 14.2298774719
vertex -54.1650009155 3.12003302574 14.2298774719
endloop
endfacet
facet normal 0.0 0.982955098152 -0.183845803142
outer loop
vertex -54.1650009155 3.12003302574 -14.2298774719
vertex -54.1650009155 2.24443912506 -18.9113521576
vertex -55.6650009155 2.24443912506 -18.9113521576
endloop
endfacet
facet normal -0.0119802905247 0.983571231365 -0.180122435093
outer loop
vertex -54.1650009155 3.12003302574 -14.2298774719
vertex -55.6650009155 2.24443912506 -18.9113521576
vertex -55.6650009155 3.22488689423 -13.5575475693
endloop
endfacet
facet normal -0.020534908399 0.992509186268 -0.120430797338
outer loop
vertex -54.1650009155 3.74720788002 -9.50869941711
vertex -55.6650009155 3.22488689423 -13.5575475693
vertex -55.6650009155 3.88051056862 -8.15434074402
endloop
endfacet
facet normal 0.0102690067142 0.991239249706 -0.131679072976
outer loop
vertex -54.1650009155 3.74720788002 -9.50869941711
vertex -54.1650009155 3.12003302574 -14.2298774719
vertex -55.6650009155 3.22488689423 -13.5575475693
endloop
endfacet
facet normal -0.0256660226732 0.997849166393 -0.0603181086481
outer loop
vertex -54.1650009155 4.12421417236 -4.76099157333
vertex -55.6650009155 3.88051056862 -8.15434074402
vertex -55.6650009155 4.20892047882 -2.72141909599
endloop
endfacet
facet normal 0.0171140693128 0.996716022491 -0.0791472867131
outer loop
vertex -54.1650009155 4.12421417236 -4.76099157333
vertex -54.1650009155 3.74720788002 -9.50869941711
vertex -55.6650009155 3.88051056862 -8.15434074402
endloop
endfacet
facet normal -0.0273760817945 0.999625205994 0.0
outer loop
vertex -54.1650009155 4.25 0.0
vertex -55.6650009155 4.20892047882 -2.72141909599
vertex -55.6650009155 4.20892047882 2.72141909599
endloop
endfacet
facet normal 0.0205355770886 0.99944037199 -0.026405306533
outer loop
vertex -54.1650009155 4.25 0.0
vertex -54.1650009155 4.12421417236 -4.76099157333
vertex -55.6650009155 4.20892047882 -2.72141909599
endloop
endfacet
facet normal -0.0256660226732 0.997849166393 0.0603181086481
outer loop
vertex -54.1650009155 4.12421417236 4.76099157333
vertex -55.6650009155 4.20892047882 2.72141909599
vertex -55.6650009155 3.88051056862 8.15434074402
endloop
endfacet
facet normal 0.0205355826765 0.99944037199 0.026405306533
outer loop
vertex -54.1650009155 4.12421417236 4.76099157333
vertex -54.1650009155 4.25 0.0
vertex -55.6650009155 4.20892047882 2.72141909599
endloop
endfacet
facet normal -0.020534908399 0.992509186268 0.120430797338
outer loop
vertex -54.1650009155 3.74720788002 9.50869941711
vertex -55.6650009155 3.88051056862 8.15434074402
vertex -55.6650009155 3.22488689423 13.5575475693
endloop
endfacet
facet normal 0.0171140693128 0.996716022491 0.0791472867131
outer loop
vertex -54.1650009155 3.74720788002 9.50869941711
vertex -54.1650009155 4.12421417236 4.76099157333
vertex -55.6650009155 3.88051056862 8.15434074402
endloop
endfacet
facet normal -0.0119802905247 0.983571231365 0.180122435093
outer loop
vertex -54.1650009155 3.12003302574 14.2298774719
vertex -55.6650009155 3.22488689423 13.5575475693
vertex -55.6650009155 2.24443912506 18.9113521576
endloop
endfacet
facet normal 0.0102689936757 0.991239249706 0.131679072976
outer loop
vertex -54.1650009155 3.12003302574 14.2298774719
vertex -54.1650009155 3.74720788002 9.50869941711
vertex -55.6650009155 3.22488689423 13.5575475693
endloop
endfacet
facet normal 0.0 0.982955098152 0.183845803142
outer loop
vertex -54.1650009155 2.24443912506 18.9113521576
vertex -54.1650009155 3.12003302574 14.2298774719
vertex -55.6650009155 2.24443912506 18.9113521576
endloop
endfacet
facet normal 0.0 0.977756679058 0.209742486477
outer loop
vertex -55.6650009155 2.12614440918 19.4628067017
vertex -54.1650009155 2.24443912506 18.9113521576
vertex -55.6650009155 2.24443912506 18.9113521576
endloop
endfacet
facet normal 0.0 0.977756679058 0.209742486477
outer loop
vertex -54.1650009155 2.12614440918 19.4628067017
vertex -54.1650009155 2.24443912506 18.9113521576
vertex -55.6650009155 2.12614440918 19.4628067017
endloop
endfacet
facet normal 0.0 0.977756679058 -0.209742486477
outer loop
vertex -55.6650009155 2.24443912506 -18.9113521576
vertex -54.1650009155 2.12614440918 -19.4628067017
vertex -55.6650009155 2.12614440918 -19.4628067017
endloop
endfacet
facet normal 0.0 0.977756679058 -0.209742486477
outer loop
vertex -54.1650009155 2.24443912506 -18.9113521576
vertex -54.1650009155 2.12614440918 -19.4628067017
vertex -55.6650009155 2.24443912506 -18.9113521576
endloop
endfacet
facet normal 0.0 0.977756679058 -0.209742486477
outer loop
vertex 58.6650009155 2.24443912506 -18.9113521576
vertex 58.6650009155 2.12614440918 -19.4628067017
vertex 54.1650009155 2.24443912506 -18.9113521576
endloop
endfacet
facet normal 0.0 0.977756679058 -0.209742486477
outer loop
vertex 54.1650009155 2.24443912506 -18.9113521576
vertex 58.6650009155 2.12614440918 -19.4628067017
vertex 54.1650009155 2.12614440918 -19.4628067017
endloop
endfacet
facet normal 0.0 0.977756679058 0.209742486477
outer loop
vertex 58.6650009155 2.12614440918 19.4628067017
vertex 58.6650009155 2.24443912506 18.9113521576
vertex 54.1650009155 2.12614440918 19.4628067017
endloop
endfacet
facet normal 0.0 0.977756679058 0.209742486477
outer loop
vertex 54.1650009155 2.12614440918 19.4628067017
vertex 58.6650009155 2.24443912506 18.9113521576
vertex 54.1650009155 2.24443912506 18.9113521576
endloop
endfacet
facet normal 0.0 0.982955098152 -0.183845818043
outer loop
vertex 58.6650009155 2.24443912506 -18.9113521576
vertex 54.1650009155 2.24443912506 -18.9113521576
vertex 54.1650009155 3.12003302574 -14.2298774719
endloop
endfacet
facet normal -0.00342315854505 0.991285681725 -0.131685227156
outer loop
vertex 58.6650009155 3.22488689423 -13.5575475693
vertex 54.1650009155 3.12003302574 -14.2298774719
vertex 54.1650009155 3.74720788002 -9.50869941711
endloop
endfacet
facet normal 0.00399368582293 0.983633995056 -0.180133908987
outer loop
vertex 58.6650009155 3.22488689423 -13.5575475693
vertex 58.6650009155 2.24443912506 -18.9113521576
vertex 54.1650009155 3.12003302574 -14.2298774719
endloop
endfacet
facet normal -0.00570543296635 0.996845781803 -0.0791575983167
outer loop
vertex 58.6650009155 3.88051056862 -8.15434074402
vertex 54.1650009155 3.74720788002 -9.50869941711
vertex 54.1650009155 4.12421417236 -4.76099157333
endloop
endfacet
facet normal 0.00684625143185 0.992695391178 -0.120453387499
outer loop
vertex 58.6650009155 3.88051056862 -8.15434074402
vertex 58.6650009155 3.22488689423 -13.5575475693
vertex 54.1650009155 3.74720788002 -9.50869941711
endloop
endfacet
facet normal -0.00684647727758 0.999627768993 -0.0264102555811
outer loop
vertex 58.6650009155 4.20892047882 -2.72141909599
vertex 54.1650009155 4.12421417236 -4.76099157333
vertex 54.1650009155 4.25 0.0
endloop
endfacet
facet normal 0.00855784956366 0.998141467571 -0.0603357776999
outer loop
vertex 58.6650009155 4.20892047882 -2.72141909599
vertex 58.6650009155 3.88051056862 -8.15434074402
vertex 54.1650009155 4.12421417236 -4.76099157333
endloop
endfacet
facet normal -0.00684647727758 0.999627768993 0.0264102555811
outer loop
vertex 58.6650009155 4.20892047882 2.72141909599
vertex 54.1650009155 4.25 0.0
vertex 54.1650009155 4.12421417236 4.76099157333
endloop
endfacet
facet normal 0.00912840198725 0.999958336353 0.0
outer loop
vertex 58.6650009155 4.20892047882 2.72141909599
vertex 58.6650009155 4.20892047882 -2.72141909599
vertex 54.1650009155 4.25 0.0
endloop
endfacet
facet normal -0.00570543296635 0.996845781803 0.0791575983167
outer loop
vertex 58.6650009155 3.88051056862 8.15434074402
vertex 54.1650009155 4.12421417236 4.76099157333
vertex 54.1650009155 3.74720788002 9.50869941711
endloop
endfacet
facet normal 0.00855784770101 0.998141467571 0.0603357776999
outer loop
vertex 58.6650009155 3.88051056862 8.15434074402
vertex 58.6650009155 4.20892047882 2.72141909599
vertex 54.1650009155 4.12421417236 4.76099157333
endloop
endfacet
facet normal -0.00342315854505 0.991285681725 0.131685227156
outer loop
vertex 58.6650009155 3.22488689423 13.5575475693
vertex 54.1650009155 3.74720788002 9.50869941711
vertex 54.1650009155 3.12003302574 14.2298774719
endloop
endfacet
facet normal 0.00684625376016 0.992695391178 0.120453387499
outer loop
vertex 58.6650009155 3.22488689423 13.5575475693
vertex 58.6650009155 3.88051056862 8.15434074402
vertex 54.1650009155 3.74720788002 9.50869941711
endloop
endfacet
facet normal 0.0 0.982955098152 0.183845818043
outer loop
vertex 58.6650009155 2.24443912506 18.9113521576
vertex 54.1650009155 3.12003302574 14.2298774719
vertex 54.1650009155 2.24443912506 18.9113521576
endloop
endfacet
facet normal 0.00399367371574 0.983633995056 0.180133908987
outer loop
vertex 58.6650009155 2.24443912506 18.9113521576
vertex 58.6650009155 3.22488689423 13.5575475693
vertex 54.1650009155 3.12003302574 14.2298774719
endloop
endfacet
facet normal 0.0 -0.977756679058 0.209742501378
outer loop
vertex 58.6650009155 2.02836871147 -19.4418315887
vertex 58.6650009155 2.14666342735 -18.8903770447
vertex -55.6650009155 2.14666342735 -18.8903770447
endloop
endfacet
facet normal 0.0 -0.977756679058 0.209742501378
outer loop
vertex 58.6650009155 2.02836871147 -19.4418315887
vertex -55.6650009155 2.14666342735 -18.8903770447
vertex -55.6650009155 2.02836871147 -19.4418315887
endloop
endfacet
facet normal 0.0 -0.983641803265 0.180135414004
outer loop
vertex -55.6650009155 2.14666342735 -18.8903770447
vertex 58.6650009155 3.1260240078 -13.5425109863
vertex -55.6650009155 3.1260240078 -13.5425109863
endloop
endfacet
facet normal 0.0 -0.983641803265 0.180135414004
outer loop
vertex 58.6650009155 2.14666342735 -18.8903770447
vertex 58.6650009155 3.1260240078 -13.5425109863
vertex -55.6650009155 2.14666342735 -18.8903770447
endloop
endfacet
facet normal 0.0 -0.99271863699 0.120456174016
outer loop
vertex -55.6650009155 3.1260240078 -13.5425109863
vertex 58.6650009155 3.78092026711 -8.14529705048
vertex -55.6650009155 3.78092026711 -8.14529705048
endloop
endfacet
facet normal 0.0 -0.99271863699 0.120456174016
outer loop
vertex 58.6650009155 3.1260240078 -13.5425109863
vertex 58.6650009155 3.78092026711 -8.14529705048
vertex -55.6650009155 3.1260240078 -13.5425109863
endloop
endfacet
facet normal 0.0 -1.0 0.0
outer loop
vertex -55.6650009155 4.10896635056 -2.7184009552
vertex 58.6650009155 4.10896635056 -2.7184009552
vertex -55.6650009155 4.10896635056 2.7184009552
endloop
endfacet
facet normal 0.0 -0.998177945614 0.0603380575776
outer loop
vertex -55.6650009155 3.78092026711 -8.14529705048
vertex 58.6650009155 4.10896635056 -2.7184009552
vertex -55.6650009155 4.10896635056 -2.7184009552
endloop
endfacet
facet normal 0.0 -0.998177945614 0.0603380575776
outer loop
vertex 58.6650009155 3.78092026711 -8.14529705048
vertex 58.6650009155 4.10896635056 -2.7184009552
vertex -55.6650009155 3.78092026711 -8.14529705048
endloop
endfacet
facet normal 0.0 -1.0 0.0
outer loop
vertex 58.6650009155 4.10896635056 -2.7184009552
vertex 58.6650009155 4.10896635056 2.7184009552
vertex -55.6650009155 4.10896635056 2.7184009552
endloop
endfacet
facet normal 0.0 -0.99271863699 -0.120456174016
outer loop
vertex -55.6650009155 3.78092026711 8.14529705048
vertex 58.6650009155 3.78092026711 8.14529705048
vertex -55.6650009155 3.1260240078 13.5425109863
endloop
endfacet
facet normal 0.0 -0.998177945614 -0.0603380575776
outer loop
vertex -55.6650009155 4.10896635056 2.7184009552
vertex 58.6650009155 3.78092026711 8.14529705048
vertex -55.6650009155 3.78092026711 8.14529705048
endloop
endfacet
facet normal -0.0 -0.998177945614 -0.0603380575776
outer loop
vertex 58.6650009155 4.10896635056 2.7184009552
vertex 58.6650009155 3.78092026711 8.14529705048
vertex -55.6650009155 4.10896635056 2.7184009552
endloop
endfacet
facet normal 0.0 -0.99271863699 -0.120456174016
outer loop
vertex 58.6650009155 3.78092026711 8.14529705048
vertex 58.6650009155 3.1260240078 13.5425109863
vertex -55.6650009155 3.1260240078 13.5425109863
endloop
endfacet
facet normal 0.0 -0.983641803265 -0.180135414004
outer loop
vertex -55.6650009155 3.1260240078 13.5425109863
vertex 58.6650009155 2.14666342735 18.8903770447
vertex -55.6650009155 2.14666342735 18.8903770447
endloop
endfacet
facet normal -0.0 -0.983641803265 -0.180135414004
outer loop
vertex 58.6650009155 3.1260240078 13.5425109863
vertex 58.6650009155 2.14666342735 18.8903770447
vertex -55.6650009155 3.1260240078 13.5425109863
endloop
endfacet
facet normal 0.0 -0.977756679058 -0.209742501378
outer loop
vertex 58.6650009155 2.14666342735 18.8903770447
vertex 58.6650009155 2.02836871147 19.4418315887
vertex -55.6650009155 2.02836871147 19.4418315887
endloop
endfacet
facet normal -0.0 -0.977756679058 -0.209742501378
outer loop
vertex 58.6650009155 2.14666342735 18.8903770447
vertex -55.6650009155 2.02836871147 19.4418315887
vertex -55.6650009155 2.14666342735 18.8903770447
endloop
endfacet
facet normal 0.0 -0.209750682116 0.977754890919
outer loop
vertex -55.6650009155 2.02836871147 19.4418315887
vertex -54.1650009155 2.12614440918 19.4628067017
vertex -55.6650009155 2.12614440918 19.4628067017
endloop
endfacet
facet normal 0.0 -0.209750697017 0.977754950523
outer loop
vertex 58.6650009155 2.02836871147 19.4418315887
vertex 58.6650009155 2.12614440918 19.4628067017
vertex 54.1650009155 2.12614440918 19.4628067017
endloop
endfacet
facet normal 0.0 -0.209750682116 0.977754890919
outer loop
vertex -55.6650009155 2.02836871147 19.4418315887
vertex 58.6650009155 2.02836871147 19.4418315887
vertex -54.1650009155 2.12614440918 19.4628067017
endloop
endfacet
facet normal 0.0 -0.209750667214 0.977754890919
outer loop
vertex -54.1650009155 2.12614440918 19.4628067017
vertex 58.6650009155 2.02836871147 19.4418315887
vertex 54.1650009155 2.12614440918 19.4628067017
endloop
endfacet
facet normal 0.0 0.977756679058 0.209742501378
outer loop
vertex 54.1650009155 2.12614440918 19.4628067017
vertex 54.1650009155 2.24443912506 18.9113521576
vertex -54.1650009155 2.12614440918 19.4628067017
endloop
endfacet
facet normal 0.0 0.977756679058 0.209742501378
outer loop
vertex -54.1650009155 2.12614440918 19.4628067017
vertex 54.1650009155 2.24443912506 18.9113521576
vertex -54.1650009155 2.24443912506 18.9113521576
endloop
endfacet
facet normal 0.0 0.982955098152 -0.183845803142
outer loop
vertex 54.1650009155 2.24443912506 -18.9113521576
vertex -54.1650009155 2.24443912506 -18.9113521576
vertex -54.1650009155 3.12003302574 -14.2298774719
endloop
endfacet
facet normal 0.0 0.991291463375 -0.131686016917
outer loop
vertex 54.1650009155 3.12003302574 -14.2298774719
vertex -54.1650009155 3.12003302574 -14.2298774719
vertex -54.1650009155 3.74720788002 -9.50869941711
endloop
endfacet
facet normal 0.0 0.982955098152 -0.183845803142
outer loop
vertex 54.1650009155 3.12003302574 -14.2298774719
vertex 54.1650009155 2.24443912506 -18.9113521576
vertex -54.1650009155 3.12003302574 -14.2298774719
endloop
endfacet
facet normal 0.0 0.996861994267 -0.0791588798165
outer loop
vertex 54.1650009155 3.74720788002 -9.50869941711
vertex -54.1650009155 3.74720788002 -9.50869941711
vertex -54.1650009155 4.12421417236 -4.76099157333
endloop
endfacet
facet normal 0.0 0.991291463375 -0.131686016917
outer loop
vertex 54.1650009155 3.74720788002 -9.50869941711
vertex 54.1650009155 3.12003302574 -14.2298774719
vertex -54.1650009155 3.74720788002 -9.50869941711
endloop
endfacet
facet normal 0.0 0.999651134014 -0.0264108721167
outer loop
vertex 54.1650009155 4.12421417236 -4.76099157333
vertex -54.1650009155 4.12421417236 -4.76099157333
vertex -54.1650009155 4.25 0.0
endloop
endfacet
facet normal 0.0 0.996861994267 -0.0791588798165
outer loop
vertex 54.1650009155 4.12421417236 -4.76099157333
vertex 54.1650009155 3.74720788002 -9.50869941711
vertex -54.1650009155 4.12421417236 -4.76099157333
endloop
endfacet
facet normal 0.0 0.999651134014 -0.0264108721167
outer loop
vertex 54.1650009155 4.25 0.0
vertex 54.1650009155 4.12421417236 -4.76099157333
vertex -54.1650009155 4.25 0.0
endloop
endfacet
facet normal 0.0 0.977756679058 -0.209742501378
outer loop
vertex 54.1650009155 2.24443912506 -18.9113521576
vertex 54.1650009155 2.12614440918 -19.4628067017
vertex -54.1650009155 2.24443912506 -18.9113521576
endloop
endfacet
facet normal 0.0 0.977756679058 -0.209742501378
outer loop
vertex -54.1650009155 2.24443912506 -18.9113521576
vertex 54.1650009155 2.12614440918 -19.4628067017
vertex -54.1650009155 2.12614440918 -19.4628067017
endloop
endfacet
facet normal 0.0 -0.209750682116 -0.977754890919
outer loop
vertex -55.6650009155 2.12614440918 -19.4628067017
vertex -54.1650009155 2.12614440918 -19.4628067017
vertex -55.6650009155 2.02836871147 -19.4418315887
endloop
endfacet
facet normal -0.0 -0.209750697017 -0.977754950523
outer loop
vertex 58.6650009155 2.12614440918 -19.4628067017
vertex 58.6650009155 2.02836871147 -19.4418315887
vertex 54.1650009155 2.12614440918 -19.4628067017
endloop
endfacet
facet normal -0.0 -0.209750682116 -0.977754890919
outer loop
vertex 58.6650009155 2.02836871147 -19.4418315887
vertex -55.6650009155 2.02836871147 -19.4418315887
vertex -54.1650009155 2.12614440918 -19.4628067017
endloop
endfacet
facet normal 0.0 -0.209750697017 -0.977754950523
outer loop
vertex 58.6650009155 2.02836871147 -19.4418315887
vertex -54.1650009155 2.12614440918 -19.4628067017
vertex 54.1650009155 2.12614440918 -19.4628067017
endloop
endfacet
facet normal -1.0 0.0 -0.0
outer loop
vertex -55.6650009155 2.12614440918 19.4628067017
vertex -55.6650009155 2.14666342735 18.8903770447
vertex -55.6650009155 2.02836871147 19.4418315887
endloop
endfacet
facet normal -1.0 0.0 0.0
outer loop
vertex -55.6650009155 2.12614440918 19.4628067017
vertex -55.6650009155 2.24443912506 18.9113521576
vertex -55.6650009155 2.14666342735 18.8903770447
endloop
endfacet
facet normal -1.0 0.0 -0.0
outer loop
vertex -55.6650009155 2.24443912506 18.9113521576
vertex -55.6650009155 3.1260240078 13.5425109863
vertex -55.6650009155 2.14666342735 18.8903770447
endloop
endfacet
facet normal -1.0 0.0 0.0
outer loop
vertex -55.6650009155 2.24443912506 18.9113521576
vertex -55.6650009155 3.22488689423 13.5575475693
vertex -55.6650009155 3.1260240078 13.5425109863
endloop
endfacet
facet normal -1.0 0.0 0.0
outer loop
vertex -55.6650009155 3.1260240078 13.5425109863
vertex -55.6650009155 3.88051056862 8.15434074402
vertex -55.6650009155 3.78092026711 8.14529705048
endloop
endfacet
facet normal -1.0 0.0 -0.0
outer loop
vertex -55.6650009155 3.22488689423 13.5575475693
vertex -55.6650009155 3.88051056862 8.15434074402
vertex -55.6650009155 3.1260240078 13.5425109863
endloop
endfacet
facet normal -1.0 0.0 0.0
outer loop
vertex -55.6650009155 3.78092026711 8.14529705048
vertex -55.6650009155 4.20892047882 2.72141909599
vertex -55.6650009155 4.10896635056 2.7184009552
endloop
endfacet
facet normal -1.0 0.0 -0.0
outer loop
vertex -55.6650009155 3.88051056862 8.15434074402
vertex -55.6650009155 4.20892047882 2.72141909599
vertex -55.6650009155 3.78092026711 8.14529705048
endloop
endfacet
facet normal -1.0 0.0 0.0
outer loop
vertex -55.6650009155 4.10896635056 2.7184009552
vertex -55.6650009155 4.20892047882 -2.72141909599
vertex -55.6650009155 4.10896635056 -2.7184009552
endloop
endfacet
facet normal -1.0 0.0 -0.0
outer loop
vertex -55.6650009155 4.20892047882 2.72141909599
vertex -55.6650009155 4.20892047882 -2.72141909599
vertex -55.6650009155 4.10896635056 2.7184009552
endloop
endfacet
facet normal -1.0 0.0 0.0
outer loop
vertex -55.6650009155 4.10896635056 -2.7184009552
vertex -55.6650009155 3.88051056862 -8.15434074402
vertex -55.6650009155 3.78092026711 -8.14529705048
endloop
endfacet
facet normal -1.0 -0.0 0.0
outer loop
vertex -55.6650009155 4.20892047882 -2.72141909599
vertex -55.6650009155 3.88051056862 -8.15434074402
vertex -55.6650009155 4.10896635056 -2.7184009552
endloop
endfacet
facet normal -1.0 0.0 0.0
outer loop
vertex -55.6650009155 3.78092026711 -8.14529705048
vertex -55.6650009155 3.22488689423 -13.5575475693
vertex -55.6650009155 3.1260240078 -13.5425109863
endloop
endfacet
facet normal -1.0 -0.0 0.0
outer loop
vertex -55.6650009155 3.88051056862 -8.15434074402
vertex -55.6650009155 3.22488689423 -13.5575475693
vertex -55.6650009155 3.78092026711 -8.14529705048
endloop
endfacet
facet normal -1.0 0.0 0.0
outer loop
vertex -55.6650009155 3.1260240078 -13.5425109863
vertex -55.6650009155 2.24443912506 -18.9113521576
vertex -55.6650009155 2.14666342735 -18.8903770447
endloop
endfacet
facet normal -1.0 -0.0 0.0
outer loop
vertex -55.6650009155 3.22488689423 -13.5575475693
vertex -55.6650009155 2.24443912506 -18.9113521576
vertex -55.6650009155 3.1260240078 -13.5425109863
endloop
endfacet
facet normal -1.0 0.0 0.0
outer loop
vertex -55.6650009155 2.14666342735 -18.8903770447
vertex -55.6650009155 2.12614440918 -19.4628067017
vertex -55.6650009155 2.02836871147 -19.4418315887
endloop
endfacet
facet normal -1.0 -0.0 0.0
outer loop
vertex -55.6650009155 2.24443912506 -18.9113521576
vertex -55.6650009155 2.12614440918 -19.4628067017
vertex -55.6650009155 2.14666342735 -18.8903770447
endloop
endfacet
facet normal 1.0 0.0 0.0
outer loop
vertex 58.6650009155 2.14666342735 18.8903770447
vertex 58.6650009155 2.12614440918 19.4628067017
vertex 58.6650009155 2.02836871147 19.4418315887
endloop
endfacet
facet normal 1.0 0.0 0.0
outer loop
vertex 58.6650009155 2.24443912506 18.9113521576
vertex 58.6650009155 2.12614440918 19.4628067017
vertex 58.6650009155 2.14666342735 18.8903770447
endloop
endfacet
facet normal 1.0 0.0 0.0
outer loop
vertex 58.6650009155 3.1260240078 13.5425109863
vertex 58.6650009155 2.24443912506 18.9113521576
vertex 58.6650009155 2.14666342735 18.8903770447
endloop
endfacet
facet normal 1.0 0.0 0.0
outer loop
vertex 58.6650009155 3.22488689423 13.5575475693
vertex 58.6650009155 2.24443912506 18.9113521576
vertex 58.6650009155 3.1260240078 13.5425109863
endloop
endfacet
facet normal 1.0 0.0 0.0
outer loop
vertex 58.6650009155 3.88051056862 8.15434074402
vertex 58.6650009155 3.1260240078 13.5425109863
vertex 58.6650009155 3.78092026711 8.14529705048
endloop
endfacet
facet normal 1.0 0.0 0.0
outer loop
vertex 58.6650009155 3.88051056862 8.15434074402
vertex 58.6650009155 3.22488689423 13.5575475693
vertex 58.6650009155 3.1260240078 13.5425109863
endloop
endfacet
facet normal 1.0 0.0 0.0
outer loop
vertex 58.6650009155 4.20892047882 2.72141909599
vertex 58.6650009155 3.78092026711 8.14529705048
vertex 58.6650009155 4.10896635056 2.7184009552
endloop
endfacet
facet normal 1.0 0.0 0.0
outer loop
vertex 58.6650009155 4.20892047882 2.72141909599
vertex 58.6650009155 3.88051056862 8.15434074402
vertex 58.6650009155 3.78092026711 8.14529705048
endloop
endfacet
facet normal 1.0 0.0 0.0
outer loop
vertex 58.6650009155 4.20892047882 -2.72141909599
vertex 58.6650009155 4.10896635056 2.7184009552
vertex 58.6650009155 4.10896635056 -2.7184009552
endloop
endfacet
facet normal 1.0 0.0 -0.0
outer loop
vertex 58.6650009155 4.20892047882 -2.72141909599
vertex 58.6650009155 4.20892047882 2.72141909599
vertex 58.6650009155 4.10896635056 2.7184009552
endloop
endfacet
facet normal 1.0 0.0 -0.0
outer loop
vertex 58.6650009155 3.88051056862 -8.15434074402
vertex 58.6650009155 4.10896635056 -2.7184009552
vertex 58.6650009155 3.78092026711 -8.14529705048
endloop
endfacet
facet normal 1.0 0.0 0.0
outer loop
vertex 58.6650009155 3.88051056862 -8.15434074402
vertex 58.6650009155 4.20892047882 -2.72141909599
vertex 58.6650009155 4.10896635056 -2.7184009552
endloop
endfacet
facet normal 1.0 0.0 -0.0
outer loop
vertex 58.6650009155 3.22488689423 -13.5575475693
vertex 58.6650009155 3.78092026711 -8.14529705048
vertex 58.6650009155 3.1260240078 -13.5425109863
endloop
endfacet
facet normal 1.0 0.0 0.0
outer loop
vertex 58.6650009155 3.22488689423 -13.5575475693
vertex 58.6650009155 3.88051056862 -8.15434074402
vertex 58.6650009155 3.78092026711 -8.14529705048
endloop
endfacet
facet normal 1.0 0.0 -0.0
outer loop
vertex 58.6650009155 2.24443912506 -18.9113521576
vertex 58.6650009155 3.1260240078 -13.5425109863
vertex 58.6650009155 2.14666342735 -18.8903770447
endloop
endfacet
facet normal 1.0 0.0 0.0
outer loop
vertex 58.6650009155 2.24443912506 -18.9113521576
vertex 58.6650009155 3.22488689423 -13.5575475693
vertex 58.6650009155 3.1260240078 -13.5425109863
endloop
endfacet
facet normal 1.0 0.0 -0.0
outer loop
vertex 58.6650009155 2.12614440918 -19.4628067017
vertex 58.6650009155 2.14666342735 -18.8903770447
vertex 58.6650009155 2.02836871147 -19.4418315887
endloop
endfacet
facet normal 1.0 0.0 0.0
outer loop
vertex 58.6650009155 2.12614440918 -19.4628067017
vertex 58.6650009155 2.24443912506 -18.9113521576
vertex 58.6650009155 2.14666342735 -18.8903770447
endloop
endfacet
