solid 
facet normal 0.0 0.0 1.0
outer loop
vertex 0.333524256945 -4.29937744141 426.67791748
vertex 1.00055456161 -4.29446411133 426.67791748
vertex 1.0 -4.24444580078 426.67791748
endloop
endfacet
facet normal 0.0 -0.0 1.0
outer loop
vertex 0.333524256945 -4.29937744141 426.67791748
vertex 1.0 -4.24444580078 426.67791748
vertex 0.333339422941 -4.24938964844 426.67791748
endloop
endfacet
facet normal 0.0 0.0 1.0
outer loop
vertex -0.333524256945 -4.29937744141 426.67791748
vertex 0.333339422941 -4.24938964844 426.67791748
vertex -0.333339422941 -4.24938964844 426.67791748
endloop
endfacet
facet normal 0.0 0.0 1.0
outer loop
vertex -0.333524256945 -4.29937744141 426.67791748
vertex 0.333524256945 -4.29937744141 426.67791748
vertex 0.333339422941 -4.24938964844 426.67791748
endloop
endfacet
facet normal 0.0 0.0 1.0
outer loop
vertex -1.00055456161 -4.29446411133 426.67791748
vertex -0.333339422941 -4.24938964844 426.67791748
vertex -1.0 -4.24444580078 426.67791748
endloop
endfacet
facet normal -0.0 0.0 1.0
outer loop
vertex -1.00055456161 -4.29446411133 426.67791748
vertex -0.333524256945 -4.29937744141 426.67791748
vertex -0.333339422941 -4.24938964844 426.67791748
endloop
endfacet
facet normal -0.999938607216 0.0110864909366 0.0
outer loop
vertex -1.00055456161 -4.29446411133 426.67791748
vertex -1.0 -4.24444580078 426.67791748
vertex -1.0 -4.24444580078 318.347930908
endloop
endfacet
facet normal -0.999938607216 0.0110864909366 0.0
outer loop
vertex -1.00055456161 -4.29446411133 426.67791748
vertex -1.0 -4.24444580078 318.347930908
vertex -1.00055456161 -4.29446411133 318.347930908
endloop
endfacet
facet normal -0.00741563551128 0.999972522259 0.0
outer loop
vertex 1.0 -4.24444580078 318.347930908
vertex 0.333339422941 -4.24938964844 318.347930908
vertex 1.0 -4.24444580078 426.67791748
endloop
endfacet
facet normal -0.00741563551128 0.999972522259 0.0
outer loop
vertex 1.0 -4.24444580078 426.67791748
vertex 0.333339422941 -4.24938964844 318.347930908
vertex 0.333339422941 -4.24938964844 426.67791748
endloop
endfacet
facet normal 0.0 1.0 0.0
outer loop
vertex 0.333339422941 -4.24938964844 426.67791748
vertex -0.333339422941 -4.24938964844 318.347930908
vertex -0.333339422941 -4.24938964844 426.67791748
endloop
endfacet
facet normal 0.0 1.0 -0.0
outer loop
vertex 0.333339422941 -4.24938964844 318.347930908
vertex -0.333339422941 -4.24938964844 318.347930908
vertex 0.333339422941 -4.24938964844 426.67791748
endloop
endfacet
facet normal 0.00741563551128 0.999972522259 0.0
outer loop
vertex -0.333339422941 -4.24938964844 426.67791748
vertex -1.0 -4.24444580078 318.347930908
vertex -1.0 -4.24444580078 426.67791748
endloop
endfacet
facet normal 0.00741563551128 0.999972522259 -0.0
outer loop
vertex -0.333339422941 -4.24938964844 318.347930908
vertex -1.0 -4.24444580078 318.347930908
vertex -0.333339422941 -4.24938964844 426.67791748
endloop
endfacet
facet normal 0.999938607216 0.0110864909366 0.0
outer loop
vertex 1.0 -4.24444580078 426.67791748
vertex 1.00055456161 -4.29446411133 426.67791748
vertex 1.00055456161 -4.29446411133 318.347930908
endloop
endfacet
facet normal 0.999938607216 0.0110864909366 0.0
outer loop
vertex 1.0 -4.24444580078 426.67791748
vertex 1.00055456161 -4.29446411133 318.347930908
vertex 1.0 -4.24444580078 318.347930908
endloop
endfacet
facet normal 0.00736577715725 -0.999972879887 0.0
outer loop
vertex 0.333524256945 -4.29937744141 318.347930908
vertex 1.00055456161 -4.29446411133 426.67791748
vertex 0.333524256945 -4.29937744141 426.67791748
endloop
endfacet
facet normal 0.00736577715725 -0.999972879887 0.0
outer loop
vertex 0.333524256945 -4.29937744141 318.347930908
vertex 1.00055456161 -4.29446411133 318.347930908
vertex 1.00055456161 -4.29446411133 426.67791748
endloop
endfacet
facet normal 0.0 -1.0 0.0
outer loop
vertex -0.333524256945 -4.29937744141 318.347930908
vertex 0.333524256945 -4.29937744141 426.67791748
vertex -0.333524256945 -4.29937744141 426.67791748
endloop
endfacet
facet normal 0.0 -1.0 0.0
outer loop
vertex -0.333524256945 -4.29937744141 318.347930908
vertex 0.333524256945 -4.29937744141 318.347930908
vertex 0.333524256945 -4.29937744141 426.67791748
endloop
endfacet
facet normal -0.00736577715725 -0.999972879887 0.0
outer loop
vertex -1.00055456161 -4.29446411133 318.347930908
vertex -0.333524256945 -4.29937744141 426.67791748
vertex -1.00055456161 -4.29446411133 426.67791748
endloop
endfacet
facet normal -0.00736577715725 -0.999972879887 0.0
outer loop
vertex -1.00055456161 -4.29446411133 318.347930908
vertex -0.333524256945 -4.29937744141 318.347930908
vertex -0.333524256945 -4.29937744141 426.67791748
endloop
endfacet
facet normal -0.0 0.0 -1.0
outer loop
vertex -0.333339422941 -4.24938964844 318.347930908
vertex -1.00055456161 -4.29446411133 318.347930908
vertex -1.0 -4.24444580078 318.347930908
endloop
endfacet
facet normal 0.0 0.0 -1.0
outer loop
vertex -0.333524256945 -4.29937744141 318.347930908
vertex -1.00055456161 -4.29446411133 318.347930908
vertex -0.333339422941 -4.24938964844 318.347930908
endloop
endfacet
facet normal -0.0 0.0 -1.0
outer loop
vertex 0.333339422941 -4.24938964844 318.347930908
vertex -0.333524256945 -4.29937744141 318.347930908
vertex -0.333339422941 -4.24938964844 318.347930908
endloop
endfacet
facet normal 0.0 0.0 -1.0
outer loop
vertex 0.333524256945 -4.29937744141 318.347930908
vertex -0.333524256945 -4.29937744141 318.347930908
vertex 0.333339422941 -4.24938964844 318.347930908
endloop
endfacet
facet normal 0.0 0.0 -1.0
outer loop
vertex 1.0 -4.24444580078 318.347930908
vertex 0.333524256945 -4.29937744141 318.347930908
vertex 0.333339422941 -4.24938964844 318.347930908
endloop
endfacet
facet normal -0.0 0.0 -1.0
outer loop
vertex 1.00055456161 -4.29446411133 318.347930908
vertex 0.333524256945 -4.29937744141 318.347930908
vertex 1.0 -4.24444580078 318.347930908
endloop
endfacet
facet normal 0.0 0.0 1.0
outer loop
vertex -0.333524256945 4.29937744141 326.348175049
vertex -1.00055456161 4.29446411133 326.348175049
vertex -1.0 4.24444580078 326.348175049
endloop
endfacet
facet normal 0.0 0.0 1.0
outer loop
vertex -0.333524256945 4.29937744141 326.348175049
vertex -1.0 4.24444580078 326.348175049
vertex -0.333339422941 4.24938964844 326.348175049
endloop
endfacet
facet normal 0.0 0.0 1.0
outer loop
vertex 0.333524256945 4.29937744141 326.348175049
vertex -0.333339422941 4.24938964844 326.348175049
vertex 0.333339422941 4.24938964844 326.348175049
endloop
endfacet
facet normal 0.0 0.0 1.0
outer loop
vertex 0.333524256945 4.29937744141 326.348175049
vertex -0.333524256945 4.29937744141 326.348175049
vertex -0.333339422941 4.24938964844 326.348175049
endloop
endfacet
facet normal 0.0 0.0 1.0
outer loop
vertex 1.00055456161 4.29446411133 326.348175049
vertex 0.333339422941 4.24938964844 326.348175049
vertex 1.0 4.24444580078 326.348175049
endloop
endfacet
facet normal 0.0 0.0 1.0
outer loop
vertex 1.00055456161 4.29446411133 326.348175049
vertex 0.333524256945 4.29937744141 326.348175049
vertex 0.333339422941 4.24938964844 326.348175049
endloop
endfacet
facet normal 0.999938607216 -0.0110864909366 0.0
outer loop
vertex 1.00055456161 4.29446411133 326.348175049
vertex 1.0 4.24444580078 326.348175049
vertex 1.0 4.24444580078 218.018173218
endloop
endfacet
facet normal 0.999938607216 -0.0110864909366 0.0
outer loop
vertex 1.00055456161 4.29446411133 326.348175049
vertex 1.0 4.24444580078 218.018173218
vertex 1.00055456161 4.29446411133 218.018173218
endloop
endfacet
facet normal 0.0074156364426 -0.999972522259 0.0
outer loop
vertex -1.0 4.24444580078 218.018173218
vertex -0.333339422941 4.24938964844 218.018173218
vertex -1.0 4.24444580078 326.348175049
endloop
endfacet
facet normal 0.0074156364426 -0.999972522259 0.0
outer loop
vertex -1.0 4.24444580078 326.348175049
vertex -0.333339422941 4.24938964844 218.018173218
vertex -0.333339422941 4.24938964844 326.348175049
endloop
endfacet
facet normal 0.0 -1.0 0.0
outer loop
vertex -0.333339422941 4.24938964844 326.348175049
vertex 0.333339422941 4.24938964844 218.018173218
vertex 0.333339422941 4.24938964844 326.348175049
endloop
endfacet
facet normal 0.0 -1.0 0.0
outer loop
vertex -0.333339422941 4.24938964844 218.018173218
vertex 0.333339422941 4.24938964844 218.018173218
vertex -0.333339422941 4.24938964844 326.348175049
endloop
endfacet
facet normal -0.0074156364426 -0.999972522259 0.0
outer loop
vertex 0.333339422941 4.24938964844 326.348175049
vertex 1.0 4.24444580078 218.018173218
vertex 1.0 4.24444580078 326.348175049
endloop
endfacet
facet normal -0.0074156364426 -0.999972522259 0.0
outer loop
vertex 0.333339422941 4.24938964844 218.018173218
vertex 1.0 4.24444580078 218.018173218
vertex 0.333339422941 4.24938964844 326.348175049
endloop
endfacet
facet normal -0.999938607216 -0.0110864909366 0.0
outer loop
vertex -1.0 4.24444580078 326.348175049
vertex -1.00055456161 4.29446411133 326.348175049
vertex -1.00055456161 4.29446411133 218.018173218
endloop
endfacet
facet normal -0.999938607216 -0.0110864909366 -0.0
outer loop
vertex -1.0 4.24444580078 326.348175049
vertex -1.00055456161 4.29446411133 218.018173218
vertex -1.0 4.24444580078 218.018173218
endloop
endfacet
facet normal -0.00736577715725 0.999972879887 0.0
outer loop
vertex -0.333524256945 4.29937744141 218.018173218
vertex -1.00055456161 4.29446411133 326.348175049
vertex -0.333524256945 4.29937744141 326.348175049
endloop
endfacet
facet normal -0.00736577715725 0.999972879887 0.0
outer loop
vertex -0.333524256945 4.29937744141 218.018173218
vertex -1.00055456161 4.29446411133 218.018173218
vertex -1.00055456161 4.29446411133 326.348175049
endloop
endfacet
facet normal 0.0 1.0 -0.0
outer loop
vertex 0.333524256945 4.29937744141 218.018173218
vertex -0.333524256945 4.29937744141 326.348175049
vertex 0.333524256945 4.29937744141 326.348175049
endloop
endfacet
facet normal 0.0 1.0 0.0
outer loop
vertex 0.333524256945 4.29937744141 218.018173218
vertex -0.333524256945 4.29937744141 218.018173218
vertex -0.333524256945 4.29937744141 326.348175049
endloop
endfacet
facet normal 0.00736577715725 0.999972879887 -0.0
outer loop
vertex 1.00055456161 4.29446411133 218.018173218
vertex 0.333524256945 4.29937744141 326.348175049
vertex 1.00055456161 4.29446411133 326.348175049
endloop
endfacet
facet normal 0.00736577715725 0.999972879887 0.0
outer loop
vertex 1.00055456161 4.29446411133 218.018173218
vertex 0.333524256945 4.29937744141 218.018173218
vertex 0.333524256945 4.29937744141 326.348175049
endloop
endfacet
facet normal 0.0 0.0 -1.0
outer loop
vertex 0.333339422941 4.24938964844 218.018173218
vertex 1.00055456161 4.29446411133 218.018173218
vertex 1.0 4.24444580078 218.018173218
endloop
endfacet
facet normal 0.0 -0.0 -1.0
outer loop
vertex 0.333524256945 4.29937744141 218.018173218
vertex 1.00055456161 4.29446411133 218.018173218
vertex 0.333339422941 4.24938964844 218.018173218
endloop
endfacet
facet normal 0.0 0.0 -1.0
outer loop
vertex -0.333339422941 4.24938964844 218.018173218
vertex 0.333524256945 4.29937744141 218.018173218
vertex 0.333339422941 4.24938964844 218.018173218
endloop
endfacet
facet normal 0.0 0.0 -1.0
outer loop
vertex -0.333524256945 4.29937744141 218.018173218
vertex 0.333524256945 4.29937744141 218.018173218
vertex -0.333339422941 4.24938964844 218.018173218
endloop
endfacet
facet normal 0.0 0.0 -1.0
outer loop
vertex -1.0 4.24444580078 218.018173218
vertex -0.333524256945 4.29937744141 218.018173218
vertex -0.333339422941 4.24938964844 218.018173218
endloop
endfacet
facet normal 0.0 0.0 -1.0
outer loop
vertex -1.00055456161 4.29446411133 218.018173218
vertex -0.333524256945 4.29937744141 218.018173218
vertex -1.0 4.24444580078 218.018173218
endloop
endfacet
facet normal 0.0 0.0 1.0
outer loop
vertex 0.333524256945 -4.29937744141 215.853134155
vertex 1.00055456161 -4.29446411133 215.853134155
vertex 1.0 -4.24444580078 215.853134155
endloop
endfacet
facet normal 0.0 -0.0 1.0
outer loop
vertex 0.333524256945 -4.29937744141 215.853134155
vertex 1.0 -4.24444580078 215.853134155
vertex 0.333339422941 -4.24938964844 215.853134155
endloop
endfacet
facet normal 0.0 0.0 1.0
outer loop
vertex -0.333524256945 -4.29937744141 215.853134155
vertex 0.333339422941 -4.24938964844 215.853134155
vertex -0.333339422941 -4.24938964844 215.853134155
endloop
endfacet
facet normal 0.0 0.0 1.0
outer loop
vertex -0.333524256945 -4.29937744141 215.853134155
vertex 0.333524256945 -4.29937744141 215.853134155
vertex 0.333339422941 -4.24938964844 215.853134155
endloop
endfacet
facet normal 0.0 0.0 1.0
outer loop
vertex -1.00055456161 -4.29446411133 215.853134155
vertex -0.333339422941 -4.24938964844 215.853134155
vertex -1.0 -4.24444580078 215.853134155
endloop
endfacet
facet normal -0.0 0.0 1.0
outer loop
vertex -1.00055456161 -4.29446411133 215.853134155
vertex -0.333524256945 -4.29937744141 215.853134155
vertex -0.333339422941 -4.24938964844 215.853134155
endloop
endfacet
facet normal -0.999938607216 0.0110864909366 0.0
outer loop
vertex -1.00055456161 -4.29446411133 215.853134155
vertex -1.0 -4.24444580078 215.853134155
vertex -1.0 -4.24444580078 107.523139954
endloop
endfacet
facet normal -0.999938607216 0.0110864909366 0.0
outer loop
vertex -1.00055456161 -4.29446411133 215.853134155
vertex -1.0 -4.24444580078 107.523139954
vertex -1.00055456161 -4.29446411133 107.523139954
endloop
endfacet
facet normal -0.00741563597694 0.999972522259 0.0
outer loop
vertex 1.0 -4.24444580078 107.523139954
vertex 0.333339422941 -4.24938964844 107.523139954
vertex 1.0 -4.24444580078 215.853134155
endloop
endfacet
facet normal -0.00741563597694 0.999972522259 0.0
outer loop
vertex 1.0 -4.24444580078 215.853134155
vertex 0.333339422941 -4.24938964844 107.523139954
vertex 0.333339422941 -4.24938964844 215.853134155
endloop
endfacet
facet normal 0.0 1.0 0.0
outer loop
vertex 0.333339422941 -4.24938964844 215.853134155
vertex -0.333339422941 -4.24938964844 107.523139954
vertex -0.333339422941 -4.24938964844 215.853134155
endloop
endfacet
facet normal 0.0 1.0 -0.0
outer loop
vertex 0.333339422941 -4.24938964844 107.523139954
vertex -0.333339422941 -4.24938964844 107.523139954
vertex 0.333339422941 -4.24938964844 215.853134155
endloop
endfacet
facet normal 0.00741563597694 0.999972522259 0.0
outer loop
vertex -0.333339422941 -4.24938964844 215.853134155
vertex -1.0 -4.24444580078 107.523139954
vertex -1.0 -4.24444580078 215.853134155
endloop
endfacet
facet normal 0.00741563597694 0.999972522259 -0.0
outer loop
vertex -0.333339422941 -4.24938964844 107.523139954
vertex -1.0 -4.24444580078 107.523139954
vertex -0.333339422941 -4.24938964844 215.853134155
endloop
endfacet
facet normal 0.999938607216 0.0110864909366 0.0
outer loop
vertex 1.0 -4.24444580078 215.853134155
vertex 1.00055456161 -4.29446411133 215.853134155
vertex 1.00055456161 -4.29446411133 107.523139954
endloop
endfacet
facet normal 0.999938607216 0.0110864909366 0.0
outer loop
vertex 1.0 -4.24444580078 215.853134155
vertex 1.00055456161 -4.29446411133 107.523139954
vertex 1.0 -4.24444580078 107.523139954
endloop
endfacet
facet normal 0.00736577715725 -0.999972879887 0.0
outer loop
vertex 0.333524256945 -4.29937744141 107.523139954
vertex 1.00055456161 -4.29446411133 215.853134155
vertex 0.333524256945 -4.29937744141 215.853134155
endloop
endfacet
facet normal 0.00736577715725 -0.999972879887 0.0
outer loop
vertex 0.333524256945 -4.29937744141 107.523139954
vertex 1.00055456161 -4.29446411133 107.523139954
vertex 1.00055456161 -4.29446411133 215.853134155
endloop
endfacet
facet normal 0.0 -1.0 0.0
outer loop
vertex -0.333524256945 -4.29937744141 107.523139954
vertex 0.333524256945 -4.29937744141 215.853134155
vertex -0.333524256945 -4.29937744141 215.853134155
endloop
endfacet
facet normal 0.0 -1.0 0.0
outer loop
vertex -0.333524256945 -4.29937744141 107.523139954
vertex 0.333524256945 -4.29937744141 107.523139954
vertex 0.333524256945 -4.29937744141 215.853134155
endloop
endfacet
facet normal -0.00736577715725 -0.999972879887 0.0
outer loop
vertex -1.00055456161 -4.29446411133 107.523139954
vertex -0.333524256945 -4.29937744141 215.853134155
vertex -1.00055456161 -4.29446411133 215.853134155
endloop
endfacet
facet normal -0.00736577715725 -0.999972879887 0.0
outer loop
vertex -1.00055456161 -4.29446411133 107.523139954
vertex -0.333524256945 -4.29937744141 107.523139954
vertex -0.333524256945 -4.29937744141 215.853134155
endloop
endfacet
facet normal -0.0 0.0 -1.0
outer loop
vertex -0.333339422941 -4.24938964844 107.523139954
vertex -1.00055456161 -4.29446411133 107.523139954
vertex -1.0 -4.24444580078 107.523139954
endloop
endfacet
facet normal 0.0 0.0 -1.0
outer loop
vertex -0.333524256945 -4.29937744141 107.523139954
vertex -1.00055456161 -4.29446411133 107.523139954
vertex -0.333339422941 -4.24938964844 107.523139954
endloop
endfacet
facet normal -0.0 0.0 -1.0
outer loop
vertex 0.333339422941 -4.24938964844 107.523139954
vertex -0.333524256945 -4.29937744141 107.523139954
vertex -0.333339422941 -4.24938964844 107.523139954
endloop
endfacet
facet normal 0.0 0.0 -1.0
outer loop
vertex 0.333524256945 -4.29937744141 107.523139954
vertex -0.333524256945 -4.29937744141 107.523139954
vertex 0.333339422941 -4.24938964844 107.523139954
endloop
endfacet
facet normal 0.0 0.0 -1.0
outer loop
vertex 1.0 -4.24444580078 107.523139954
vertex 0.333524256945 -4.29937744141 107.523139954
vertex 0.333339422941 -4.24938964844 107.523139954
endloop
endfacet
facet normal -0.0 0.0 -1.0
outer loop
vertex 1.00055456161 -4.29446411133 107.523139954
vertex 0.333524256945 -4.29937744141 107.523139954
vertex 1.0 -4.24444580078 107.523139954
endloop
endfacet
facet normal 0.0 0.0 1.0
outer loop
vertex -0.333524256945 4.29937744141 111.449478149
vertex -1.00055456161 4.29446411133 111.449478149
vertex -1.0 4.24444580078 111.449478149
endloop
endfacet
facet normal 0.0 0.0 1.0
outer loop
vertex -0.333524256945 4.29937744141 111.449478149
vertex -1.0 4.24444580078 111.449478149
vertex -0.333339422941 4.24938964844 111.449478149
endloop
endfacet
facet normal 0.0 0.0 1.0
outer loop
vertex 0.333524256945 4.29937744141 111.449478149
vertex -0.333339422941 4.24938964844 111.449478149
vertex 0.333339422941 4.24938964844 111.449478149
endloop
endfacet
facet normal 0.0 0.0 1.0
outer loop
vertex 0.333524256945 4.29937744141 111.449478149
vertex -0.333524256945 4.29937744141 111.449478149
vertex -0.333339422941 4.24938964844 111.449478149
endloop
endfacet
facet normal 0.0 0.0 1.0
outer loop
vertex 1.00055456161 4.29446411133 111.449478149
vertex 0.333339422941 4.24938964844 111.449478149
vertex 1.0 4.24444580078 111.449478149
endloop
endfacet
facet normal 0.0 0.0 1.0
outer loop
vertex 1.00055456161 4.29446411133 111.449478149
vertex 0.333524256945 4.29937744141 111.449478149
vertex 0.333339422941 4.24938964844 111.449478149
endloop
endfacet
facet normal 0.999938607216 -0.0110864909366 0.0
outer loop
vertex 1.00055456161 4.29446411133 111.449478149
vertex 1.0 4.24444580078 111.449478149
vertex 1.0 4.24444580078 3.11947488785
endloop
endfacet
facet normal 0.999938607216 -0.0110864909366 0.0
outer loop
vertex 1.00055456161 4.29446411133 111.449478149
vertex 1.0 4.24444580078 3.11947488785
vertex 1.00055456161 4.29446411133 3.11947488785
endloop
endfacet
facet normal 0.0074156364426 -0.999972522259 0.0
outer loop
vertex -1.0 4.24444580078 3.11947488785
vertex -0.333339422941 4.24938964844 3.11947488785
vertex -1.0 4.24444580078 111.449478149
endloop
endfacet
facet normal 0.0074156364426 -0.999972522259 0.0
outer loop
vertex -1.0 4.24444580078 111.449478149
vertex -0.333339422941 4.24938964844 3.11947488785
vertex -0.333339422941 4.24938964844 111.449478149
endloop
endfacet
facet normal 0.0 -1.0 0.0
outer loop
vertex -0.333339422941 4.24938964844 111.449478149
vertex 0.333339422941 4.24938964844 3.11947488785
vertex 0.333339422941 4.24938964844 111.449478149
endloop
endfacet
facet normal 0.0 -1.0 0.0
outer loop
vertex -0.333339422941 4.24938964844 3.11947488785
vertex 0.333339422941 4.24938964844 3.11947488785
vertex -0.333339422941 4.24938964844 111.449478149
endloop
endfacet
facet normal -0.0074156364426 -0.999972522259 0.0
outer loop
vertex 0.333339422941 4.24938964844 111.449478149
vertex 1.0 4.24444580078 3.11947488785
vertex 1.0 4.24444580078 111.449478149
endloop
endfacet
facet normal -0.0074156364426 -0.999972522259 0.0
outer loop
vertex 0.333339422941 4.24938964844 3.11947488785
vertex 1.0 4.24444580078 3.11947488785
vertex 0.333339422941 4.24938964844 111.449478149
endloop
endfacet
facet normal -0.999938607216 -0.0110864909366 0.0
outer loop
vertex -1.0 4.24444580078 111.449478149
vertex -1.00055456161 4.29446411133 111.449478149
vertex -1.00055456161 4.29446411133 3.11947488785
endloop
endfacet
facet normal -0.999938607216 -0.0110864909366 -0.0
outer loop
vertex -1.0 4.24444580078 111.449478149
vertex -1.00055456161 4.29446411133 3.11947488785
vertex -1.0 4.24444580078 3.11947488785
endloop
endfacet
facet normal -0.00736577715725 0.999972879887 0.0
outer loop
vertex -0.333524256945 4.29937744141 3.11947488785
vertex -1.00055456161 4.29446411133 111.449478149
vertex -0.333524256945 4.29937744141 111.449478149
endloop
endfacet
facet normal -0.00736577715725 0.999972879887 0.0
outer loop
vertex -0.333524256945 4.29937744141 3.11947488785
vertex -1.00055456161 4.29446411133 3.11947488785
vertex -1.00055456161 4.29446411133 111.449478149
endloop
endfacet
facet normal 0.0 1.0 -0.0
outer loop
vertex 0.333524256945 4.29937744141 3.11947488785
vertex -0.333524256945 4.29937744141 111.449478149
vertex 0.333524256945 4.29937744141 111.449478149
endloop
endfacet
facet normal 0.0 1.0 0.0
outer loop
vertex 0.333524256945 4.29937744141 3.11947488785
vertex -0.333524256945 4.29937744141 3.11947488785
vertex -0.333524256945 4.29937744141 111.449478149
endloop
endfacet
facet normal 0.00736577715725 0.999972879887 -0.0
outer loop
vertex 1.00055456161 4.29446411133 3.11947488785
vertex 0.333524256945 4.29937744141 111.449478149
vertex 1.00055456161 4.29446411133 111.449478149
endloop
endfacet
facet normal 0.00736577715725 0.999972879887 0.0
outer loop
vertex 1.00055456161 4.29446411133 3.11947488785
vertex 0.333524256945 4.29937744141 3.11947488785
vertex 0.333524256945 4.29937744141 111.449478149
endloop
endfacet
facet normal 0.0 0.0 -1.0
outer loop
vertex 0.333339422941 4.24938964844 3.11947488785
vertex 1.00055456161 4.29446411133 3.11947488785
vertex 1.0 4.24444580078 3.11947488785
endloop
endfacet
facet normal 0.0 -0.0 -1.0
outer loop
vertex 0.333524256945 4.29937744141 3.11947488785
vertex 1.00055456161 4.29446411133 3.11947488785
vertex 0.333339422941 4.24938964844 3.11947488785
endloop
endfacet
facet normal 0.0 0.0 -1.0
outer loop
vertex -0.333339422941 4.24938964844 3.11947488785
vertex 0.333524256945 4.29937744141 3.11947488785
vertex 0.333339422941 4.24938964844 3.11947488785
endloop
endfacet
facet normal 0.0 0.0 -1.0
outer loop
vertex -0.333524256945 4.29937744141 3.11947488785
vertex 0.333524256945 4.29937744141 3.11947488785
vertex -0.333339422941 4.24938964844 3.11947488785
endloop
endfacet
facet normal 0.0 0.0 -1.0
outer loop
vertex -1.0 4.24444580078 3.11947488785
vertex -0.333524256945 4.29937744141 3.11947488785
vertex -0.333339422941 4.24938964844 3.11947488785
endloop
endfacet
facet normal 0.0 0.0 -1.0
outer loop
vertex -1.00055456161 4.29446411133 3.11947488785
vertex -0.333524256945 4.29937744141 3.11947488785
vertex -1.0 4.24444580078 3.11947488785
endloop
endfacet
facet normal 0.0 0.0 -1.0
outer loop
vertex -0.333524256945 -4.29937744141 -103.301651001
vertex -1.00055456161 -4.29446411133 -103.301651001
vertex -1.0 -4.24444580078 -103.301651001
endloop
endfacet
facet normal 0.0 0.0 -1.0
outer loop
vertex -0.333524256945 -4.29937744141 -103.301651001
vertex -1.0 -4.24444580078 -103.301651001
vertex -0.333339422941 -4.24938964844 -103.301651001
endloop
endfacet
facet normal 0.0 0.0 -1.0
outer loop
vertex 0.333524256945 -4.29937744141 -103.301651001
vertex -0.333339422941 -4.24938964844 -103.301651001
vertex 0.333339422941 -4.24938964844 -103.301651001
endloop
endfacet
facet normal 0.0 0.0 -1.0
outer loop
vertex 0.333524256945 -4.29937744141 -103.301651001
vertex -0.333524256945 -4.29937744141 -103.301651001
vertex -0.333339422941 -4.24938964844 -103.301651001
endloop
endfacet
facet normal 0.0 0.0 -1.0
outer loop
vertex 1.00055456161 -4.29446411133 -103.301651001
vertex 0.333339422941 -4.24938964844 -103.301651001
vertex 1.0 -4.24444580078 -103.301651001
endloop
endfacet
facet normal -0.0 0.0 -1.0
outer loop
vertex 1.00055456161 -4.29446411133 -103.301651001
vertex 0.333524256945 -4.29937744141 -103.301651001
vertex 0.333339422941 -4.24938964844 -103.301651001
endloop
endfacet
facet normal 0.999938607216 0.0110864909366 0.0
outer loop
vertex 1.00055456161 -4.29446411133 -103.301651001
vertex 1.0 -4.24444580078 -103.301651001
vertex 1.0 -4.24444580078 5.02835226059
endloop
endfacet
facet normal 0.999938607216 0.0110864909366 -0.0
outer loop
vertex 1.00055456161 -4.29446411133 -103.301651001
vertex 1.0 -4.24444580078 5.02835226059
vertex 1.00055456161 -4.29446411133 5.02835226059
endloop
endfacet
facet normal 0.0074156364426 0.999972522259 0.0
outer loop
vertex -1.0 -4.24444580078 5.02835226059
vertex -0.333339422941 -4.24938964844 5.02835226059
vertex -1.0 -4.24444580078 -103.301651001
endloop
endfacet
facet normal 0.0074156364426 0.999972522259 0.0
outer loop
vertex -1.0 -4.24444580078 -103.301651001
vertex -0.333339422941 -4.24938964844 5.02835226059
vertex -0.333339422941 -4.24938964844 -103.301651001
endloop
endfacet
facet normal 0.0 1.0 0.0
outer loop
vertex -0.333339422941 -4.24938964844 -103.301651001
vertex 0.333339422941 -4.24938964844 5.02835226059
vertex 0.333339422941 -4.24938964844 -103.301651001
endloop
endfacet
facet normal -0.0 1.0 0.0
outer loop
vertex -0.333339422941 -4.24938964844 5.02835226059
vertex 0.333339422941 -4.24938964844 5.02835226059
vertex -0.333339422941 -4.24938964844 -103.301651001
endloop
endfacet
facet normal -0.0074156364426 0.999972522259 0.0
outer loop
vertex 0.333339422941 -4.24938964844 -103.301651001
vertex 1.0 -4.24444580078 5.02835226059
vertex 1.0 -4.24444580078 -103.301651001
endloop
endfacet
facet normal -0.0074156364426 0.999972522259 0.0
outer loop
vertex 0.333339422941 -4.24938964844 5.02835226059
vertex 1.0 -4.24444580078 5.02835226059
vertex 0.333339422941 -4.24938964844 -103.301651001
endloop
endfacet
facet normal -0.999938607216 0.0110864909366 0.0
outer loop
vertex -1.0 -4.24444580078 -103.301651001
vertex -1.00055456161 -4.29446411133 -103.301651001
vertex -1.00055456161 -4.29446411133 5.02835226059
endloop
endfacet
facet normal -0.999938607216 0.0110864909366 0.0
outer loop
vertex -1.0 -4.24444580078 -103.301651001
vertex -1.00055456161 -4.29446411133 5.02835226059
vertex -1.0 -4.24444580078 5.02835226059
endloop
endfacet
facet normal -0.00736577715725 -0.999972879887 -0.0
outer loop
vertex -0.333524256945 -4.29937744141 5.02835226059
vertex -1.00055456161 -4.29446411133 -103.301651001
vertex -0.333524256945 -4.29937744141 -103.301651001
endloop
endfacet
facet normal -0.00736577715725 -0.999972879887 0.0
outer loop
vertex -0.333524256945 -4.29937744141 5.02835226059
vertex -1.00055456161 -4.29446411133 5.02835226059
vertex -1.00055456161 -4.29446411133 -103.301651001
endloop
endfacet
facet normal 0.0 -1.0 -0.0
outer loop
vertex 0.333524256945 -4.29937744141 5.02835226059
vertex -0.333524256945 -4.29937744141 -103.301651001
vertex 0.333524256945 -4.29937744141 -103.301651001
endloop
endfacet
facet normal -0.0 -1.0 0.0
outer loop
vertex 0.333524256945 -4.29937744141 5.02835226059
vertex -0.333524256945 -4.29937744141 5.02835226059
vertex -0.333524256945 -4.29937744141 -103.301651001
endloop
endfacet
facet normal 0.00736577715725 -0.999972879887 0.0
outer loop
vertex 1.00055456161 -4.29446411133 5.02835226059
vertex 0.333524256945 -4.29937744141 -103.301651001
vertex 1.00055456161 -4.29446411133 -103.301651001
endloop
endfacet
facet normal 0.00736577715725 -0.999972879887 0.0
outer loop
vertex 1.00055456161 -4.29446411133 5.02835226059
vertex 0.333524256945 -4.29937744141 5.02835226059
vertex 0.333524256945 -4.29937744141 -103.301651001
endloop
endfacet
facet normal -0.0 0.0 1.0
outer loop
vertex 0.333339422941 -4.24938964844 5.02835226059
vertex 1.00055456161 -4.29446411133 5.02835226059
vertex 1.0 -4.24444580078 5.02835226059
endloop
endfacet
facet normal 0.0 -0.0 1.0
outer loop
vertex 0.333524256945 -4.29937744141 5.02835226059
vertex 1.00055456161 -4.29446411133 5.02835226059
vertex 0.333339422941 -4.24938964844 5.02835226059
endloop
endfacet
facet normal -0.0 0.0 1.0
outer loop
vertex -0.333339422941 -4.24938964844 5.02835226059
vertex 0.333524256945 -4.29937744141 5.02835226059
vertex 0.333339422941 -4.24938964844 5.02835226059
endloop
endfacet
facet normal 0.0 0.0 1.0
outer loop
vertex -0.333524256945 -4.29937744141 5.02835226059
vertex 0.333524256945 -4.29937744141 5.02835226059
vertex -0.333339422941 -4.24938964844 5.02835226059
endloop
endfacet
facet normal 0.0 0.0 1.0
outer loop
vertex -1.0 -4.24444580078 5.02835226059
vertex -0.333524256945 -4.29937744141 5.02835226059
vertex -0.333339422941 -4.24938964844 5.02835226059
endloop
endfacet
facet normal -0.0 0.0 1.0
outer loop
vertex -1.00055456161 -4.29446411133 5.02835226059
vertex -0.333524256945 -4.29937744141 5.02835226059
vertex -1.0 -4.24444580078 5.02835226059
endloop
endfacet
facet normal 0.0 0.0 -1.0
outer loop
vertex 0.333524256945 4.29937744141 -211.779220581
vertex 1.00055456161 4.29446411133 -211.779220581
vertex 1.0 4.24444580078 -211.779220581
endloop
endfacet
facet normal 0.0 -0.0 -1.0
outer loop
vertex 0.333524256945 4.29937744141 -211.779220581
vertex 1.0 4.24444580078 -211.779220581
vertex 0.333339422941 4.24938964844 -211.779220581
endloop
endfacet
facet normal 0.0 0.0 -1.0
outer loop
vertex -0.333524256945 4.29937744141 -211.779220581
vertex 0.333339422941 4.24938964844 -211.779220581
vertex -0.333339422941 4.24938964844 -211.779220581
endloop
endfacet
facet normal 0.0 0.0 -1.0
outer loop
vertex -0.333524256945 4.29937744141 -211.779220581
vertex 0.333524256945 4.29937744141 -211.779220581
vertex 0.333339422941 4.24938964844 -211.779220581
endloop
endfacet
facet normal 0.0 0.0 -1.0
outer loop
vertex -1.00055456161 4.29446411133 -211.779220581
vertex -0.333339422941 4.24938964844 -211.779220581
vertex -1.0 4.24444580078 -211.779220581
endloop
endfacet
facet normal 0.0 0.0 -1.0
outer loop
vertex -1.00055456161 4.29446411133 -211.779220581
vertex -0.333524256945 4.29937744141 -211.779220581
vertex -0.333339422941 4.24938964844 -211.779220581
endloop
endfacet
facet normal -0.999938607216 -0.0110864909366 0.0
outer loop
vertex -1.00055456161 4.29446411133 -211.779220581
vertex -1.0 4.24444580078 -211.779220581
vertex -1.0 4.24444580078 -103.44921875
endloop
endfacet
facet normal -0.999938607216 -0.0110864909366 0.0
outer loop
vertex -1.00055456161 4.29446411133 -211.779220581
vertex -1.0 4.24444580078 -103.44921875
vertex -1.00055456161 4.29446411133 -103.44921875
endloop
endfacet
facet normal -0.0074156364426 -0.999972522259 -0.0
outer loop
vertex 1.0 4.24444580078 -103.44921875
vertex 0.333339422941 4.24938964844 -103.44921875
vertex 1.0 4.24444580078 -211.779220581
endloop
endfacet
facet normal -0.0074156364426 -0.999972522259 0.0
outer loop
vertex 1.0 4.24444580078 -211.779220581
vertex 0.333339422941 4.24938964844 -103.44921875
vertex 0.333339422941 4.24938964844 -211.779220581
endloop
endfacet
facet normal 0.0 -1.0 0.0
outer loop
vertex 0.333339422941 4.24938964844 -211.779220581
vertex -0.333339422941 4.24938964844 -103.44921875
vertex -0.333339422941 4.24938964844 -211.779220581
endloop
endfacet
facet normal -0.0 -1.0 -0.0
outer loop
vertex 0.333339422941 4.24938964844 -103.44921875
vertex -0.333339422941 4.24938964844 -103.44921875
vertex 0.333339422941 4.24938964844 -211.779220581
endloop
endfacet
facet normal 0.0074156364426 -0.999972522259 0.0
outer loop
vertex -0.333339422941 4.24938964844 -211.779220581
vertex -1.0 4.24444580078 -103.44921875
vertex -1.0 4.24444580078 -211.779220581
endloop
endfacet
facet normal 0.0074156364426 -0.999972522259 0.0
outer loop
vertex -0.333339422941 4.24938964844 -103.44921875
vertex -1.0 4.24444580078 -103.44921875
vertex -0.333339422941 4.24938964844 -211.779220581
endloop
endfacet
facet normal 0.999938607216 -0.0110864909366 0.0
outer loop
vertex 1.0 4.24444580078 -211.779220581
vertex 1.00055456161 4.29446411133 -211.779220581
vertex 1.00055456161 4.29446411133 -103.44921875
endloop
endfacet
facet normal 0.999938607216 -0.0110864909366 0.0
outer loop
vertex 1.0 4.24444580078 -211.779220581
vertex 1.00055456161 4.29446411133 -103.44921875
vertex 1.0 4.24444580078 -103.44921875
endloop
endfacet
facet normal 0.00736577715725 0.999972879887 0.0
outer loop
vertex 0.333524256945 4.29937744141 -103.44921875
vertex 1.00055456161 4.29446411133 -211.779220581
vertex 0.333524256945 4.29937744141 -211.779220581
endloop
endfacet
facet normal 0.00736577715725 0.999972879887 0.0
outer loop
vertex 0.333524256945 4.29937744141 -103.44921875
vertex 1.00055456161 4.29446411133 -103.44921875
vertex 1.00055456161 4.29446411133 -211.779220581
endloop
endfacet
facet normal 0.0 1.0 0.0
outer loop
vertex -0.333524256945 4.29937744141 -103.44921875
vertex 0.333524256945 4.29937744141 -211.779220581
vertex -0.333524256945 4.29937744141 -211.779220581
endloop
endfacet
facet normal -0.0 1.0 0.0
outer loop
vertex -0.333524256945 4.29937744141 -103.44921875
vertex 0.333524256945 4.29937744141 -103.44921875
vertex 0.333524256945 4.29937744141 -211.779220581
endloop
endfacet
facet normal -0.00736577715725 0.999972879887 0.0
outer loop
vertex -1.00055456161 4.29446411133 -103.44921875
vertex -0.333524256945 4.29937744141 -211.779220581
vertex -1.00055456161 4.29446411133 -211.779220581
endloop
endfacet
facet normal -0.00736577715725 0.999972879887 0.0
outer loop
vertex -1.00055456161 4.29446411133 -103.44921875
vertex -0.333524256945 4.29937744141 -103.44921875
vertex -0.333524256945 4.29937744141 -211.779220581
endloop
endfacet
facet normal 0.0 0.0 1.0
outer loop
vertex -0.333339422941 4.24938964844 -103.44921875
vertex -1.00055456161 4.29446411133 -103.44921875
vertex -1.0 4.24444580078 -103.44921875
endloop
endfacet
facet normal 0.0 0.0 1.0
outer loop
vertex -0.333524256945 4.29937744141 -103.44921875
vertex -1.00055456161 4.29446411133 -103.44921875
vertex -0.333339422941 4.24938964844 -103.44921875
endloop
endfacet
facet normal 0.0 0.0 1.0
outer loop
vertex 0.333339422941 4.24938964844 -103.44921875
vertex -0.333524256945 4.29937744141 -103.44921875
vertex -0.333339422941 4.24938964844 -103.44921875
endloop
endfacet
facet normal 0.0 0.0 1.0
outer loop
vertex 0.333524256945 4.29937744141 -103.44921875
vertex -0.333524256945 4.29937744141 -103.44921875
vertex 0.333339422941 4.24938964844 -103.44921875
endloop
endfacet
facet normal 0.0 0.0 1.0
outer loop
vertex 1.0 4.24444580078 -103.44921875
vertex 0.333524256945 4.29937744141 -103.44921875
vertex 0.333339422941 4.24938964844 -103.44921875
endloop
endfacet
facet normal 0.0 0.0 1.0
outer loop
vertex 1.00055456161 4.29446411133 -103.44921875
vertex 0.333524256945 4.29937744141 -103.44921875
vertex 1.0 4.24444580078 -103.44921875
endloop
endfacet
facet normal 0.0 0.0 -1.0
outer loop
vertex -0.333524256945 -4.29937744141 -314.126434326
vertex -1.00055456161 -4.29446411133 -314.126434326
vertex -1.0 -4.24444580078 -314.126434326
endloop
endfacet
facet normal 0.0 0.0 -1.0
outer loop
vertex -0.333524256945 -4.29937744141 -314.126434326
vertex -1.0 -4.24444580078 -314.126434326
vertex -0.333339422941 -4.24938964844 -314.126434326
endloop
endfacet
facet normal 0.0 0.0 -1.0
outer loop
vertex 0.333524256945 -4.29937744141 -314.126434326
vertex -0.333339422941 -4.24938964844 -314.126434326
vertex 0.333339422941 -4.24938964844 -314.126434326
endloop
endfacet
facet normal 0.0 0.0 -1.0
outer loop
vertex 0.333524256945 -4.29937744141 -314.126434326
vertex -0.333524256945 -4.29937744141 -314.126434326
vertex -0.333339422941 -4.24938964844 -314.126434326
endloop
endfacet
facet normal 0.0 0.0 -1.0
outer loop
vertex 1.00055456161 -4.29446411133 -314.126434326
vertex 0.333339422941 -4.24938964844 -314.126434326
vertex 1.0 -4.24444580078 -314.126434326
endloop
endfacet
facet normal -0.0 0.0 -1.0
outer loop
vertex 1.00055456161 -4.29446411133 -314.126434326
vertex 0.333524256945 -4.29937744141 -314.126434326
vertex 0.333339422941 -4.24938964844 -314.126434326
endloop
endfacet
facet normal 0.999938607216 0.0110864909366 0.0
outer loop
vertex 1.00055456161 -4.29446411133 -314.126434326
vertex 1.0 -4.24444580078 -314.126434326
vertex 1.0 -4.24444580078 -205.796432495
endloop
endfacet
facet normal 0.999938607216 0.0110864909366 -0.0
outer loop
vertex 1.00055456161 -4.29446411133 -314.126434326
vertex 1.0 -4.24444580078 -205.796432495
vertex 1.00055456161 -4.29446411133 -205.796432495
endloop
endfacet
facet normal 0.0074156364426 0.999972522259 0.0
outer loop
vertex -1.0 -4.24444580078 -205.796432495
vertex -0.333339422941 -4.24938964844 -205.796432495
vertex -1.0 -4.24444580078 -314.126434326
endloop
endfacet
facet normal 0.0074156364426 0.999972522259 0.0
outer loop
vertex -1.0 -4.24444580078 -314.126434326
vertex -0.333339422941 -4.24938964844 -205.796432495
vertex -0.333339422941 -4.24938964844 -314.126434326
endloop
endfacet
facet normal 0.0 1.0 0.0
outer loop
vertex -0.333339422941 -4.24938964844 -314.126434326
vertex 0.333339422941 -4.24938964844 -205.796432495
vertex 0.333339422941 -4.24938964844 -314.126434326
endloop
endfacet
facet normal -0.0 1.0 0.0
outer loop
vertex -0.333339422941 -4.24938964844 -205.796432495
vertex 0.333339422941 -4.24938964844 -205.796432495
vertex -0.333339422941 -4.24938964844 -314.126434326
endloop
endfacet
facet normal -0.0074156364426 0.999972522259 0.0
outer loop
vertex 0.333339422941 -4.24938964844 -314.126434326
vertex 1.0 -4.24444580078 -205.796432495
vertex 1.0 -4.24444580078 -314.126434326
endloop
endfacet
facet normal -0.0074156364426 0.999972522259 0.0
outer loop
vertex 0.333339422941 -4.24938964844 -205.796432495
vertex 1.0 -4.24444580078 -205.796432495
vertex 0.333339422941 -4.24938964844 -314.126434326
endloop
endfacet
facet normal -0.999938607216 0.0110864909366 0.0
outer loop
vertex -1.0 -4.24444580078 -314.126434326
vertex -1.00055456161 -4.29446411133 -314.126434326
vertex -1.00055456161 -4.29446411133 -205.796432495
endloop
endfacet
facet normal -0.999938607216 0.0110864909366 0.0
outer loop
vertex -1.0 -4.24444580078 -314.126434326
vertex -1.00055456161 -4.29446411133 -205.796432495
vertex -1.0 -4.24444580078 -205.796432495
endloop
endfacet
facet normal -0.00736577715725 -0.999972879887 -0.0
outer loop
vertex -0.333524256945 -4.29937744141 -205.796432495
vertex -1.00055456161 -4.29446411133 -314.126434326
vertex -0.333524256945 -4.29937744141 -314.126434326
endloop
endfacet
facet normal -0.00736577715725 -0.999972879887 0.0
outer loop
vertex -0.333524256945 -4.29937744141 -205.796432495
vertex -1.00055456161 -4.29446411133 -205.796432495
vertex -1.00055456161 -4.29446411133 -314.126434326
endloop
endfacet
facet normal 0.0 -1.0 -0.0
outer loop
vertex 0.333524256945 -4.29937744141 -205.796432495
vertex -0.333524256945 -4.29937744141 -314.126434326
vertex 0.333524256945 -4.29937744141 -314.126434326
endloop
endfacet
facet normal -0.0 -1.0 0.0
outer loop
vertex 0.333524256945 -4.29937744141 -205.796432495
vertex -0.333524256945 -4.29937744141 -205.796432495
vertex -0.333524256945 -4.29937744141 -314.126434326
endloop
endfacet
facet normal 0.00736577715725 -0.999972879887 0.0
outer loop
vertex 1.00055456161 -4.29446411133 -205.796432495
vertex 0.333524256945 -4.29937744141 -314.126434326
vertex 1.00055456161 -4.29446411133 -314.126434326
endloop
endfacet
facet normal 0.00736577715725 -0.999972879887 0.0
outer loop
vertex 1.00055456161 -4.29446411133 -205.796432495
vertex 0.333524256945 -4.29937744141 -205.796432495
vertex 0.333524256945 -4.29937744141 -314.126434326
endloop
endfacet
facet normal -0.0 0.0 1.0
outer loop
vertex 0.333339422941 -4.24938964844 -205.796432495
vertex 1.00055456161 -4.29446411133 -205.796432495
vertex 1.0 -4.24444580078 -205.796432495
endloop
endfacet
facet normal 0.0 -0.0 1.0
outer loop
vertex 0.333524256945 -4.29937744141 -205.796432495
vertex 1.00055456161 -4.29446411133 -205.796432495
vertex 0.333339422941 -4.24938964844 -205.796432495
endloop
endfacet
facet normal -0.0 0.0 1.0
outer loop
vertex -0.333339422941 -4.24938964844 -205.796432495
vertex 0.333524256945 -4.29937744141 -205.796432495
vertex 0.333339422941 -4.24938964844 -205.796432495
endloop
endfacet
facet normal 0.0 0.0 1.0
outer loop
vertex -0.333524256945 -4.29937744141 -205.796432495
vertex 0.333524256945 -4.29937744141 -205.796432495
vertex -0.333339422941 -4.24938964844 -205.796432495
endloop
endfacet
facet normal 0.0 0.0 1.0
outer loop
vertex -1.0 -4.24444580078 -205.796432495
vertex -0.333524256945 -4.29937744141 -205.796432495
vertex -0.333339422941 -4.24938964844 -205.796432495
endloop
endfacet
facet normal -0.0 0.0 1.0
outer loop
vertex -1.00055456161 -4.29446411133 -205.796432495
vertex -0.333524256945 -4.29937744141 -205.796432495
vertex -1.0 -4.24444580078 -205.796432495
endloop
endfacet
facet normal 0.0 0.0 -1.0
outer loop
vertex 0.333524256945 4.29937744141 -426.67791748
vertex 1.00055456161 4.29446411133 -426.67791748
vertex 1.0 4.24444580078 -426.67791748
endloop
endfacet
facet normal 0.0 -0.0 -1.0
outer loop
vertex 0.333524256945 4.29937744141 -426.67791748
vertex 1.0 4.24444580078 -426.67791748
vertex 0.333339422941 4.24938964844 -426.67791748
endloop
endfacet
facet normal 0.0 0.0 -1.0
outer loop
vertex -0.333524256945 4.29937744141 -426.67791748
vertex 0.333339422941 4.24938964844 -426.67791748
vertex -0.333339422941 4.24938964844 -426.67791748
endloop
endfacet
facet normal 0.0 0.0 -1.0
outer loop
vertex -0.333524256945 4.29937744141 -426.67791748
vertex 0.333524256945 4.29937744141 -426.67791748
vertex 0.333339422941 4.24938964844 -426.67791748
endloop
endfacet
facet normal 0.0 0.0 -1.0
outer loop
vertex -1.00055456161 4.29446411133 -426.67791748
vertex -0.333339422941 4.24938964844 -426.67791748
vertex -1.0 4.24444580078 -426.67791748
endloop
endfacet
facet normal 0.0 0.0 -1.0
outer loop
vertex -1.00055456161 4.29446411133 -426.67791748
vertex -0.333524256945 4.29937744141 -426.67791748
vertex -0.333339422941 4.24938964844 -426.67791748
endloop
endfacet
facet normal -0.999938607216 -0.0110864918679 0.0
outer loop
vertex -1.00055456161 4.29446411133 -426.67791748
vertex -1.0 4.24444580078 -426.67791748
vertex -1.0 4.24444580078 -318.347900391
endloop
endfacet
facet normal -0.999938607216 -0.0110864918679 0.0
outer loop
vertex -1.00055456161 4.29446411133 -426.67791748
vertex -1.0 4.24444580078 -318.347900391
vertex -1.00055456161 4.29446411133 -318.347900391
endloop
endfacet
facet normal -0.0074156364426 -0.999972522259 -0.0
outer loop
vertex 1.0 4.24444580078 -318.347900391
vertex 0.333339422941 4.24938964844 -318.347900391
vertex 1.0 4.24444580078 -426.67791748
endloop
endfacet
facet normal -0.0074156364426 -0.999972522259 0.0
outer loop
vertex 1.0 4.24444580078 -426.67791748
vertex 0.333339422941 4.24938964844 -318.347900391
vertex 0.333339422941 4.24938964844 -426.67791748
endloop
endfacet
facet normal 0.0 -1.0 0.0
outer loop
vertex 0.333339422941 4.24938964844 -426.67791748
vertex -0.333339422941 4.24938964844 -318.347900391
vertex -0.333339422941 4.24938964844 -426.67791748
endloop
endfacet
facet normal -0.0 -1.0 -0.0
outer loop
vertex 0.333339422941 4.24938964844 -318.347900391
vertex -0.333339422941 4.24938964844 -318.347900391
vertex 0.333339422941 4.24938964844 -426.67791748
endloop
endfacet
facet normal 0.0074156364426 -0.999972522259 0.0
outer loop
vertex -0.333339422941 4.24938964844 -426.67791748
vertex -1.0 4.24444580078 -318.347900391
vertex -1.0 4.24444580078 -426.67791748
endloop
endfacet
facet normal 0.0074156364426 -0.999972522259 0.0
outer loop
vertex -0.333339422941 4.24938964844 -318.347900391
vertex -1.0 4.24444580078 -318.347900391
vertex -0.333339422941 4.24938964844 -426.67791748
endloop
endfacet
facet normal 0.999938607216 -0.0110864918679 0.0
outer loop
vertex 1.0 4.24444580078 -426.67791748
vertex 1.00055456161 4.29446411133 -426.67791748
vertex 1.00055456161 4.29446411133 -318.347900391
endloop
endfacet
facet normal 0.999938607216 -0.0110864918679 0.0
outer loop
vertex 1.0 4.24444580078 -426.67791748
vertex 1.00055456161 4.29446411133 -318.347900391
vertex 1.0 4.24444580078 -318.347900391
endloop
endfacet
facet normal 0.00736577715725 0.999972879887 0.0
outer loop
vertex 0.333524256945 4.29937744141 -318.347900391
vertex 1.00055456161 4.29446411133 -426.67791748
vertex 0.333524256945 4.29937744141 -426.67791748
endloop
endfacet
facet normal 0.00736577715725 0.999972879887 0.0
outer loop
vertex 0.333524256945 4.29937744141 -318.347900391
vertex 1.00055456161 4.29446411133 -318.347900391
vertex 1.00055456161 4.29446411133 -426.67791748
endloop
endfacet
facet normal 0.0 1.0 0.0
outer loop
vertex -0.333524256945 4.29937744141 -318.347900391
vertex 0.333524256945 4.29937744141 -426.67791748
vertex -0.333524256945 4.29937744141 -426.67791748
endloop
endfacet
facet normal -0.0 1.0 0.0
outer loop
vertex -0.333524256945 4.29937744141 -318.347900391
vertex 0.333524256945 4.29937744141 -318.347900391
vertex 0.333524256945 4.29937744141 -426.67791748
endloop
endfacet
facet normal -0.00736577715725 0.999972879887 0.0
outer loop
vertex -1.00055456161 4.29446411133 -318.347900391
vertex -0.333524256945 4.29937744141 -426.67791748
vertex -1.00055456161 4.29446411133 -426.67791748
endloop
endfacet
facet normal -0.00736577715725 0.999972879887 0.0
outer loop
vertex -1.00055456161 4.29446411133 -318.347900391
vertex -0.333524256945 4.29937744141 -318.347900391
vertex -0.333524256945 4.29937744141 -426.67791748
endloop
endfacet
facet normal 0.0 0.0 1.0
outer loop
vertex -0.333339422941 4.24938964844 -318.347900391
vertex -1.00055456161 4.29446411133 -318.347900391
vertex -1.0 4.24444580078 -318.347900391
endloop
endfacet
facet normal 0.0 0.0 1.0
outer loop
vertex -0.333524256945 4.29937744141 -318.347900391
vertex -1.00055456161 4.29446411133 -318.347900391
vertex -0.333339422941 4.24938964844 -318.347900391
endloop
endfacet
facet normal 0.0 0.0 1.0
outer loop
vertex 0.333339422941 4.24938964844 -318.347900391
vertex -0.333524256945 4.29937744141 -318.347900391
vertex -0.333339422941 4.24938964844 -318.347900391
endloop
endfacet
facet normal 0.0 0.0 1.0
outer loop
vertex 0.333524256945 4.29937744141 -318.347900391
vertex -0.333524256945 4.29937744141 -318.347900391
vertex 0.333339422941 4.24938964844 -318.347900391
endloop
endfacet
facet normal 0.0 0.0 1.0
outer loop
vertex 1.0 4.24444580078 -318.347900391
vertex 0.333524256945 4.29937744141 -318.347900391
vertex 0.333339422941 4.24938964844 -318.347900391
endloop
endfacet
facet normal 0.0 0.0 1.0
outer loop
vertex 1.00055456161 4.29446411133 -318.347900391
vertex 0.333524256945 4.29937744141 -318.347900391
vertex 1.0 4.24444580078 -318.347900391
endloop
endfacet
