solid 
facet normal 0.0 0.0 -1.0
outer loop
vertex -55.6650009155 4.25 0.0
vertex 58.6650009155 4.15000009537 0.0
vertex -55.6650009155 4.15000009537 0.0
endloop
endfacet
facet normal 0.0 0.0 -1.0
outer loop
vertex -55.6650009155 4.25 0.0
vertex 58.6650009155 4.25 0.0
vertex 58.6650009155 4.15000009537 0.0
endloop
endfacet
facet normal 1.0 0.0 0.0
outer loop
vertex 58.6650009155 2.24443912506 18.9113521576
vertex 58.6650009155 2.12614440918 19.4628067017
vertex 58.6650009155 2.02836871147 19.4418315887
endloop
endfacet
facet normal 1.0 0.0 0.0
outer loop
vertex 58.6650009155 2.24443912506 18.9113521576
vertex 58.6650009155 2.02836871147 19.4418315887
vertex 58.6650009155 2.14666342735 18.8903770447
endloop
endfacet
facet normal 1.0 0.0 0.0
outer loop
vertex 58.6650009155 2.96471953392 15.1697683334
vertex 58.6650009155 2.14666342735 18.8903770447
vertex 58.6650009155 2.86614489555 15.1529436111
endloop
endfacet
facet normal 1.0 0.0 0.0
outer loop
vertex 58.6650009155 2.96471953392 15.1697683334
vertex 58.6650009155 2.24443912506 18.9113521576
vertex 58.6650009155 2.14666342735 18.8903770447
endloop
endfacet
facet normal 1.0 0.0 0.0
outer loop
vertex 58.6650009155 3.52627587318 11.4010944366
vertex 58.6650009155 2.86614489555 15.1529436111
vertex 58.6650009155 3.42707848549 11.3884496689
endloop
endfacet
facet normal 1.0 0.0 0.0
outer loop
vertex 58.6650009155 3.52627587318 11.4010944366
vertex 58.6650009155 2.96471953392 15.1697683334
vertex 58.6650009155 2.86614489555 15.1529436111
endloop
endfacet
facet normal 1.0 0.0 0.0
outer loop
vertex 58.6650009155 3.92810535431 7.6120595932
vertex 58.6650009155 3.42707848549 11.3884496689
vertex 58.6650009155 3.82846236229 7.60361719131
endloop
endfacet
facet normal 1.0 0.0 0.0
outer loop
vertex 58.6650009155 3.92810535431 7.6120595932
vertex 58.6650009155 3.52627587318 11.4010944366
vertex 58.6650009155 3.42707848549 11.3884496689
endloop
endfacet
facet normal 1.0 0.0 0.0
outer loop
vertex 58.6650009155 4.16949033737 3.80943131447
vertex 58.6650009155 3.82846236229 7.60361719131
vertex 58.6650009155 4.06957960129 3.80520629883
endloop
endfacet
facet normal 1.0 0.0 0.0
outer loop
vertex 58.6650009155 4.16949033737 3.80943131447
vertex 58.6650009155 3.92810535431 7.6120595932
vertex 58.6650009155 3.82846236229 7.60361719131
endloop
endfacet
facet normal 1.0 0.0 0.0
outer loop
vertex 58.6650009155 4.25 0.0
vertex 58.6650009155 4.06957960129 3.80520629883
vertex 58.6650009155 4.15000009537 0.0
endloop
endfacet
facet normal 1.0 0.0 0.0
outer loop
vertex 58.6650009155 4.25 0.0
vertex 58.6650009155 4.16949033737 3.80943131447
vertex 58.6650009155 4.06957960129 3.80520629883
endloop
endfacet
facet normal -1.0 0.0 -0.0
outer loop
vertex -55.6650009155 2.12614440918 19.4628067017
vertex -55.6650009155 2.24443912506 18.9113521576
vertex -55.6650009155 2.02836871147 19.4418315887
endloop
endfacet
facet normal -1.0 0.0 0.0
outer loop
vertex -55.6650009155 2.02836871147 19.4418315887
vertex -55.6650009155 2.24443912506 18.9113521576
vertex -55.6650009155 2.14666342735 18.8903770447
endloop
endfacet
facet normal -1.0 0.0 0.0
outer loop
vertex -55.6650009155 2.14666342735 18.8903770447
vertex -55.6650009155 2.96471953392 15.1697683334
vertex -55.6650009155 2.86614489555 15.1529436111
endloop
endfacet
facet normal -1.0 0.0 -0.0
outer loop
vertex -55.6650009155 2.24443912506 18.9113521576
vertex -55.6650009155 2.96471953392 15.1697683334
vertex -55.6650009155 2.14666342735 18.8903770447
endloop
endfacet
facet normal -1.0 0.0 0.0
outer loop
vertex -55.6650009155 2.86614489555 15.1529436111
vertex -55.6650009155 3.52627587318 11.4010944366
vertex -55.6650009155 3.42707848549 11.3884496689
endloop
endfacet
facet normal -1.0 0.0 -0.0
outer loop
vertex -55.6650009155 2.96471953392 15.1697683334
vertex -55.6650009155 3.52627587318 11.4010944366
vertex -55.6650009155 2.86614489555 15.1529436111
endloop
endfacet
facet normal -1.0 0.0 0.0
outer loop
vertex -55.6650009155 3.42707848549 11.3884496689
vertex -55.6650009155 3.92810535431 7.6120595932
vertex -55.6650009155 3.82846236229 7.60361719131
endloop
endfacet
facet normal -1.0 0.0 -0.0
outer loop
vertex -55.6650009155 3.52627587318 11.4010944366
vertex -55.6650009155 3.92810535431 7.6120595932
vertex -55.6650009155 3.42707848549 11.3884496689
endloop
endfacet
facet normal -1.0 0.0 0.0
outer loop
vertex -55.6650009155 3.82846236229 7.60361719131
vertex -55.6650009155 4.16949033737 3.80943131447
vertex -55.6650009155 4.06957960129 3.80520629883
endloop
endfacet
facet normal -1.0 0.0 -0.0
outer loop
vertex -55.6650009155 3.92810535431 7.6120595932
vertex -55.6650009155 4.16949033737 3.80943131447
vertex -55.6650009155 3.82846236229 7.60361719131
endloop
endfacet
facet normal -1.0 0.0 0.0
outer loop
vertex -55.6650009155 4.06957960129 3.80520629883
vertex -55.6650009155 4.25 0.0
vertex -55.6650009155 4.15000009537 0.0
endloop
endfacet
facet normal -1.0 0.0 -0.0
outer loop
vertex -55.6650009155 4.16949033737 3.80943131447
vertex -55.6650009155 4.25 0.0
vertex -55.6650009155 4.06957960129 3.80520629883
endloop
endfacet
facet normal 0.0 0.999776721001 0.0211295820773
outer loop
vertex 58.6650009155 4.25 0.0
vertex -55.6650009155 4.25 0.0
vertex -55.6650009155 4.16949033737 3.80943131447
endloop
endfacet
facet normal 0.0 0.999776721001 0.0211295820773
outer loop
vertex 58.6650009155 4.16949033737 3.80943131447
vertex 58.6650009155 4.25 0.0
vertex -55.6650009155 4.16949033737 3.80943131447
endloop
endfacet
facet normal 0.0 0.997991263866 0.0633509531617
outer loop
vertex 58.6650009155 3.92810535431 7.6120595932
vertex -55.6650009155 4.16949033737 3.80943131447
vertex -55.6650009155 3.92810535431 7.6120595932
endloop
endfacet
facet normal 0.0 0.997991263866 0.0633509531617
outer loop
vertex 58.6650009155 3.92810535431 7.6120595932
vertex 58.6650009155 4.16949033737 3.80943131447
vertex -55.6650009155 4.16949033737 3.80943131447
endloop
endfacet
facet normal 0.0 0.981970191002 0.189035966992
outer loop
vertex -54.1650009155 2.24443912506 18.9113521576
vertex -55.6650009155 2.96471953392 15.1697683334
vertex -55.6650009155 2.24443912506 18.9113521576
endloop
endfacet
facet normal 0.0 0.994423627853 0.105459243059
outer loop
vertex 58.6650009155 3.52627587318 11.4010944366
vertex -55.6650009155 3.92810535431 7.6120595932
vertex -55.6650009155 3.52627587318 11.4010944366
endloop
endfacet
facet normal 0.0 0.994423627853 0.105459243059
outer loop
vertex 58.6650009155 3.52627587318 11.4010944366
vertex 58.6650009155 3.92810535431 7.6120595932
vertex -55.6650009155 3.92810535431 7.6120595932
endloop
endfacet
facet normal 0.0 0.989080071449 0.147379204631
outer loop
vertex 58.6650009155 2.96471953392 15.1697683334
vertex -55.6650009155 3.52627587318 11.4010944366
vertex -55.6650009155 2.96471953392 15.1697683334
endloop
endfacet
facet normal 0.0 0.989080071449 0.147379204631
outer loop
vertex 58.6650009155 2.96471953392 15.1697683334
vertex 58.6650009155 3.52627587318 11.4010944366
vertex -55.6650009155 3.52627587318 11.4010944366
endloop
endfacet
facet normal 0.0 0.981970131397 0.189035952091
outer loop
vertex 54.1650009155 2.24443912506 18.9113521576
vertex 58.6650009155 2.96471953392 15.1697683334
vertex -55.6650009155 2.96471953392 15.1697683334
endloop
endfacet
facet normal 0.0 0.981970191002 0.189035952091
outer loop
vertex 54.1650009155 2.24443912506 18.9113521576
vertex -55.6650009155 2.96471953392 15.1697683334
vertex -54.1650009155 2.24443912506 18.9113521576
endloop
endfacet
facet normal 0.0 0.981970250607 0.189035966992
outer loop
vertex 58.6650009155 2.24443912506 18.9113521576
vertex 58.6650009155 2.96471953392 15.1697683334
vertex 54.1650009155 2.24443912506 18.9113521576
endloop
endfacet
facet normal 0.0 0.977756679058 0.209742501378
outer loop
vertex 54.1650009155 2.12614440918 19.4628067017
vertex 54.1650009155 2.24443912506 18.9113521576
vertex -54.1650009155 2.12614440918 19.4628067017
endloop
endfacet
facet normal 0.0 0.977756679058 0.209742501378
outer loop
vertex -54.1650009155 2.12614440918 19.4628067017
vertex 54.1650009155 2.24443912506 18.9113521576
vertex -54.1650009155 2.24443912506 18.9113521576
endloop
endfacet
facet normal 0.0 -0.209750682116 0.977754890919
outer loop
vertex -55.6650009155 2.02836871147 19.4418315887
vertex -54.1650009155 2.12614440918 19.4628067017
vertex -55.6650009155 2.12614440918 19.4628067017
endloop
endfacet
facet normal 0.0 -0.209750697017 0.977754950523
outer loop
vertex 58.6650009155 2.02836871147 19.4418315887
vertex 58.6650009155 2.12614440918 19.4628067017
vertex 54.1650009155 2.12614440918 19.4628067017
endloop
endfacet
facet normal 0.0 -0.209750682116 0.977754890919
outer loop
vertex -55.6650009155 2.02836871147 19.4418315887
vertex 58.6650009155 2.02836871147 19.4418315887
vertex -54.1650009155 2.12614440918 19.4628067017
endloop
endfacet
facet normal 0.0 -0.209750667214 0.977754890919
outer loop
vertex -54.1650009155 2.12614440918 19.4628067017
vertex 58.6650009155 2.02836871147 19.4418315887
vertex 54.1650009155 2.12614440918 19.4628067017
endloop
endfacet
facet normal -0.0 -0.977756679058 -0.209742501378
outer loop
vertex 58.6650009155 2.02836871147 19.4418315887
vertex -55.6650009155 2.02836871147 19.4418315887
vertex -55.6650009155 2.14666342735 18.8903770447
endloop
endfacet
facet normal -0.0 -0.977756679058 -0.209742501378
outer loop
vertex 58.6650009155 2.14666342735 18.8903770447
vertex 58.6650009155 2.02836871147 19.4418315887
vertex -55.6650009155 2.14666342735 18.8903770447
endloop
endfacet
facet normal 0.0 -0.999776780605 -0.0211296137422
outer loop
vertex -55.6650009155 4.15000009537 0.0
vertex 58.6650009155 4.06957960129 3.80520629883
vertex -55.6650009155 4.06957960129 3.80520629883
endloop
endfacet
facet normal -0.0 -0.999776780605 -0.0211296137422
outer loop
vertex 58.6650009155 4.15000009537 0.0
vertex 58.6650009155 4.06957960129 3.80520629883
vertex -55.6650009155 4.15000009537 0.0
endloop
endfacet
facet normal 0.0 -0.994423687458 -0.105459265411
outer loop
vertex -55.6650009155 3.82846236229 7.60361719131
vertex 58.6650009155 3.82846236229 7.60361719131
vertex -55.6650009155 3.42707848549 11.3884496689
endloop
endfacet
facet normal 0.0 -0.997991263866 -0.0633509382606
outer loop
vertex -55.6650009155 4.06957960129 3.80520629883
vertex 58.6650009155 3.82846236229 7.60361719131
vertex -55.6650009155 3.82846236229 7.60361719131
endloop
endfacet
facet normal -0.0 -0.997991263866 -0.0633509382606
outer loop
vertex 58.6650009155 4.06957960129 3.80520629883
vertex 58.6650009155 3.82846236229 7.60361719131
vertex -55.6650009155 4.06957960129 3.80520629883
endloop
endfacet
facet normal 0.0 -0.994423687458 -0.105459265411
outer loop
vertex 58.6650009155 3.82846236229 7.60361719131
vertex 58.6650009155 3.42707848549 11.3884496689
vertex -55.6650009155 3.42707848549 11.3884496689
endloop
endfacet
facet normal 0.0 -0.989080071449 -0.147379234433
outer loop
vertex -55.6650009155 3.42707848549 11.3884496689
vertex 58.6650009155 2.86614489555 15.1529436111
vertex -55.6650009155 2.86614489555 15.1529436111
endloop
endfacet
facet normal -0.0 -0.989080071449 -0.147379234433
outer loop
vertex 58.6650009155 3.42707848549 11.3884496689
vertex 58.6650009155 2.86614489555 15.1529436111
vertex -55.6650009155 3.42707848549 11.3884496689
endloop
endfacet
facet normal 0.0 -0.981970191002 -0.189035966992
outer loop
vertex -55.6650009155 2.86614489555 15.1529436111
vertex 58.6650009155 2.14666342735 18.8903770447
vertex -55.6650009155 2.14666342735 18.8903770447
endloop
endfacet
facet normal -0.0 -0.981970191002 -0.189035966992
outer loop
vertex 58.6650009155 2.86614489555 15.1529436111
vertex 58.6650009155 2.14666342735 18.8903770447
vertex -55.6650009155 2.86614489555 15.1529436111
endloop
endfacet
facet normal 0.0 0.977756679058 0.209742486477
outer loop
vertex 58.6650009155 2.12614440918 19.4628067017
vertex 58.6650009155 2.24443912506 18.9113521576
vertex 54.1650009155 2.12614440918 19.4628067017
endloop
endfacet
facet normal 0.0 0.977756679058 0.209742486477
outer loop
vertex 54.1650009155 2.12614440918 19.4628067017
vertex 58.6650009155 2.24443912506 18.9113521576
vertex 54.1650009155 2.24443912506 18.9113521576
endloop
endfacet
facet normal 0.0 0.977756679058 0.209742486477
outer loop
vertex -55.6650009155 2.12614440918 19.4628067017
vertex -54.1650009155 2.24443912506 18.9113521576
vertex -55.6650009155 2.24443912506 18.9113521576
endloop
endfacet
facet normal 0.0 0.977756679058 0.209742486477
outer loop
vertex -54.1650009155 2.12614440918 19.4628067017
vertex -54.1650009155 2.24443912506 18.9113521576
vertex -55.6650009155 2.12614440918 19.4628067017
endloop
endfacet
