solid 
facet normal 1.0 0.0 -0.0
outer loop
vertex 54.1650009155 4.24938392639 0.333339422941
vertex 54.1650009155 4.29445123672 1.00055456161
vertex 54.1650009155 4.24445438385 1.0
endloop
endfacet
facet normal 1.0 0.0 0.0
outer loop
vertex 54.1650009155 4.29938364029 0.333524256945
vertex 54.1650009155 4.29445123672 1.00055456161
vertex 54.1650009155 4.24938392639 0.333339422941
endloop
endfacet
facet normal 1.0 0.0 0.0
outer loop
vertex 54.1650009155 4.29938364029 -0.333524256945
vertex 54.1650009155 4.24938392639 0.333339422941
vertex 54.1650009155 4.24938392639 -0.333339422941
endloop
endfacet
facet normal 1.0 0.0 -0.0
outer loop
vertex 54.1650009155 4.29938364029 -0.333524256945
vertex 54.1650009155 4.29938364029 0.333524256945
vertex 54.1650009155 4.24938392639 0.333339422941
endloop
endfacet
facet normal 1.0 0.0 0.0
outer loop
vertex 54.1650009155 4.29445123672 -1.00055456161
vertex 54.1650009155 4.24938392639 -0.333339422941
vertex 54.1650009155 4.24445438385 -1.0
endloop
endfacet
facet normal 1.0 0.0 -0.0
outer loop
vertex 54.1650009155 4.29445123672 -1.00055456161
vertex 54.1650009155 4.29938364029 -0.333524256945
vertex 54.1650009155 4.24938392639 -0.333339422941
endloop
endfacet
facet normal 0.0 -0.011091247201 -0.999938488007
outer loop
vertex 54.1650009155 4.29445123672 -1.00055456161
vertex 54.1650009155 4.24445438385 -1.0
vertex -54.1650009155 4.24445438385 -1.0
endloop
endfacet
facet normal -0.0 -0.011091247201 -0.999938488007
outer loop
vertex 54.1650009155 4.29445123672 -1.00055456161
vertex -54.1650009155 4.24445438385 -1.0
vertex -54.1650009155 4.29445123672 -1.00055456161
endloop
endfacet
facet normal -0.0 -0.999972641468 -0.00739417923614
outer loop
vertex 54.1650009155 4.24445438385 1.0
vertex -54.1650009155 4.24445438385 1.0
vertex 54.1650009155 4.24938392639 0.333339422941
endloop
endfacet
facet normal -0.0 -1.0 -0.0
outer loop
vertex 54.1650009155 4.24938392639 0.333339422941
vertex -54.1650009155 4.24938392639 0.333339422941
vertex 54.1650009155 4.24938392639 -0.333339422941
endloop
endfacet
facet normal 0.0 -0.999972641468 -0.00739417923614
outer loop
vertex -54.1650009155 4.24445438385 1.0
vertex -54.1650009155 4.24938392639 0.333339422941
vertex 54.1650009155 4.24938392639 0.333339422941
endloop
endfacet
facet normal 0.0 -1.0 0.0
outer loop
vertex -54.1650009155 4.24938392639 0.333339422941
vertex -54.1650009155 4.24938392639 -0.333339422941
vertex 54.1650009155 4.24938392639 -0.333339422941
endloop
endfacet
facet normal 0.0 -0.999972641468 0.00739417923614
outer loop
vertex 54.1650009155 4.24938392639 -0.333339422941
vertex -54.1650009155 4.24445438385 -1.0
vertex 54.1650009155 4.24445438385 -1.0
endloop
endfacet
facet normal 0.0 -0.999972641468 0.00739417923614
outer loop
vertex -54.1650009155 4.24938392639 -0.333339422941
vertex -54.1650009155 4.24445438385 -1.0
vertex 54.1650009155 4.24938392639 -0.333339422941
endloop
endfacet
facet normal 0.0 -0.011091247201 0.999938488007
outer loop
vertex 54.1650009155 4.24445438385 1.0
vertex 54.1650009155 4.29445123672 1.00055456161
vertex -54.1650009155 4.29445123672 1.00055456161
endloop
endfacet
facet normal 0.0 -0.011091247201 0.999938488007
outer loop
vertex 54.1650009155 4.24445438385 1.0
vertex -54.1650009155 4.29445123672 1.00055456161
vertex -54.1650009155 4.24445438385 1.0
endloop
endfacet
facet normal -0.0 1.0 0.0
outer loop
vertex -54.1650009155 4.29938364029 0.333524256945
vertex 54.1650009155 4.29938364029 0.333524256945
vertex 54.1650009155 4.29938364029 -0.333524256945
endloop
endfacet
facet normal -0.0 0.999972641468 0.00739436876029
outer loop
vertex -54.1650009155 4.29938364029 0.333524256945
vertex 54.1650009155 4.29445123672 1.00055456161
vertex 54.1650009155 4.29938364029 0.333524256945
endloop
endfacet
facet normal 0.0 0.999972641468 0.00739436876029
outer loop
vertex -54.1650009155 4.29938364029 0.333524256945
vertex -54.1650009155 4.29445123672 1.00055456161
vertex 54.1650009155 4.29445123672 1.00055456161
endloop
endfacet
facet normal 0.0 1.0 0.0
outer loop
vertex -54.1650009155 4.29938364029 -0.333524256945
vertex -54.1650009155 4.29938364029 0.333524256945
vertex 54.1650009155 4.29938364029 -0.333524256945
endloop
endfacet
facet normal 0.0 0.999972641468 -0.00739436876029
outer loop
vertex -54.1650009155 4.29445123672 -1.00055456161
vertex 54.1650009155 4.29938364029 -0.333524256945
vertex 54.1650009155 4.29445123672 -1.00055456161
endloop
endfacet
facet normal 0.0 0.999972641468 -0.00739436876029
outer loop
vertex -54.1650009155 4.29445123672 -1.00055456161
vertex -54.1650009155 4.29938364029 -0.333524256945
vertex 54.1650009155 4.29938364029 -0.333524256945
endloop
endfacet
facet normal -1.0 0.0 -0.0
outer loop
vertex -54.1650009155 4.24938392639 -0.333339422941
vertex -54.1650009155 4.29445123672 -1.00055456161
vertex -54.1650009155 4.24445438385 -1.0
endloop
endfacet
facet normal -1.0 -0.0 0.0
outer loop
vertex -54.1650009155 4.29938364029 -0.333524256945
vertex -54.1650009155 4.29445123672 -1.00055456161
vertex -54.1650009155 4.24938392639 -0.333339422941
endloop
endfacet
facet normal -1.0 0.0 0.0
outer loop
vertex -54.1650009155 4.24938392639 0.333339422941
vertex -54.1650009155 4.29938364029 -0.333524256945
vertex -54.1650009155 4.24938392639 -0.333339422941
endloop
endfacet
facet normal -1.0 0.0 -0.0
outer loop
vertex -54.1650009155 4.29938364029 0.333524256945
vertex -54.1650009155 4.29938364029 -0.333524256945
vertex -54.1650009155 4.24938392639 0.333339422941
endloop
endfacet
facet normal -1.0 0.0 0.0
outer loop
vertex -54.1650009155 4.29445123672 1.00055456161
vertex -54.1650009155 4.24938392639 0.333339422941
vertex -54.1650009155 4.24445438385 1.0
endloop
endfacet
facet normal -1.0 0.0 -0.0
outer loop
vertex -54.1650009155 4.29445123672 1.00055456161
vertex -54.1650009155 4.29938364029 0.333524256945
vertex -54.1650009155 4.24938392639 0.333339422941
endloop
endfacet
