solid 
facet normal 0.0 0.0 -1.0
outer loop
vertex -55.6650009155 4.25 0.0
vertex -54.1650009155 4.25 0.0
vertex -55.6650009155 4.15000009537 0.0
endloop
endfacet
facet normal 0.0 -0.0 -1.0
outer loop
vertex -54.1650009155 4.25 0.0
vertex 54.1650009155 4.25 0.0
vertex -55.6650009155 4.15000009537 0.0
endloop
endfacet
facet normal 0.0 -0.0 -1.0
outer loop
vertex 54.1650009155 4.25 0.0
vertex 58.6650009155 4.15000009537 0.0
vertex -55.6650009155 4.15000009537 0.0
endloop
endfacet
facet normal 0.0 0.0 -1.0
outer loop
vertex 54.1650009155 4.25 0.0
vertex 58.6650009155 4.25 0.0
vertex 58.6650009155 4.15000009537 0.0
endloop
endfacet
facet normal 1.0 0.0 0.0
outer loop
vertex 58.6650009155 2.14666342735 18.8903770447
vertex 58.6650009155 2.12614440918 19.4628067017
vertex 58.6650009155 2.02836871147 19.4418315887
endloop
endfacet
facet normal 1.0 0.0 0.0
outer loop
vertex 58.6650009155 2.24443912506 18.9113521576
vertex 58.6650009155 2.12614440918 19.4628067017
vertex 58.6650009155 2.14666342735 18.8903770447
endloop
endfacet
facet normal 1.0 0.0 0.0
outer loop
vertex 58.6650009155 3.12003302574 14.2298774719
vertex 58.6650009155 2.14666342735 18.8903770447
vertex 58.6650009155 3.02128624916 14.2140951157
endloop
endfacet
facet normal 1.0 0.0 0.0
outer loop
vertex 58.6650009155 3.12003302574 14.2298774719
vertex 58.6650009155 2.24443912506 18.9113521576
vertex 58.6650009155 2.14666342735 18.8903770447
endloop
endfacet
facet normal 1.0 0.0 0.0
outer loop
vertex 58.6650009155 3.74720788002 9.50869941711
vertex 58.6650009155 3.02128624916 14.2140951157
vertex 58.6650009155 3.64776563644 9.49815368652
endloop
endfacet
facet normal 1.0 0.0 0.0
outer loop
vertex 58.6650009155 3.74720788002 9.50869941711
vertex 58.6650009155 3.12003302574 14.2298774719
vertex 58.6650009155 3.02128624916 14.2140951157
endloop
endfacet
facet normal 1.0 0.0 0.0
outer loop
vertex 58.6650009155 4.12421417236 4.76099157333
vertex 58.6650009155 3.64776563644 9.49815368652
vertex 58.6650009155 4.02435398102 4.75571155548
endloop
endfacet
facet normal 1.0 0.0 0.0
outer loop
vertex 58.6650009155 4.12421417236 4.76099157333
vertex 58.6650009155 3.74720788002 9.50869941711
vertex 58.6650009155 3.64776563644 9.49815368652
endloop
endfacet
facet normal 1.0 0.0 0.0
outer loop
vertex 58.6650009155 4.25 0.0
vertex 58.6650009155 4.02435398102 4.75571155548
vertex 58.6650009155 4.15000009537 0.0
endloop
endfacet
facet normal 1.0 0.0 0.0
outer loop
vertex 58.6650009155 4.25 0.0
vertex 58.6650009155 4.12421417236 4.76099157333
vertex 58.6650009155 4.02435398102 4.75571155548
endloop
endfacet
facet normal -1.0 0.0 -0.0
outer loop
vertex -55.6650009155 2.12614440918 19.4628067017
vertex -55.6650009155 2.24443912506 18.9113521576
vertex -55.6650009155 2.02836871147 19.4418315887
endloop
endfacet
facet normal -1.0 0.0 0.0
outer loop
vertex -55.6650009155 2.02836871147 19.4418315887
vertex -55.6650009155 2.24443912506 18.9113521576
vertex -55.6650009155 2.14666342735 18.8903770447
endloop
endfacet
facet normal -1.0 0.0 0.0
outer loop
vertex -55.6650009155 2.14666342735 18.8903770447
vertex -55.6650009155 3.12003302574 14.2298774719
vertex -55.6650009155 3.02128624916 14.2140951157
endloop
endfacet
facet normal -1.0 0.0 -0.0
outer loop
vertex -55.6650009155 2.24443912506 18.9113521576
vertex -55.6650009155 3.12003302574 14.2298774719
vertex -55.6650009155 2.14666342735 18.8903770447
endloop
endfacet
facet normal -1.0 0.0 0.0
outer loop
vertex -55.6650009155 3.02128624916 14.2140951157
vertex -55.6650009155 3.74720788002 9.50869941711
vertex -55.6650009155 3.64776563644 9.49815368652
endloop
endfacet
facet normal -1.0 0.0 -0.0
outer loop
vertex -55.6650009155 3.12003302574 14.2298774719
vertex -55.6650009155 3.74720788002 9.50869941711
vertex -55.6650009155 3.02128624916 14.2140951157
endloop
endfacet
facet normal -1.0 0.0 -0.0
outer loop
vertex -55.6650009155 3.74720788002 9.50869941711
vertex -55.6650009155 4.02435398102 4.75571155548
vertex -55.6650009155 3.64776563644 9.49815368652
endloop
endfacet
facet normal -1.0 0.0 0.0
outer loop
vertex -55.6650009155 3.74720788002 9.50869941711
vertex -55.6650009155 4.12421417236 4.76099157333
vertex -55.6650009155 4.02435398102 4.75571155548
endloop
endfacet
facet normal -1.0 0.0 -0.0
outer loop
vertex -55.6650009155 4.12421417236 4.76099157333
vertex -55.6650009155 4.15000009537 0.0
vertex -55.6650009155 4.02435398102 4.75571155548
endloop
endfacet
facet normal -1.0 0.0 0.0
outer loop
vertex -55.6650009155 4.12421417236 4.76099157333
vertex -55.6650009155 4.25 0.0
vertex -55.6650009155 4.15000009537 0.0
endloop
endfacet
facet normal 0.0 0.999651134014 0.0264108721167
outer loop
vertex 54.1650009155 4.25 0.0
vertex -54.1650009155 4.25 0.0
vertex -54.1650009155 4.12421417236 4.76099157333
endloop
endfacet
facet normal 0.0 0.996861994267 0.0791588798165
outer loop
vertex 54.1650009155 4.12421417236 4.76099157333
vertex -54.1650009155 4.12421417236 4.76099157333
vertex -54.1650009155 3.74720788002 9.50869941711
endloop
endfacet
facet normal 0.0 0.999651134014 0.0264108721167
outer loop
vertex 54.1650009155 4.12421417236 4.76099157333
vertex 54.1650009155 4.25 0.0
vertex -54.1650009155 4.12421417236 4.76099157333
endloop
endfacet
facet normal 0.0 0.996861994267 0.0791588798165
outer loop
vertex 54.1650009155 3.74720788002 9.50869941711
vertex 54.1650009155 4.12421417236 4.76099157333
vertex -54.1650009155 3.74720788002 9.50869941711
endloop
endfacet
facet normal 0.0 0.991291463375 0.131686016917
outer loop
vertex 54.1650009155 3.12003302574 14.2298774719
vertex -54.1650009155 3.74720788002 9.50869941711
vertex -54.1650009155 3.12003302574 14.2298774719
endloop
endfacet
facet normal 0.0 0.991291463375 0.131686016917
outer loop
vertex 54.1650009155 3.12003302574 14.2298774719
vertex 54.1650009155 3.74720788002 9.50869941711
vertex -54.1650009155 3.74720788002 9.50869941711
endloop
endfacet
facet normal 0.0 0.982955098152 0.183845803142
outer loop
vertex 54.1650009155 2.24443912506 18.9113521576
vertex -54.1650009155 3.12003302574 14.2298774719
vertex -54.1650009155 2.24443912506 18.9113521576
endloop
endfacet
facet normal 0.0 0.982955098152 0.183845803142
outer loop
vertex 54.1650009155 2.24443912506 18.9113521576
vertex 54.1650009155 3.12003302574 14.2298774719
vertex -54.1650009155 3.12003302574 14.2298774719
endloop
endfacet
facet normal 0.0 0.977756679058 0.209742501378
outer loop
vertex 54.1650009155 2.12614440918 19.4628067017
vertex 54.1650009155 2.24443912506 18.9113521576
vertex -54.1650009155 2.12614440918 19.4628067017
endloop
endfacet
facet normal 0.0 0.977756679058 0.209742501378
outer loop
vertex -54.1650009155 2.12614440918 19.4628067017
vertex 54.1650009155 2.24443912506 18.9113521576
vertex -54.1650009155 2.24443912506 18.9113521576
endloop
endfacet
facet normal 0.0 -0.209750682116 0.977754890919
outer loop
vertex -55.6650009155 2.02836871147 19.4418315887
vertex -54.1650009155 2.12614440918 19.4628067017
vertex -55.6650009155 2.12614440918 19.4628067017
endloop
endfacet
facet normal 0.0 -0.209750697017 0.977754950523
outer loop
vertex 58.6650009155 2.02836871147 19.4418315887
vertex 58.6650009155 2.12614440918 19.4628067017
vertex 54.1650009155 2.12614440918 19.4628067017
endloop
endfacet
facet normal 0.0 -0.209750682116 0.977754890919
outer loop
vertex -55.6650009155 2.02836871147 19.4418315887
vertex 58.6650009155 2.02836871147 19.4418315887
vertex -54.1650009155 2.12614440918 19.4628067017
endloop
endfacet
facet normal 0.0 -0.209750667214 0.977754890919
outer loop
vertex -54.1650009155 2.12614440918 19.4628067017
vertex 58.6650009155 2.02836871147 19.4418315887
vertex 54.1650009155 2.12614440918 19.4628067017
endloop
endfacet
facet normal 0.0 -0.977756679058 -0.209742501378
outer loop
vertex 58.6650009155 2.14666342735 18.8903770447
vertex 58.6650009155 2.02836871147 19.4418315887
vertex -55.6650009155 2.02836871147 19.4418315887
endloop
endfacet
facet normal -0.0 -0.977756679058 -0.209742501378
outer loop
vertex 58.6650009155 2.14666342735 18.8903770447
vertex -55.6650009155 2.02836871147 19.4418315887
vertex -55.6650009155 2.14666342735 18.8903770447
endloop
endfacet
facet normal 0.0 -0.999651253223 -0.0264108311385
outer loop
vertex -55.6650009155 4.15000009537 0.0
vertex 58.6650009155 4.02435398102 4.75571155548
vertex -55.6650009155 4.02435398102 4.75571155548
endloop
endfacet
facet normal -0.0 -0.999651253223 -0.0264108311385
outer loop
vertex 58.6650009155 4.15000009537 0.0
vertex 58.6650009155 4.02435398102 4.75571155548
vertex -55.6650009155 4.15000009537 0.0
endloop
endfacet
facet normal 0.0 -0.996861994267 -0.07915892452
outer loop
vertex -55.6650009155 4.02435398102 4.75571155548
vertex 58.6650009155 3.64776563644 9.49815368652
vertex -55.6650009155 3.64776563644 9.49815368652
endloop
endfacet
facet normal -0.0 -0.996861994267 -0.07915892452
outer loop
vertex 58.6650009155 4.02435398102 4.75571155548
vertex 58.6650009155 3.64776563644 9.49815368652
vertex -55.6650009155 4.02435398102 4.75571155548
endloop
endfacet
facet normal 0.0 -0.982955157757 -0.183845832944
outer loop
vertex -55.6650009155 3.02128624916 14.2140951157
vertex 58.6650009155 3.02128624916 14.2140951157
vertex -55.6650009155 2.14666342735 18.8903770447
endloop
endfacet
facet normal 0.0 -0.99129152298 -0.13168604672
outer loop
vertex -55.6650009155 3.64776563644 9.49815368652
vertex 58.6650009155 3.02128624916 14.2140951157
vertex -55.6650009155 3.02128624916 14.2140951157
endloop
endfacet
facet normal -0.0 -0.99129152298 -0.13168604672
outer loop
vertex 58.6650009155 3.64776563644 9.49815368652
vertex 58.6650009155 3.02128624916 14.2140951157
vertex -55.6650009155 3.64776563644 9.49815368652
endloop
endfacet
facet normal 0.0 -0.982955157757 -0.183845832944
outer loop
vertex 58.6650009155 3.02128624916 14.2140951157
vertex 58.6650009155 2.14666342735 18.8903770447
vertex -55.6650009155 2.14666342735 18.8903770447
endloop
endfacet
facet normal 0.0 0.999651134014 0.0264108739793
outer loop
vertex 58.6650009155 4.12421417236 4.76099157333
vertex 58.6650009155 4.25 0.0
vertex 54.1650009155 4.25 0.0
endloop
endfacet
facet normal 0.0 0.999651134014 0.0264108739793
outer loop
vertex 58.6650009155 4.12421417236 4.76099157333
vertex 54.1650009155 4.25 0.0
vertex 54.1650009155 4.12421417236 4.76099157333
endloop
endfacet
facet normal 0.0 0.996861994267 0.0791588872671
outer loop
vertex 58.6650009155 3.74720788002 9.50869941711
vertex 54.1650009155 4.12421417236 4.76099157333
vertex 54.1650009155 3.74720788002 9.50869941711
endloop
endfacet
facet normal 0.0 0.99129152298 0.131686016917
outer loop
vertex 58.6650009155 3.74720788002 9.50869941711
vertex 54.1650009155 3.74720788002 9.50869941711
vertex 54.1650009155 3.12003302574 14.2298774719
endloop
endfacet
facet normal 0.0 0.996861994267 0.0791588872671
outer loop
vertex 58.6650009155 3.74720788002 9.50869941711
vertex 58.6650009155 4.12421417236 4.76099157333
vertex 54.1650009155 4.12421417236 4.76099157333
endloop
endfacet
facet normal 0.0 0.982955098152 0.183845818043
outer loop
vertex 58.6650009155 3.12003302574 14.2298774719
vertex 54.1650009155 3.12003302574 14.2298774719
vertex 54.1650009155 2.24443912506 18.9113521576
endloop
endfacet
facet normal 0.0 0.99129152298 0.131686016917
outer loop
vertex 58.6650009155 3.12003302574 14.2298774719
vertex 58.6650009155 3.74720788002 9.50869941711
vertex 54.1650009155 3.12003302574 14.2298774719
endloop
endfacet
facet normal 0.0 0.982955098152 0.183845818043
outer loop
vertex 58.6650009155 2.24443912506 18.9113521576
vertex 58.6650009155 3.12003302574 14.2298774719
vertex 54.1650009155 2.24443912506 18.9113521576
endloop
endfacet
facet normal 0.0 0.977756679058 0.209742486477
outer loop
vertex 58.6650009155 2.12614440918 19.4628067017
vertex 58.6650009155 2.24443912506 18.9113521576
vertex 54.1650009155 2.12614440918 19.4628067017
endloop
endfacet
facet normal 0.0 0.977756679058 0.209742486477
outer loop
vertex 54.1650009155 2.12614440918 19.4628067017
vertex 58.6650009155 2.24443912506 18.9113521576
vertex 54.1650009155 2.24443912506 18.9113521576
endloop
endfacet
facet normal 0.0 0.999651193619 0.026410875842
outer loop
vertex -54.1650009155 4.25 0.0
vertex -55.6650009155 4.25 0.0
vertex -55.6650009155 4.12421417236 4.76099157333
endloop
endfacet
facet normal 0.0 0.996862053871 0.0791588798165
outer loop
vertex -54.1650009155 4.12421417236 4.76099157333
vertex -55.6650009155 4.12421417236 4.76099157333
vertex -55.6650009155 3.74720788002 9.50869941711
endloop
endfacet
facet normal 0.0 0.999651193619 0.026410875842
outer loop
vertex -54.1650009155 4.12421417236 4.76099157333
vertex -54.1650009155 4.25 0.0
vertex -55.6650009155 4.12421417236 4.76099157333
endloop
endfacet
facet normal 0.0 0.996862053871 0.0791588798165
outer loop
vertex -54.1650009155 3.74720788002 9.50869941711
vertex -54.1650009155 4.12421417236 4.76099157333
vertex -55.6650009155 3.74720788002 9.50869941711
endloop
endfacet
facet normal 0.0 0.991291463375 0.131686002016
outer loop
vertex -54.1650009155 3.12003302574 14.2298774719
vertex -55.6650009155 3.74720788002 9.50869941711
vertex -55.6650009155 3.12003302574 14.2298774719
endloop
endfacet
facet normal 0.0 0.991291463375 0.131686002016
outer loop
vertex -54.1650009155 3.12003302574 14.2298774719
vertex -54.1650009155 3.74720788002 9.50869941711
vertex -55.6650009155 3.74720788002 9.50869941711
endloop
endfacet
facet normal 0.0 0.982955098152 0.183845803142
outer loop
vertex -54.1650009155 2.24443912506 18.9113521576
vertex -55.6650009155 3.12003302574 14.2298774719
vertex -55.6650009155 2.24443912506 18.9113521576
endloop
endfacet
facet normal 0.0 0.982955098152 0.183845803142
outer loop
vertex -54.1650009155 2.24443912506 18.9113521576
vertex -54.1650009155 3.12003302574 14.2298774719
vertex -55.6650009155 3.12003302574 14.2298774719
endloop
endfacet
facet normal 0.0 0.977756679058 0.209742486477
outer loop
vertex -55.6650009155 2.12614440918 19.4628067017
vertex -54.1650009155 2.24443912506 18.9113521576
vertex -55.6650009155 2.24443912506 18.9113521576
endloop
endfacet
facet normal 0.0 0.977756679058 0.209742486477
outer loop
vertex -54.1650009155 2.12614440918 19.4628067017
vertex -54.1650009155 2.24443912506 18.9113521576
vertex -55.6650009155 2.12614440918 19.4628067017
endloop
endfacet
facet normal 0.0 0.977756679058 -0.209742501378
outer loop
vertex 54.1650009155 2.24443912506 -18.9113521576
vertex 54.1650009155 2.12614440918 -19.4628067017
vertex -54.1650009155 2.24443912506 -18.9113521576
endloop
endfacet
facet normal 0.0 0.977756679058 -0.209742501378
outer loop
vertex -54.1650009155 2.24443912506 -18.9113521576
vertex 54.1650009155 2.12614440918 -19.4628067017
vertex -54.1650009155 2.12614440918 -19.4628067017
endloop
endfacet
facet normal 0.0 0.977756679058 -0.209742486477
outer loop
vertex 58.6650009155 2.24443912506 -18.9113521576
vertex 58.6650009155 2.12614440918 -19.4628067017
vertex 54.1650009155 2.24443912506 -18.9113521576
endloop
endfacet
facet normal 0.0 0.977756679058 -0.209742486477
outer loop
vertex 54.1650009155 2.24443912506 -18.9113521576
vertex 58.6650009155 2.12614440918 -19.4628067017
vertex 54.1650009155 2.12614440918 -19.4628067017
endloop
endfacet
facet normal 0.0 -0.209750682116 -0.977754890919
outer loop
vertex -55.6650009155 2.12614440918 -19.4628067017
vertex -54.1650009155 2.12614440918 -19.4628067017
vertex -55.6650009155 2.02836871147 -19.4418315887
endloop
endfacet
facet normal -0.0 -0.209750697017 -0.977754950523
outer loop
vertex 58.6650009155 2.12614440918 -19.4628067017
vertex 58.6650009155 2.02836871147 -19.4418315887
vertex 54.1650009155 2.12614440918 -19.4628067017
endloop
endfacet
facet normal -0.0 -0.209750682116 -0.977754890919
outer loop
vertex 58.6650009155 2.02836871147 -19.4418315887
vertex -55.6650009155 2.02836871147 -19.4418315887
vertex -54.1650009155 2.12614440918 -19.4628067017
endloop
endfacet
facet normal 0.0 -0.209750697017 -0.977754950523
outer loop
vertex 58.6650009155 2.02836871147 -19.4418315887
vertex -54.1650009155 2.12614440918 -19.4628067017
vertex 54.1650009155 2.12614440918 -19.4628067017
endloop
endfacet
facet normal 0.0 -0.977756679058 0.209742501378
outer loop
vertex 58.6650009155 2.02836871147 -19.4418315887
vertex 58.6650009155 2.14666342735 -18.8903770447
vertex -55.6650009155 2.14666342735 -18.8903770447
endloop
endfacet
facet normal 0.0 -0.977756679058 0.209742501378
outer loop
vertex 58.6650009155 2.02836871147 -19.4418315887
vertex -55.6650009155 2.14666342735 -18.8903770447
vertex -55.6650009155 2.02836871147 -19.4418315887
endloop
endfacet
facet normal 0.0 -0.982955157757 0.183845832944
outer loop
vertex 58.6650009155 2.14666342735 -18.8903770447
vertex 58.6650009155 3.02128624916 -14.2140951157
vertex -55.6650009155 2.14666342735 -18.8903770447
endloop
endfacet
facet normal 0.0 -0.982955157757 0.183845832944
outer loop
vertex -55.6650009155 2.14666342735 -18.8903770447
vertex 58.6650009155 3.02128624916 -14.2140951157
vertex -55.6650009155 3.02128624916 -14.2140951157
endloop
endfacet
facet normal 0.0 -0.996861994267 0.07915892452
outer loop
vertex -55.6650009155 3.64776563644 -9.49815368652
vertex 58.6650009155 3.64776563644 -9.49815368652
vertex -55.6650009155 4.02435398102 -4.75571155548
endloop
endfacet
facet normal 0.0 -0.99129152298 0.13168604672
outer loop
vertex -55.6650009155 3.02128624916 -14.2140951157
vertex 58.6650009155 3.64776563644 -9.49815368652
vertex -55.6650009155 3.64776563644 -9.49815368652
endloop
endfacet
facet normal 0.0 -0.99129152298 0.13168604672
outer loop
vertex 58.6650009155 3.02128624916 -14.2140951157
vertex 58.6650009155 3.64776563644 -9.49815368652
vertex -55.6650009155 3.02128624916 -14.2140951157
endloop
endfacet
facet normal 0.0 -0.996861994267 0.07915892452
outer loop
vertex 58.6650009155 3.64776563644 -9.49815368652
vertex 58.6650009155 4.02435398102 -4.75571155548
vertex -55.6650009155 4.02435398102 -4.75571155548
endloop
endfacet
facet normal 0.0 -0.999651253223 0.0264108311385
outer loop
vertex -55.6650009155 4.02435398102 -4.75571155548
vertex 58.6650009155 4.15000009537 0.0
vertex -55.6650009155 4.15000009537 0.0
endloop
endfacet
facet normal 0.0 -0.999651253223 0.0264108311385
outer loop
vertex 58.6650009155 4.02435398102 -4.75571155548
vertex 58.6650009155 4.15000009537 0.0
vertex -55.6650009155 4.02435398102 -4.75571155548
endloop
endfacet
facet normal 0.0 0.982955098152 -0.183845818043
outer loop
vertex 58.6650009155 3.12003302574 -14.2298774719
vertex 58.6650009155 2.24443912506 -18.9113521576
vertex 54.1650009155 2.24443912506 -18.9113521576
endloop
endfacet
facet normal 0.0 0.982955098152 -0.183845818043
outer loop
vertex 58.6650009155 3.12003302574 -14.2298774719
vertex 54.1650009155 2.24443912506 -18.9113521576
vertex 54.1650009155 3.12003302574 -14.2298774719
endloop
endfacet
facet normal 0.0 0.99129152298 -0.131686016917
outer loop
vertex 58.6650009155 3.12003302574 -14.2298774719
vertex 54.1650009155 3.12003302574 -14.2298774719
vertex 54.1650009155 3.74720788002 -9.50869941711
endloop
endfacet
facet normal 0.0 0.996861994267 -0.0791588872671
outer loop
vertex 58.6650009155 3.74720788002 -9.50869941711
vertex 54.1650009155 3.74720788002 -9.50869941711
vertex 54.1650009155 4.12421417236 -4.76099157333
endloop
endfacet
facet normal 0.0 0.99129152298 -0.131686016917
outer loop
vertex 58.6650009155 3.74720788002 -9.50869941711
vertex 58.6650009155 3.12003302574 -14.2298774719
vertex 54.1650009155 3.74720788002 -9.50869941711
endloop
endfacet
facet normal 0.0 0.996861994267 -0.0791588872671
outer loop
vertex 58.6650009155 4.12421417236 -4.76099157333
vertex 58.6650009155 3.74720788002 -9.50869941711
vertex 54.1650009155 4.12421417236 -4.76099157333
endloop
endfacet
facet normal 0.0 0.999651134014 -0.0264108739793
outer loop
vertex 58.6650009155 4.25 0.0
vertex 54.1650009155 4.12421417236 -4.76099157333
vertex 54.1650009155 4.25 0.0
endloop
endfacet
facet normal 0.0 0.999651134014 -0.0264108739793
outer loop
vertex 58.6650009155 4.25 0.0
vertex 58.6650009155 4.12421417236 -4.76099157333
vertex 54.1650009155 4.12421417236 -4.76099157333
endloop
endfacet
facet normal 1.0 0.0 0.0
outer loop
vertex 58.6650009155 4.12421417236 -4.76099157333
vertex 58.6650009155 4.25 0.0
vertex 58.6650009155 4.15000009537 0.0
endloop
endfacet
facet normal 1.0 0.0 -0.0
outer loop
vertex 58.6650009155 4.12421417236 -4.76099157333
vertex 58.6650009155 4.15000009537 0.0
vertex 58.6650009155 4.02435398102 -4.75571155548
endloop
endfacet
facet normal 1.0 0.0 -0.0
outer loop
vertex 58.6650009155 3.74720788002 -9.50869941711
vertex 58.6650009155 4.02435398102 -4.75571155548
vertex 58.6650009155 3.64776563644 -9.49815368652
endloop
endfacet
facet normal 1.0 0.0 0.0
outer loop
vertex 58.6650009155 3.74720788002 -9.50869941711
vertex 58.6650009155 4.12421417236 -4.76099157333
vertex 58.6650009155 4.02435398102 -4.75571155548
endloop
endfacet
facet normal 1.0 0.0 -0.0
outer loop
vertex 58.6650009155 3.12003302574 -14.2298774719
vertex 58.6650009155 3.64776563644 -9.49815368652
vertex 58.6650009155 3.02128624916 -14.2140951157
endloop
endfacet
facet normal 1.0 0.0 0.0
outer loop
vertex 58.6650009155 3.12003302574 -14.2298774719
vertex 58.6650009155 3.74720788002 -9.50869941711
vertex 58.6650009155 3.64776563644 -9.49815368652
endloop
endfacet
facet normal 1.0 0.0 -0.0
outer loop
vertex 58.6650009155 2.24443912506 -18.9113521576
vertex 58.6650009155 3.02128624916 -14.2140951157
vertex 58.6650009155 2.14666342735 -18.8903770447
endloop
endfacet
facet normal 1.0 0.0 0.0
outer loop
vertex 58.6650009155 2.24443912506 -18.9113521576
vertex 58.6650009155 3.12003302574 -14.2298774719
vertex 58.6650009155 3.02128624916 -14.2140951157
endloop
endfacet
facet normal 1.0 0.0 -0.0
outer loop
vertex 58.6650009155 2.12614440918 -19.4628067017
vertex 58.6650009155 2.14666342735 -18.8903770447
vertex 58.6650009155 2.02836871147 -19.4418315887
endloop
endfacet
facet normal 1.0 0.0 0.0
outer loop
vertex 58.6650009155 2.12614440918 -19.4628067017
vertex 58.6650009155 2.24443912506 -18.9113521576
vertex 58.6650009155 2.14666342735 -18.8903770447
endloop
endfacet
facet normal 0.0 0.977756679058 -0.209742486477
outer loop
vertex -55.6650009155 2.24443912506 -18.9113521576
vertex -54.1650009155 2.12614440918 -19.4628067017
vertex -55.6650009155 2.12614440918 -19.4628067017
endloop
endfacet
facet normal 0.0 0.977756679058 -0.209742486477
outer loop
vertex -54.1650009155 2.24443912506 -18.9113521576
vertex -54.1650009155 2.12614440918 -19.4628067017
vertex -55.6650009155 2.24443912506 -18.9113521576
endloop
endfacet
facet normal 0.0 0.982955098152 -0.183845803142
outer loop
vertex -54.1650009155 3.12003302574 -14.2298774719
vertex -54.1650009155 2.24443912506 -18.9113521576
vertex -55.6650009155 2.24443912506 -18.9113521576
endloop
endfacet
facet normal 0.0 0.982955098152 -0.183845803142
outer loop
vertex -54.1650009155 3.12003302574 -14.2298774719
vertex -55.6650009155 2.24443912506 -18.9113521576
vertex -55.6650009155 3.12003302574 -14.2298774719
endloop
endfacet
facet normal 0.0 0.991291463375 -0.131686002016
outer loop
vertex -54.1650009155 3.74720788002 -9.50869941711
vertex -55.6650009155 3.12003302574 -14.2298774719
vertex -55.6650009155 3.74720788002 -9.50869941711
endloop
endfacet
facet normal 0.0 0.991291463375 -0.131686002016
outer loop
vertex -54.1650009155 3.74720788002 -9.50869941711
vertex -54.1650009155 3.12003302574 -14.2298774719
vertex -55.6650009155 3.12003302574 -14.2298774719
endloop
endfacet
facet normal 0.0 0.996862053871 -0.0791588798165
outer loop
vertex -54.1650009155 4.12421417236 -4.76099157333
vertex -55.6650009155 3.74720788002 -9.50869941711
vertex -55.6650009155 4.12421417236 -4.76099157333
endloop
endfacet
facet normal 0.0 0.996862053871 -0.0791588798165
outer loop
vertex -54.1650009155 4.12421417236 -4.76099157333
vertex -54.1650009155 3.74720788002 -9.50869941711
vertex -55.6650009155 3.74720788002 -9.50869941711
endloop
endfacet
facet normal 0.0 0.999651193619 -0.026410875842
outer loop
vertex -54.1650009155 4.25 0.0
vertex -55.6650009155 4.12421417236 -4.76099157333
vertex -55.6650009155 4.25 0.0
endloop
endfacet
facet normal 0.0 0.999651193619 -0.026410875842
outer loop
vertex -54.1650009155 4.25 0.0
vertex -54.1650009155 4.12421417236 -4.76099157333
vertex -55.6650009155 4.12421417236 -4.76099157333
endloop
endfacet
facet normal -1.0 0.0 0.0
outer loop
vertex -55.6650009155 4.15000009537 0.0
vertex -55.6650009155 4.12421417236 -4.76099157333
vertex -55.6650009155 4.02435398102 -4.75571155548
endloop
endfacet
facet normal -1.0 -0.0 0.0
outer loop
vertex -55.6650009155 4.25 0.0
vertex -55.6650009155 4.12421417236 -4.76099157333
vertex -55.6650009155 4.15000009537 0.0
endloop
endfacet
facet normal -1.0 0.0 0.0
outer loop
vertex -55.6650009155 4.02435398102 -4.75571155548
vertex -55.6650009155 3.74720788002 -9.50869941711
vertex -55.6650009155 3.64776563644 -9.49815368652
endloop
endfacet
facet normal -1.0 -0.0 0.0
outer loop
vertex -55.6650009155 4.12421417236 -4.76099157333
vertex -55.6650009155 3.74720788002 -9.50869941711
vertex -55.6650009155 4.02435398102 -4.75571155548
endloop
endfacet
facet normal -1.0 0.0 0.0
outer loop
vertex -55.6650009155 3.64776563644 -9.49815368652
vertex -55.6650009155 3.12003302574 -14.2298774719
vertex -55.6650009155 3.02128624916 -14.2140951157
endloop
endfacet
facet normal -1.0 -0.0 0.0
outer loop
vertex -55.6650009155 3.74720788002 -9.50869941711
vertex -55.6650009155 3.12003302574 -14.2298774719
vertex -55.6650009155 3.64776563644 -9.49815368652
endloop
endfacet
facet normal -1.0 0.0 0.0
outer loop
vertex -55.6650009155 3.02128624916 -14.2140951157
vertex -55.6650009155 2.24443912506 -18.9113521576
vertex -55.6650009155 2.14666342735 -18.8903770447
endloop
endfacet
facet normal -1.0 -0.0 0.0
outer loop
vertex -55.6650009155 3.12003302574 -14.2298774719
vertex -55.6650009155 2.24443912506 -18.9113521576
vertex -55.6650009155 3.02128624916 -14.2140951157
endloop
endfacet
facet normal -1.0 0.0 0.0
outer loop
vertex -55.6650009155 2.14666342735 -18.8903770447
vertex -55.6650009155 2.12614440918 -19.4628067017
vertex -55.6650009155 2.02836871147 -19.4418315887
endloop
endfacet
facet normal -1.0 -0.0 0.0
outer loop
vertex -55.6650009155 2.24443912506 -18.9113521576
vertex -55.6650009155 2.12614440918 -19.4628067017
vertex -55.6650009155 2.14666342735 -18.8903770447
endloop
endfacet
facet normal 0.0 0.982955098152 -0.183845803142
outer loop
vertex 54.1650009155 2.24443912506 -18.9113521576
vertex -54.1650009155 2.24443912506 -18.9113521576
vertex -54.1650009155 3.12003302574 -14.2298774719
endloop
endfacet
facet normal 0.0 0.991291463375 -0.131686016917
outer loop
vertex 54.1650009155 3.12003302574 -14.2298774719
vertex -54.1650009155 3.12003302574 -14.2298774719
vertex -54.1650009155 3.74720788002 -9.50869941711
endloop
endfacet
facet normal 0.0 0.982955098152 -0.183845803142
outer loop
vertex 54.1650009155 3.12003302574 -14.2298774719
vertex 54.1650009155 2.24443912506 -18.9113521576
vertex -54.1650009155 3.12003302574 -14.2298774719
endloop
endfacet
facet normal 0.0 0.996861994267 -0.0791588798165
outer loop
vertex 54.1650009155 3.74720788002 -9.50869941711
vertex -54.1650009155 3.74720788002 -9.50869941711
vertex -54.1650009155 4.12421417236 -4.76099157333
endloop
endfacet
facet normal 0.0 0.991291463375 -0.131686016917
outer loop
vertex 54.1650009155 3.74720788002 -9.50869941711
vertex 54.1650009155 3.12003302574 -14.2298774719
vertex -54.1650009155 3.74720788002 -9.50869941711
endloop
endfacet
facet normal 0.0 0.999651134014 -0.0264108721167
outer loop
vertex 54.1650009155 4.12421417236 -4.76099157333
vertex -54.1650009155 4.12421417236 -4.76099157333
vertex -54.1650009155 4.25 0.0
endloop
endfacet
facet normal 0.0 0.996861994267 -0.0791588798165
outer loop
vertex 54.1650009155 4.12421417236 -4.76099157333
vertex 54.1650009155 3.74720788002 -9.50869941711
vertex -54.1650009155 4.12421417236 -4.76099157333
endloop
endfacet
facet normal 0.0 0.999651134014 -0.0264108721167
outer loop
vertex 54.1650009155 4.25 0.0
vertex 54.1650009155 4.12421417236 -4.76099157333
vertex -54.1650009155 4.25 0.0
endloop
endfacet
facet normal 0.0 0.0 1.0
outer loop
vertex -54.1650009155 4.25 0.0
vertex -55.6650009155 4.25 0.0
vertex -55.6650009155 4.15000009537 0.0
endloop
endfacet
facet normal 0.0 0.0 1.0
outer loop
vertex 54.1650009155 4.25 0.0
vertex -54.1650009155 4.25 0.0
vertex -55.6650009155 4.15000009537 0.0
endloop
endfacet
facet normal 0.0 0.0 1.0
outer loop
vertex 58.6650009155 4.15000009537 0.0
vertex 54.1650009155 4.25 0.0
vertex -55.6650009155 4.15000009537 0.0
endloop
endfacet
facet normal 0.0 0.0 1.0
outer loop
vertex 58.6650009155 4.25 0.0
vertex 54.1650009155 4.25 0.0
vertex 58.6650009155 4.15000009537 0.0
endloop
endfacet
