solid 
facet normal 0.0 0.981992900372 -0.188917785883
outer loop
vertex 67.0 1.32289195061 -19.7096729279
vertex 1.80000007006e-14 1.32289195061 -19.7096729279
vertex 67.0 2.14683532715 -15.4268226624
endloop
endfacet
facet normal 0.0 0.981992900372 -0.188917785883
outer loop
vertex 1.80000007006e-14 1.32289195061 -19.7096729279
vertex 8.68464405479e-15 2.14683532715 -15.4268226624
vertex 67.0 2.14683532715 -15.4268226624
endloop
endfacet
facet normal 0.0 0.989625096321 -0.143673911691
outer loop
vertex 67.0 2.14683532715 -15.4268226624
vertex 5.44192579996e-15 2.77345275879 -11.1106853485
vertex 67.0 2.77345275879 -11.1106853485
endloop
endfacet
facet normal 0.0 0.995173811913 -0.0981277376413
outer loop
vertex 67.0 2.77345275879 -11.1106853485
vertex 5.44192579996e-15 2.77345275879 -11.1106853485
vertex 67.0 3.20142579079 -6.77034759521
endloop
endfacet
facet normal 0.0 0.989625096321 -0.143673911691
outer loop
vertex 8.68464405479e-15 2.14683532715 -15.4268226624
vertex 5.44192579996e-15 2.77345275879 -11.1106853485
vertex 67.0 2.14683532715 -15.4268226624
endloop
endfacet
facet normal 0.0 0.995173811913 -0.0981277376413
outer loop
vertex 5.44192579996e-15 2.77345275879 -11.1106853485
vertex 2.29423490093e-15 3.20142579079 -6.77034759521
vertex 67.0 3.20142579079 -6.77034759521
endloop
endfacet
facet normal 0.0 0.998627483845 -0.0523748509586
outer loop
vertex 67.0 3.20142579079 -6.77034759521
vertex -7.51802462363e-16 3.42985272408 -2.41494727135
vertex 67.0 3.42985272408 -2.41494727135
endloop
endfacet
facet normal 0.0 0.999978780746 -0.00651178741828
outer loop
vertex 67.0 3.42985272408 -2.41494727135
vertex -7.51802462363e-16 3.42985272408 -2.41494727135
vertex 67.0 3.45825314522 1.94634652138
endloop
endfacet
facet normal 0.0 0.998627483845 -0.0523748509586
outer loop
vertex 2.29423490093e-15 3.20142579079 -6.77034759521
vertex -7.51802462363e-16 3.42985272408 -2.41494727135
vertex 67.0 3.20142579079 -6.77034759521
endloop
endfacet
facet normal 0.0 0.999978780746 -0.00651178741828
outer loop
vertex -7.51802462363e-16 3.42985272408 -2.41494727135
vertex -3.68977335055e-15 3.45825314522 1.94634652138
vertex 67.0 3.45825314522 1.94634652138
endloop
endfacet
facet normal 0.0 0.999224901199 0.0393650494516
outer loop
vertex 67.0 3.45825314522 1.94634652138
vertex -6.51349320549e-15 3.28656697273 6.30435228348
vertex 67.0 3.28656697273 6.30435228348
endloop
endfacet
facet normal -0.0 0.999224901199 0.0393650494516
outer loop
vertex -3.68977335055e-15 3.45825314522 1.94634652138
vertex -6.51349320549e-15 3.28656697273 6.30435228348
vertex 67.0 3.45825314522 1.94634652138
endloop
endfacet
facet normal 0.0 0.996367394924 0.0851589515805
outer loop
vertex 67.0 3.28656697273 6.30435228348
vertex -9.21701696763e-15 2.9151558876 10.649895668
vertex 67.0 2.9151558876 10.649895668
endloop
endfacet
facet normal 0.0 0.991412222385 0.130773663521
outer loop
vertex 67.0 2.9151558876 10.649895668
vertex -9.21701696763e-15 2.9151558876 10.649895668
vertex 67.0 2.34480142593 14.9738273621
endloop
endfacet
facet normal -0.0 0.996367394924 0.0851589515805
outer loop
vertex -6.51349320549e-15 3.28656697273 6.30435228348
vertex -9.21701696763e-15 2.9151558876 10.649895668
vertex 67.0 3.28656697273 6.30435228348
endloop
endfacet
facet normal 0.0 0.98436999321 0.176112994552
outer loop
vertex 67.0 2.34480142593 14.9738273621
vertex -1.17946525756e-14 2.34480142593 14.9738273621
vertex 67.0 1.57670485973 19.2670440674
endloop
endfacet
facet normal 0.0 0.991412222385 0.130773663521
outer loop
vertex -9.21701696763e-15 2.9151558876 10.649895668
vertex -1.17946525756e-14 2.34480142593 14.9738273621
vertex 67.0 2.34480142593 14.9738273621
endloop
endfacet
facet normal 0.0 0.98436999321 0.176112994552
outer loop
vertex -1.17946525756e-14 2.34480142593 14.9738273621
vertex -1.70000003793e-14 1.57670485973 19.2670440674
vertex 67.0 1.57670485973 19.2670440674
endloop
endfacet
facet normal 0.0 0.0 -1.0
outer loop
vertex 67.0 -1.3010532856 -19.7096729279
vertex 1.70000003793e-14 -1.3010532856 -19.7096729279
vertex 67.0 1.32289195061 -19.7096729279
endloop
endfacet
facet normal 0.0 0.0 -1.0
outer loop
vertex 1.70000003793e-14 -1.3010532856 -19.7096729279
vertex 1.80000007006e-14 1.32289195061 -19.7096729279
vertex 67.0 1.32289195061 -19.7096729279
endloop
endfacet
facet normal 0.0 0.0 1.0
outer loop
vertex 67.0 1.57670485973 19.2670440674
vertex -1.70000003793e-14 1.57670485973 19.2670440674
vertex 67.0 -1.2904548645 19.2670440674
endloop
endfacet
facet normal 0.0 0.0 1.0
outer loop
vertex -1.70000003793e-14 1.57670485973 19.2670440674
vertex -1.80000007006e-14 -1.2904548645 19.2670440674
vertex 67.0 -1.2904548645 19.2670440674
endloop
endfacet
facet normal 0.0 0.981992900372 -0.188917785883
outer loop
vertex 1.80000007006e-14 1.32289195061 -19.7096729279
vertex -56.0 1.32289195061 -19.7096729279
vertex -56.0 2.14683532715 -15.4268226624
endloop
endfacet
facet normal 0.0 0.989625096321 -0.143673911691
outer loop
vertex 8.68464405479e-15 2.14683532715 -15.4268226624
vertex -56.0 2.14683532715 -15.4268226624
vertex -56.0 2.77345275879 -11.1106853485
endloop
endfacet
facet normal 0.0 0.981992900372 -0.188917785883
outer loop
vertex 8.68464405479e-15 2.14683532715 -15.4268226624
vertex 1.80000007006e-14 1.32289195061 -19.7096729279
vertex -56.0 2.14683532715 -15.4268226624
endloop
endfacet
facet normal 0.0 0.989625096321 -0.143673911691
outer loop
vertex 5.44192579996e-15 2.77345275879 -11.1106853485
vertex 8.68464405479e-15 2.14683532715 -15.4268226624
vertex -56.0 2.77345275879 -11.1106853485
endloop
endfacet
facet normal 0.0 0.995173811913 -0.0981277450919
outer loop
vertex 2.29423490093e-15 3.20142579079 -6.77034759521
vertex -56.0 2.77345275879 -11.1106853485
vertex -56.0 3.20142579079 -6.77034759521
endloop
endfacet
facet normal 0.0 0.998627483845 -0.0523748472333
outer loop
vertex 2.29423490093e-15 3.20142579079 -6.77034759521
vertex -56.0 3.20142579079 -6.77034759521
vertex -56.0 3.42985272408 -2.41494727135
endloop
endfacet
facet normal 0.0 0.995173811913 -0.0981277450919
outer loop
vertex 2.29423490093e-15 3.20142579079 -6.77034759521
vertex 5.44192579996e-15 2.77345275879 -11.1106853485
vertex -56.0 2.77345275879 -11.1106853485
endloop
endfacet
facet normal 0.0 0.998627483845 -0.0523748472333
outer loop
vertex -7.51802462363e-16 3.42985272408 -2.41494727135
vertex 2.29423490093e-15 3.20142579079 -6.77034759521
vertex -56.0 3.42985272408 -2.41494727135
endloop
endfacet
facet normal 0.0 0.999978780746 -0.00651178741828
outer loop
vertex -3.68977335055e-15 3.45825314522 1.94634652138
vertex -56.0 3.42985272408 -2.41494727135
vertex -56.0 3.45825314522 1.94634652138
endloop
endfacet
facet normal 0.0 0.999978780746 -0.00651178741828
outer loop
vertex -3.68977335055e-15 3.45825314522 1.94634652138
vertex -7.51802462363e-16 3.42985272408 -2.41494727135
vertex -56.0 3.42985272408 -2.41494727135
endloop
endfacet
facet normal 0.0 0.999224841595 0.0393650457263
outer loop
vertex -6.51349320549e-15 3.28656697273 6.30435228348
vertex -56.0 3.45825314522 1.94634652138
vertex -56.0 3.28656697273 6.30435228348
endloop
endfacet
facet normal 0.0 0.999224841595 0.0393650457263
outer loop
vertex -6.51349320549e-15 3.28656697273 6.30435228348
vertex -3.68977335055e-15 3.45825314522 1.94634652138
vertex -56.0 3.45825314522 1.94634652138
endloop
endfacet
facet normal 0.0 0.996367394924 0.0851589441299
outer loop
vertex -9.21701696763e-15 2.9151558876 10.649895668
vertex -56.0 3.28656697273 6.30435228348
vertex -56.0 2.9151558876 10.649895668
endloop
endfacet
facet normal 0.0 0.99141228199 0.130773678422
outer loop
vertex -9.21701696763e-15 2.9151558876 10.649895668
vertex -56.0 2.9151558876 10.649895668
vertex -56.0 2.34480142593 14.9738273621
endloop
endfacet
facet normal 0.0 0.996367394924 0.0851589441299
outer loop
vertex -9.21701696763e-15 2.9151558876 10.649895668
vertex -6.51349320549e-15 3.28656697273 6.30435228348
vertex -56.0 3.28656697273 6.30435228348
endloop
endfacet
facet normal 0.0 0.984369933605 0.17611297965
outer loop
vertex -1.17946525756e-14 2.34480142593 14.9738273621
vertex -56.0 2.34480142593 14.9738273621
vertex -56.0 1.57670485973 19.2670440674
endloop
endfacet
facet normal 0.0 0.99141228199 0.130773678422
outer loop
vertex -1.17946525756e-14 2.34480142593 14.9738273621
vertex -9.21701696763e-15 2.9151558876 10.649895668
vertex -56.0 2.34480142593 14.9738273621
endloop
endfacet
facet normal 0.0 0.984369933605 0.17611297965
outer loop
vertex -1.70000003793e-14 1.57670485973 19.2670440674
vertex -1.17946525756e-14 2.34480142593 14.9738273621
vertex -56.0 1.57670485973 19.2670440674
endloop
endfacet
facet normal 1.0 0.0 0.0
outer loop
vertex 67.0 1.32289195061 -19.7096729279
vertex 67.0 -0.897351980209 -18.2644405365
vertex 67.0 -1.3010532856 -19.7096729279
endloop
endfacet
facet normal 1.0 0.0 0.0
outer loop
vertex 67.0 -2.09232640266 -15.8595685959
vertex 67.0 -1.3010532856 -19.7096729279
vertex 67.0 -0.897351980209 -18.2644405365
endloop
endfacet
facet normal 1.0 0.0 0.0
outer loop
vertex 67.0 1.18862700462 -18.2644405365
vertex 67.0 -0.897351980209 -18.2644405365
vertex 67.0 1.32289195061 -19.7096729279
endloop
endfacet
facet normal 1.0 0.0 0.0
outer loop
vertex 67.0 2.14683532715 -15.4268226624
vertex 67.0 1.18862700462 -18.2644405365
vertex 67.0 1.32289195061 -19.7096729279
endloop
endfacet
facet normal 1.0 0.0 0.0
outer loop
vertex 67.0 -0.897351980209 -6.93928909302
vertex 67.0 -3.15041136742 -8.07196807861
vertex 67.0 -2.70919728279 -11.9777011871
endloop
endfacet
facet normal 1.0 0.0 0.0
outer loop
vertex 67.0 -0.897351980209 -6.93928909302
vertex 67.0 -2.11454391479 -6.93928909302
vertex 67.0 -3.15041136742 -8.07196807861
endloop
endfacet
facet normal 1.0 0.0 0.0
outer loop
vertex 67.0 -3.41507101059 -4.15031337738
vertex 67.0 -3.15041136742 -8.07196807861
vertex 67.0 -2.11454391479 -6.93928909302
endloop
endfacet
facet normal 1.0 0.0 0.0
outer loop
vertex 67.0 3.20142579079 -6.77034759521
vertex 67.0 2.60427093506 -6.39999485016
vertex 67.0 1.18862700462 -6.39999485016
endloop
endfacet
facet normal 1.0 0.0 0.0
outer loop
vertex 67.0 3.20142579079 -6.77034759521
vertex 67.0 1.18862700462 -6.39999485016
vertex 67.0 2.77345275879 -11.1106853485
endloop
endfacet
facet normal 1.0 0.0 0.0
outer loop
vertex 67.0 3.42985272408 -2.41494727135
vertex 67.0 2.60427093506 -6.39999485016
vertex 67.0 3.20142579079 -6.77034759521
endloop
endfacet
facet normal 1.0 0.0 0.0
outer loop
vertex 67.0 -3.14614152908 7.63034772873
vertex 67.0 -3.41293382645 3.70883750916
vertex 67.0 -2.11454391479 5.66668605804
endloop
endfacet
facet normal 1.0 0.0 0.0
outer loop
vertex 67.0 -0.897351980209 5.66668605804
vertex 67.0 -3.14614152908 7.63034772873
vertex 67.0 -2.11454391479 5.66668605804
endloop
endfacet
facet normal 1.0 0.0 0.0
outer loop
vertex 67.0 3.28656697273 6.30435228348
vertex 67.0 1.18862700462 5.53186321259
vertex 67.0 2.60427093506 5.53186321259
endloop
endfacet
facet normal 1.0 0.0 0.0
outer loop
vertex 67.0 3.28656697273 6.30435228348
vertex 67.0 2.60427093506 5.53186321259
vertex 67.0 3.45825314522 1.94634652138
endloop
endfacet
facet normal 1.0 0.0 0.0
outer loop
vertex 67.0 2.9151558876 10.649895668
vertex 67.0 1.18862700462 5.53186321259
vertex 67.0 3.28656697273 6.30435228348
endloop
endfacet
facet normal 1.0 0.0 0.0
outer loop
vertex 67.0 -1.2904548645 19.2670440674
vertex 67.0 -2.08382153511 15.4173707962
vertex 67.0 -0.897351980209 18.3338088989
endloop
endfacet
facet normal 1.0 0.0 0.0
outer loop
vertex 67.0 1.57670485973 19.2670440674
vertex 67.0 -1.2904548645 19.2670440674
vertex 67.0 -0.897351980209 18.3338088989
endloop
endfacet
facet normal 1.0 0.0 0.0
outer loop
vertex 67.0 1.57670485973 19.2670440674
vertex 67.0 1.18862700462 18.3338088989
vertex 67.0 2.34480142593 14.9738273621
endloop
endfacet
facet normal 1.0 0.0 0.0
outer loop
vertex 67.0 1.57670485973 19.2670440674
vertex 67.0 -0.897351980209 18.3338088989
vertex 67.0 1.18862700462 18.3338088989
endloop
endfacet
facet normal 1.0 0.0 -0.0
outer loop
vertex 67.0 -0.897351980209 5.66668605804
vertex 67.0 -0.897351980209 18.3338088989
vertex 67.0 -2.08382153511 15.4173707962
endloop
endfacet
facet normal 1.0 0.0 0.0
outer loop
vertex 67.0 -0.897351980209 5.66668605804
vertex 67.0 -2.08382153511 15.4173707962
vertex 67.0 -2.70280361176 11.5358400345
endloop
endfacet
facet normal 1.0 0.0 0.0
outer loop
vertex 67.0 -0.897351980209 5.66668605804
vertex 67.0 -2.70280361176 11.5358400345
vertex 67.0 -3.14614152908 7.63034772873
endloop
endfacet
facet normal 1.0 0.0 0.0
outer loop
vertex 67.0 1.18862700462 18.3338088989
vertex 67.0 1.18862700462 5.53186321259
vertex 67.0 2.34480142593 14.9738273621
endloop
endfacet
facet normal 1.0 0.0 0.0
outer loop
vertex 67.0 2.34480142593 14.9738273621
vertex 67.0 1.18862700462 5.53186321259
vertex 67.0 2.9151558876 10.649895668
endloop
endfacet
facet normal 1.0 0.0 0.0
outer loop
vertex 67.0 2.60427093506 5.53186321259
vertex 67.0 2.60427093506 -6.39999485016
vertex 67.0 3.42985272408 -2.41494727135
endloop
endfacet
facet normal 1.0 0.0 0.0
outer loop
vertex 67.0 2.60427093506 5.53186321259
vertex 67.0 3.42985272408 -2.41494727135
vertex 67.0 3.45825314522 1.94634652138
endloop
endfacet
facet normal 1.0 0.0 0.0
outer loop
vertex 67.0 1.18862700462 -6.39999485016
vertex 67.0 1.18862700462 -18.2644405365
vertex 67.0 2.14683532715 -15.4268226624
endloop
endfacet
facet normal 1.0 0.0 0.0
outer loop
vertex 67.0 1.18862700462 -6.39999485016
vertex 67.0 2.14683532715 -15.4268226624
vertex 67.0 2.77345275879 -11.1106853485
endloop
endfacet
facet normal 1.0 0.0 -0.0
outer loop
vertex 67.0 -0.897351980209 -18.2644405365
vertex 67.0 -0.897351980209 -6.93928909302
vertex 67.0 -2.09232640266 -15.8595685959
endloop
endfacet
facet normal 1.0 0.0 -0.0
outer loop
vertex 67.0 -2.09232640266 -15.8595685959
vertex 67.0 -0.897351980209 -6.93928909302
vertex 67.0 -2.70919728279 -11.9777011871
endloop
endfacet
facet normal 1.0 0.0 -0.0
outer loop
vertex 67.0 -2.11454391479 -6.93928909302
vertex 67.0 -2.11454391479 5.66668605804
vertex 67.0 -3.41293382645 3.70883750916
endloop
endfacet
facet normal 1.0 0.0 0.0
outer loop
vertex 67.0 -2.11454391479 -6.93928909302
vertex 67.0 -3.41293382645 3.70883750916
vertex 67.0 -3.50263786316 -0.220713913441
endloop
endfacet
facet normal 1.0 0.0 0.0
outer loop
vertex 67.0 -2.11454391479 -6.93928909302
vertex 67.0 -3.50263786316 -0.220713913441
vertex 67.0 -3.41507101059 -4.15031337738
endloop
endfacet
facet normal 0.0 -0.979417443275 0.201844975352
outer loop
vertex -1.80000007006e-14 -1.2904548645 19.2670440674
vertex -8.75309109319e-15 -2.08382153511 15.4173707962
vertex 67.0 -1.2904548645 19.2670440674
endloop
endfacet
facet normal 0.0 -0.979417443275 0.201844975352
outer loop
vertex 67.0 -1.2904548645 19.2670440674
vertex -8.75309109319e-15 -2.08382153511 15.4173707962
vertex 67.0 -2.08382153511 15.4173707962
endloop
endfacet
facet normal 0.0 -0.987522423267 0.157478764653
outer loop
vertex 67.0 -2.08382153511 15.4173707962
vertex -5.80583571806e-15 -2.70280361176 11.5358400345
vertex 67.0 -2.70280361176 11.5358400345
endloop
endfacet
facet normal 0.0 -0.987522423267 0.157478764653
outer loop
vertex -8.75309109319e-15 -2.08382153511 15.4173707962
vertex -5.80583571806e-15 -2.70280361176 11.5358400345
vertex 67.0 -2.08382153511 15.4173707962
endloop
endfacet
facet normal 0.0 -0.993618667126 0.112792134285
outer loop
vertex 67.0 -2.70280361176 11.5358400345
vertex -2.94088632265e-15 -3.14614152908 7.63034772873
vertex 67.0 -3.14614152908 7.63034772873
endloop
endfacet
facet normal 0.0 -0.993618667126 0.112792134285
outer loop
vertex -5.80583571806e-15 -2.70280361176 11.5358400345
vertex -2.94088632265e-15 -3.14614152908 7.63034772873
vertex 67.0 -2.70280361176 11.5358400345
endloop
endfacet
facet normal 0.0 -0.997693836689 0.0678761526942
outer loop
vertex 67.0 -3.14614152908 7.63034772873
vertex -1.64070837749e-16 -3.41293382645 3.70883750916
vertex 67.0 -3.41293382645 3.70883750916
endloop
endfacet
facet normal 0.0 -0.999739468098 0.0228221137077
outer loop
vertex 67.0 -3.41293382645 3.70883750916
vertex -1.64070837749e-16 -3.41293382645 3.70883750916
vertex 67.0 -3.50263786316 -0.220713913441
endloop
endfacet
facet normal 0.0 -0.997693836689 0.0678761526942
outer loop
vertex -2.94088632265e-15 -3.14614152908 7.63034772873
vertex -1.64070837749e-16 -3.41293382645 3.70883750916
vertex 67.0 -3.14614152908 7.63034772873
endloop
endfacet
facet normal 0.0 -0.999739468098 0.0228221137077
outer loop
vertex -1.64070837749e-16 -3.41293382645 3.70883750916
vertex 2.51896269448e-15 -3.50263786316 -0.220713913441
vertex 67.0 -3.50263786316 -0.220713913441
endloop
endfacet
facet normal 0.0 -0.999751806259 -0.0222783815116
outer loop
vertex 67.0 -3.50263786316 -0.220713913441
vertex 5.10275686722e-15 -3.41507101059 -4.15031337738
vertex 67.0 -3.41507101059 -4.15031337738
endloop
endfacet
facet normal -0.0 -0.99773055315 -0.0673335790634
outer loop
vertex 67.0 -3.41507101059 -4.15031337738
vertex 5.10275686722e-15 -3.41507101059 -4.15031337738
vertex 67.0 -3.15041136742 -8.07196807861
endloop
endfacet
facet normal 0.0 -0.999751806259 -0.0222783815116
outer loop
vertex 2.51896269448e-15 -3.50263786316 -0.220713913441
vertex 5.10275686722e-15 -3.41507101059 -4.15031337738
vertex 67.0 -3.50263786316 -0.220713913441
endloop
endfacet
facet normal 0.0 -0.99773055315 -0.0673335790634
outer loop
vertex 5.10275686722e-15 -3.41507101059 -4.15031337738
vertex 7.58205618515e-15 -3.15041136742 -8.07196807861
vertex 67.0 -3.15041136742 -8.07196807861
endloop
endfacet
facet normal 0.0 -0.993679761887 -0.112251788378
outer loop
vertex 67.0 -3.15041136742 -8.07196807861
vertex 9.95181720235e-15 -2.70919728279 -11.9777011871
vertex 67.0 -2.70919728279 -11.9777011871
endloop
endfacet
facet normal 0.0 -0.993679761887 -0.112251788378
outer loop
vertex 7.58205618515e-15 -3.15041136742 -8.07196807861
vertex 9.95181720235e-15 -2.70919728279 -11.9777011871
vertex 67.0 -3.15041136742 -8.07196807861
endloop
endfacet
facet normal 0.0 -0.987607955933 -0.156941622496
outer loop
vertex 67.0 -2.70919728279 -11.9777011871
vertex 1.22072203013e-14 -2.09232640266 -15.8595685959
vertex 67.0 -2.09232640266 -15.8595685959
endloop
endfacet
facet normal -0.0 -0.979527115822 -0.201312303543
outer loop
vertex 67.0 -2.09232640266 -15.8595685959
vertex 1.22072203013e-14 -2.09232640266 -15.8595685959
vertex 67.0 -1.3010532856 -19.7096729279
endloop
endfacet
facet normal 0.0 -0.987607955933 -0.156941622496
outer loop
vertex 9.95181720235e-15 -2.70919728279 -11.9777011871
vertex 1.22072203013e-14 -2.09232640266 -15.8595685959
vertex 67.0 -2.70919728279 -11.9777011871
endloop
endfacet
facet normal 0.0 -0.979527115822 -0.201312303543
outer loop
vertex 1.22072203013e-14 -2.09232640266 -15.8595685959
vertex 1.70000003793e-14 -1.3010532856 -19.7096729279
vertex 67.0 -1.3010532856 -19.7096729279
endloop
endfacet
facet normal 0.0 0.0 -1.0
outer loop
vertex 1.70000003793e-14 -1.3010532856 -19.7096729279
vertex -56.0 -1.3010532856 -19.7096729279
vertex -56.0 1.32289195061 -19.7096729279
endloop
endfacet
facet normal -0.0 0.0 -1.0
outer loop
vertex 1.80000007006e-14 1.32289195061 -19.7096729279
vertex 1.70000003793e-14 -1.3010532856 -19.7096729279
vertex -56.0 1.32289195061 -19.7096729279
endloop
endfacet
facet normal 0.0 0.0 1.0
outer loop
vertex -1.70000003793e-14 1.57670485973 19.2670440674
vertex -56.0 1.57670485973 19.2670440674
vertex -56.0 -1.2904548645 19.2670440674
endloop
endfacet
facet normal 0.0 -0.0 1.0
outer loop
vertex -1.80000007006e-14 -1.2904548645 19.2670440674
vertex -1.70000003793e-14 1.57670485973 19.2670440674
vertex -56.0 -1.2904548645 19.2670440674
endloop
endfacet
facet normal -1.0 0.0 -0.0
outer loop
vertex -56.0 -0.897351980209 -18.2644405365
vertex -56.0 1.32289195061 -19.7096729279
vertex -56.0 -1.3010532856 -19.7096729279
endloop
endfacet
facet normal -1.0 0.0 0.0
outer loop
vertex -56.0 -1.3010532856 -19.7096729279
vertex -56.0 -2.09232640266 -15.8595685959
vertex -56.0 -0.897351980209 -18.2644405365
endloop
endfacet
facet normal -1.0 0.0 0.0
outer loop
vertex -56.0 -0.897351980209 -18.2644405365
vertex -56.0 1.18862700462 -18.2644405365
vertex -56.0 1.32289195061 -19.7096729279
endloop
endfacet
facet normal -1.0 0.0 0.0
outer loop
vertex -56.0 1.18862700462 -18.2644405365
vertex -56.0 2.14683532715 -15.4268226624
vertex -56.0 1.32289195061 -19.7096729279
endloop
endfacet
facet normal -1.0 0.0 0.0
outer loop
vertex -56.0 -3.15041136742 -8.07196807861
vertex -56.0 -0.897351980209 -6.93928909302
vertex -56.0 -2.70919728279 -11.9777011871
endloop
endfacet
facet normal -1.0 0.0 -0.0
outer loop
vertex -56.0 -2.11454391479 -6.93928909302
vertex -56.0 -0.897351980209 -6.93928909302
vertex -56.0 -3.15041136742 -8.07196807861
endloop
endfacet
facet normal -1.0 0.0 0.0
outer loop
vertex -56.0 -3.15041136742 -8.07196807861
vertex -56.0 -3.41507101059 -4.15031337738
vertex -56.0 -2.11454391479 -6.93928909302
endloop
endfacet
facet normal -1.0 -0.0 -0.0
outer loop
vertex -56.0 2.60427093506 -6.39999485016
vertex -56.0 3.20142579079 -6.77034759521
vertex -56.0 1.18862700462 -6.39999485016
endloop
endfacet
facet normal -1.0 0.0 0.0
outer loop
vertex -56.0 1.18862700462 -6.39999485016
vertex -56.0 3.20142579079 -6.77034759521
vertex -56.0 2.77345275879 -11.1106853485
endloop
endfacet
facet normal -1.0 0.0 0.0
outer loop
vertex -56.0 2.60427093506 -6.39999485016
vertex -56.0 3.42985272408 -2.41494727135
vertex -56.0 3.20142579079 -6.77034759521
endloop
endfacet
facet normal -1.0 0.0 0.0
outer loop
vertex -56.0 -3.41293382645 3.70883750916
vertex -56.0 -3.14614152908 7.63034772873
vertex -56.0 -2.11454391479 5.66668605804
endloop
endfacet
facet normal -1.0 0.0 0.0
outer loop
vertex -56.0 -3.14614152908 7.63034772873
vertex -56.0 -0.897351980209 5.66668605804
vertex -56.0 -2.11454391479 5.66668605804
endloop
endfacet
facet normal -1.0 0.0 0.0
outer loop
vertex -56.0 1.18862700462 5.53186321259
vertex -56.0 3.28656697273 6.30435228348
vertex -56.0 2.60427093506 5.53186321259
endloop
endfacet
facet normal -1.0 0.0 0.0
outer loop
vertex -56.0 2.60427093506 5.53186321259
vertex -56.0 3.28656697273 6.30435228348
vertex -56.0 3.45825314522 1.94634652138
endloop
endfacet
facet normal -1.0 0.0 0.0
outer loop
vertex -56.0 1.18862700462 5.53186321259
vertex -56.0 2.9151558876 10.649895668
vertex -56.0 3.28656697273 6.30435228348
endloop
endfacet
facet normal -1.0 0.0 0.0
outer loop
vertex -56.0 -2.08382153511 15.4173707962
vertex -56.0 -1.2904548645 19.2670440674
vertex -56.0 -0.897351980209 18.3338088989
endloop
endfacet
facet normal -1.0 0.0 0.0
outer loop
vertex -56.0 -1.2904548645 19.2670440674
vertex -56.0 1.57670485973 19.2670440674
vertex -56.0 -0.897351980209 18.3338088989
endloop
endfacet
facet normal -1.0 0.0 0.0
outer loop
vertex -56.0 1.18862700462 18.3338088989
vertex -56.0 1.57670485973 19.2670440674
vertex -56.0 2.34480142593 14.9738273621
endloop
endfacet
facet normal -1.0 0.0 0.0
outer loop
vertex -56.0 -0.897351980209 18.3338088989
vertex -56.0 1.57670485973 19.2670440674
vertex -56.0 1.18862700462 18.3338088989
endloop
endfacet
facet normal -1.0 0.0 -0.0
outer loop
vertex -56.0 -0.897351980209 18.3338088989
vertex -56.0 -0.897351980209 5.66668605804
vertex -56.0 -2.08382153511 15.4173707962
endloop
endfacet
facet normal -1.0 0.0 -0.0
outer loop
vertex -56.0 -2.08382153511 15.4173707962
vertex -56.0 -0.897351980209 5.66668605804
vertex -56.0 -2.70280361176 11.5358400345
endloop
endfacet
facet normal -1.0 0.0 -0.0
outer loop
vertex -56.0 -2.70280361176 11.5358400345
vertex -56.0 -0.897351980209 5.66668605804
vertex -56.0 -3.14614152908 7.63034772873
endloop
endfacet
facet normal -1.0 0.0 0.0
outer loop
vertex -56.0 1.18862700462 5.53186321259
vertex -56.0 1.18862700462 18.3338088989
vertex -56.0 2.34480142593 14.9738273621
endloop
endfacet
facet normal -1.0 0.0 0.0
outer loop
vertex -56.0 1.18862700462 5.53186321259
vertex -56.0 2.34480142593 14.9738273621
vertex -56.0 2.9151558876 10.649895668
endloop
endfacet
facet normal -1.0 0.0 0.0
outer loop
vertex -56.0 2.60427093506 -6.39999485016
vertex -56.0 2.60427093506 5.53186321259
vertex -56.0 3.42985272408 -2.41494727135
endloop
endfacet
facet normal -1.0 0.0 0.0
outer loop
vertex -56.0 3.42985272408 -2.41494727135
vertex -56.0 2.60427093506 5.53186321259
vertex -56.0 3.45825314522 1.94634652138
endloop
endfacet
facet normal -1.0 0.0 0.0
outer loop
vertex -56.0 1.18862700462 -18.2644405365
vertex -56.0 1.18862700462 -6.39999485016
vertex -56.0 2.14683532715 -15.4268226624
endloop
endfacet
facet normal -1.0 0.0 0.0
outer loop
vertex -56.0 2.14683532715 -15.4268226624
vertex -56.0 1.18862700462 -6.39999485016
vertex -56.0 2.77345275879 -11.1106853485
endloop
endfacet
facet normal -1.0 0.0 -0.0
outer loop
vertex -56.0 -0.897351980209 -6.93928909302
vertex -56.0 -0.897351980209 -18.2644405365
vertex -56.0 -2.09232640266 -15.8595685959
endloop
endfacet
facet normal -1.0 0.0 0.0
outer loop
vertex -56.0 -0.897351980209 -6.93928909302
vertex -56.0 -2.09232640266 -15.8595685959
vertex -56.0 -2.70919728279 -11.9777011871
endloop
endfacet
facet normal -1.0 0.0 -0.0
outer loop
vertex -56.0 -2.11454391479 5.66668605804
vertex -56.0 -2.11454391479 -6.93928909302
vertex -56.0 -3.41293382645 3.70883750916
endloop
endfacet
facet normal -1.0 0.0 -0.0
outer loop
vertex -56.0 -3.41293382645 3.70883750916
vertex -56.0 -2.11454391479 -6.93928909302
vertex -56.0 -3.50263786316 -0.220713913441
endloop
endfacet
facet normal -1.0 0.0 0.0
outer loop
vertex -56.0 -3.50263786316 -0.220713913441
vertex -56.0 -2.11454391479 -6.93928909302
vertex -56.0 -3.41507101059 -4.15031337738
endloop
endfacet
facet normal 0.0 1.0 -0.0
outer loop
vertex 67.0 -0.897351980209 5.66668605804
vertex -4.99999991226e-15 -0.897351980209 5.66668605804
vertex 67.0 -0.897351980209 18.3338088989
endloop
endfacet
facet normal 0.0 1.0 -0.0
outer loop
vertex -4.99999991226e-15 -0.897351980209 5.66668605804
vertex -1.70000003793e-14 -0.897351980209 18.3338088989
vertex 67.0 -0.897351980209 18.3338088989
endloop
endfacet
facet normal 0.0 0.0 -1.0
outer loop
vertex 67.0 -0.897351980209 18.3338088989
vertex -1.70000003793e-14 -0.897351980209 18.3338088989
vertex 67.0 1.18862700462 18.3338088989
endloop
endfacet
facet normal 0.0 0.0 -1.0
outer loop
vertex -1.70000003793e-14 -0.897351980209 18.3338088989
vertex -1.6000000058e-14 1.18862700462 18.3338088989
vertex 67.0 1.18862700462 18.3338088989
endloop
endfacet
facet normal -0.0 -1.0 -0.0
outer loop
vertex 67.0 1.18862700462 18.3338088989
vertex -1.6000000058e-14 1.18862700462 18.3338088989
vertex 67.0 1.18862700462 5.53186321259
endloop
endfacet
facet normal 0.0 -1.0 0.0
outer loop
vertex -1.6000000058e-14 1.18862700462 18.3338088989
vertex -4.99999991226e-15 1.18862700462 5.53186321259
vertex 67.0 1.18862700462 5.53186321259
endloop
endfacet
facet normal 0.0 0.0 -1.0
outer loop
vertex 67.0 1.18862700462 5.53186321259
vertex -4.99999991226e-15 1.18862700462 5.53186321259
vertex 67.0 2.60427093506 5.53186321259
endloop
endfacet
facet normal 0.0 0.0 -1.0
outer loop
vertex -4.99999991226e-15 1.18862700462 5.53186321259
vertex -4.00000001451e-15 2.60427093506 5.53186321259
vertex 67.0 2.60427093506 5.53186321259
endloop
endfacet
facet normal -0.0 -1.0 -0.0
outer loop
vertex 67.0 2.60427093506 5.53186321259
vertex -4.00000001451e-15 2.60427093506 5.53186321259
vertex 67.0 2.60427093506 -6.39999485016
endloop
endfacet
facet normal 0.0 -1.0 0.0
outer loop
vertex -4.00000001451e-15 2.60427093506 5.53186321259
vertex 7.00000013127e-15 2.60427093506 -6.39999485016
vertex 67.0 2.60427093506 -6.39999485016
endloop
endfacet
facet normal 0.0 0.0 1.0
outer loop
vertex 67.0 2.60427093506 -6.39999485016
vertex 7.00000013127e-15 2.60427093506 -6.39999485016
vertex 67.0 1.18862700462 -6.39999485016
endloop
endfacet
facet normal 0.0 0.0 1.0
outer loop
vertex 7.00000013127e-15 2.60427093506 -6.39999485016
vertex 5.99999981001e-15 1.18862700462 -6.39999485016
vertex 67.0 1.18862700462 -6.39999485016
endloop
endfacet
facet normal -0.0 -1.0 -0.0
outer loop
vertex 67.0 1.18862700462 -6.39999485016
vertex 5.99999981001e-15 1.18862700462 -6.39999485016
vertex 67.0 1.18862700462 -18.2644405365
endloop
endfacet
facet normal 0.0 -1.0 0.0
outer loop
vertex 5.99999981001e-15 1.18862700462 -6.39999485016
vertex 1.70000003793e-14 1.18862700462 -18.2644405365
vertex 67.0 1.18862700462 -18.2644405365
endloop
endfacet
facet normal 0.0 0.0 1.0
outer loop
vertex 67.0 1.18862700462 -18.2644405365
vertex 1.70000003793e-14 1.18862700462 -18.2644405365
vertex 67.0 -0.897351980209 -18.2644405365
endloop
endfacet
facet normal 0.0 0.0 1.0
outer loop
vertex 1.70000003793e-14 1.18862700462 -18.2644405365
vertex 1.6000000058e-14 -0.897351980209 -18.2644405365
vertex 67.0 -0.897351980209 -18.2644405365
endloop
endfacet
facet normal 0.0 1.0 -0.0
outer loop
vertex 67.0 -0.897351980209 -18.2644405365
vertex 1.6000000058e-14 -0.897351980209 -18.2644405365
vertex 67.0 -0.897351980209 -6.93928909302
endloop
endfacet
facet normal 0.0 1.0 -0.0
outer loop
vertex 1.6000000058e-14 -0.897351980209 -18.2644405365
vertex 5.99999981001e-15 -0.897351980209 -6.93928909302
vertex 67.0 -0.897351980209 -6.93928909302
endloop
endfacet
facet normal 0.0 0.0 1.0
outer loop
vertex 4.99999991226e-15 -2.11454391479 -6.93928909302
vertex 67.0 -2.11454391479 -6.93928909302
vertex 67.0 -0.897351980209 -6.93928909302
endloop
endfacet
facet normal -0.0 0.0 1.0
outer loop
vertex 5.99999981001e-15 -0.897351980209 -6.93928909302
vertex 4.99999991226e-15 -2.11454391479 -6.93928909302
vertex 67.0 -0.897351980209 -6.93928909302
endloop
endfacet
facet normal -0.0 1.0 0.0
outer loop
vertex -5.99999981001e-15 -2.11454391479 5.66668605804
vertex 67.0 -2.11454391479 5.66668605804
vertex 67.0 -2.11454391479 -6.93928909302
endloop
endfacet
facet normal 0.0 1.0 -0.0
outer loop
vertex 4.99999991226e-15 -2.11454391479 -6.93928909302
vertex -5.99999981001e-15 -2.11454391479 5.66668605804
vertex 67.0 -2.11454391479 -6.93928909302
endloop
endfacet
facet normal 0.0 0.0 -1.0
outer loop
vertex -4.99999991226e-15 -0.897351980209 5.66668605804
vertex 67.0 -0.897351980209 5.66668605804
vertex 67.0 -2.11454391479 5.66668605804
endloop
endfacet
facet normal 0.0 0.0 -1.0
outer loop
vertex -5.99999981001e-15 -2.11454391479 5.66668605804
vertex -4.99999991226e-15 -0.897351980209 5.66668605804
vertex 67.0 -2.11454391479 5.66668605804
endloop
endfacet
facet normal 0.0 -0.979417443275 0.201844975352
outer loop
vertex -1.80000007006e-14 -1.2904548645 19.2670440674
vertex -56.0 -1.2904548645 19.2670440674
vertex -56.0 -2.08382153511 15.4173707962
endloop
endfacet
facet normal 0.0 -0.987522363663 0.157478749752
outer loop
vertex -8.75309109319e-15 -2.08382153511 15.4173707962
vertex -56.0 -2.08382153511 15.4173707962
vertex -56.0 -2.70280361176 11.5358400345
endloop
endfacet
facet normal 0.0 -0.979417443275 0.201844975352
outer loop
vertex -8.75309109319e-15 -2.08382153511 15.4173707962
vertex -1.80000007006e-14 -1.2904548645 19.2670440674
vertex -56.0 -2.08382153511 15.4173707962
endloop
endfacet
facet normal 0.0 -0.987522363663 0.157478749752
outer loop
vertex -5.80583571806e-15 -2.70280361176 11.5358400345
vertex -8.75309109319e-15 -2.08382153511 15.4173707962
vertex -56.0 -2.70280361176 11.5358400345
endloop
endfacet
facet normal 0.0 -0.993618607521 0.112792134285
outer loop
vertex -2.94088632265e-15 -3.14614152908 7.63034772873
vertex -56.0 -2.70280361176 11.5358400345
vertex -56.0 -3.14614152908 7.63034772873
endloop
endfacet
facet normal 0.0 -0.997693777084 0.0678761526942
outer loop
vertex -2.94088632265e-15 -3.14614152908 7.63034772873
vertex -56.0 -3.14614152908 7.63034772873
vertex -56.0 -3.41293382645 3.70883750916
endloop
endfacet
facet normal 0.0 -0.993618607521 0.112792134285
outer loop
vertex -2.94088632265e-15 -3.14614152908 7.63034772873
vertex -5.80583571806e-15 -2.70280361176 11.5358400345
vertex -56.0 -2.70280361176 11.5358400345
endloop
endfacet
facet normal 0.0 -0.997693777084 0.0678761526942
outer loop
vertex -1.64070837749e-16 -3.41293382645 3.70883750916
vertex -2.94088632265e-15 -3.14614152908 7.63034772873
vertex -56.0 -3.41293382645 3.70883750916
endloop
endfacet
facet normal 0.0 -0.999739527702 0.0228221155703
outer loop
vertex 2.51896269448e-15 -3.50263786316 -0.220713913441
vertex -56.0 -3.41293382645 3.70883750916
vertex -56.0 -3.50263786316 -0.220713913441
endloop
endfacet
facet normal 0.0 -0.999739527702 0.0228221155703
outer loop
vertex 2.51896269448e-15 -3.50263786316 -0.220713913441
vertex -1.64070837749e-16 -3.41293382645 3.70883750916
vertex -56.0 -3.41293382645 3.70883750916
endloop
endfacet
facet normal -0.0 -0.999751806259 -0.0222783833742
outer loop
vertex 5.10275686722e-15 -3.41507101059 -4.15031337738
vertex -56.0 -3.50263786316 -0.220713913441
vertex -56.0 -3.41507101059 -4.15031337738
endloop
endfacet
facet normal -0.0 -0.997730493546 -0.0673335641623
outer loop
vertex 5.10275686722e-15 -3.41507101059 -4.15031337738
vertex -56.0 -3.41507101059 -4.15031337738
vertex -56.0 -3.15041136742 -8.07196807861
endloop
endfacet
facet normal 0.0 -0.999751806259 -0.0222783833742
outer loop
vertex 5.10275686722e-15 -3.41507101059 -4.15031337738
vertex 2.51896269448e-15 -3.50263786316 -0.220713913441
vertex -56.0 -3.50263786316 -0.220713913441
endloop
endfacet
facet normal -0.0 -0.997730493546 -0.0673335641623
outer loop
vertex 7.58205618515e-15 -3.15041136742 -8.07196807861
vertex 5.10275686722e-15 -3.41507101059 -4.15031337738
vertex -56.0 -3.15041136742 -8.07196807861
endloop
endfacet
facet normal -0.0 -0.993679821491 -0.112251795828
outer loop
vertex 9.95181720235e-15 -2.70919728279 -11.9777011871
vertex -56.0 -3.15041136742 -8.07196807861
vertex -56.0 -2.70919728279 -11.9777011871
endloop
endfacet
facet normal 0.0 -0.993679821491 -0.112251795828
outer loop
vertex 9.95181720235e-15 -2.70919728279 -11.9777011871
vertex 7.58205618515e-15 -3.15041136742 -8.07196807861
vertex -56.0 -3.15041136742 -8.07196807861
endloop
endfacet
facet normal -0.0 -0.987607836723 -0.156941607594
outer loop
vertex 1.22072203013e-14 -2.09232640266 -15.8595685959
vertex -56.0 -2.70919728279 -11.9777011871
vertex -56.0 -2.09232640266 -15.8595685959
endloop
endfacet
facet normal -0.0 -0.979527115822 -0.201312333345
outer loop
vertex 1.22072203013e-14 -2.09232640266 -15.8595685959
vertex -56.0 -2.09232640266 -15.8595685959
vertex -56.0 -1.3010532856 -19.7096729279
endloop
endfacet
facet normal 0.0 -0.987607836723 -0.156941607594
outer loop
vertex 1.22072203013e-14 -2.09232640266 -15.8595685959
vertex 9.95181720235e-15 -2.70919728279 -11.9777011871
vertex -56.0 -2.70919728279 -11.9777011871
endloop
endfacet
facet normal -0.0 -0.979527115822 -0.201312333345
outer loop
vertex 1.70000003793e-14 -1.3010532856 -19.7096729279
vertex 1.22072203013e-14 -2.09232640266 -15.8595685959
vertex -56.0 -1.3010532856 -19.7096729279
endloop
endfacet
facet normal 0.0 1.0 0.0
outer loop
vertex -1.70000003793e-14 -0.897351980209 18.3338088989
vertex -4.99999991226e-15 -0.897351980209 5.66668605804
vertex -56.0 -0.897351980209 5.66668605804
endloop
endfacet
facet normal 0.0 1.0 0.0
outer loop
vertex -1.70000003793e-14 -0.897351980209 18.3338088989
vertex -56.0 -0.897351980209 5.66668605804
vertex -56.0 -0.897351980209 18.3338088989
endloop
endfacet
facet normal 0.0 0.0 -1.0
outer loop
vertex -1.70000003793e-14 -0.897351980209 18.3338088989
vertex -56.0 -0.897351980209 18.3338088989
vertex -56.0 1.18862700462 18.3338088989
endloop
endfacet
facet normal -0.0 0.0 -1.0
outer loop
vertex -1.6000000058e-14 1.18862700462 18.3338088989
vertex -1.70000003793e-14 -0.897351980209 18.3338088989
vertex -56.0 1.18862700462 18.3338088989
endloop
endfacet
facet normal -0.0 -1.0 0.0
outer loop
vertex -1.6000000058e-14 1.18862700462 18.3338088989
vertex -56.0 1.18862700462 18.3338088989
vertex -56.0 1.18862700462 5.53186321259
endloop
endfacet
facet normal 0.0 -1.0 0.0
outer loop
vertex -4.99999991226e-15 1.18862700462 5.53186321259
vertex -1.6000000058e-14 1.18862700462 18.3338088989
vertex -56.0 1.18862700462 5.53186321259
endloop
endfacet
facet normal 0.0 0.0 -1.0
outer loop
vertex -4.99999991226e-15 1.18862700462 5.53186321259
vertex -56.0 1.18862700462 5.53186321259
vertex -56.0 2.60427093506 5.53186321259
endloop
endfacet
facet normal -0.0 0.0 -1.0
outer loop
vertex -4.00000001451e-15 2.60427093506 5.53186321259
vertex -4.99999991226e-15 1.18862700462 5.53186321259
vertex -56.0 2.60427093506 5.53186321259
endloop
endfacet
facet normal -0.0 -1.0 0.0
outer loop
vertex -4.00000001451e-15 2.60427093506 5.53186321259
vertex -56.0 2.60427093506 5.53186321259
vertex -56.0 2.60427093506 -6.39999485016
endloop
endfacet
facet normal 0.0 -1.0 0.0
outer loop
vertex 7.00000013127e-15 2.60427093506 -6.39999485016
vertex -4.00000001451e-15 2.60427093506 5.53186321259
vertex -56.0 2.60427093506 -6.39999485016
endloop
endfacet
facet normal 0.0 0.0 1.0
outer loop
vertex 7.00000013127e-15 2.60427093506 -6.39999485016
vertex -56.0 2.60427093506 -6.39999485016
vertex -56.0 1.18862700462 -6.39999485016
endloop
endfacet
facet normal 0.0 -0.0 1.0
outer loop
vertex 5.99999981001e-15 1.18862700462 -6.39999485016
vertex 7.00000013127e-15 2.60427093506 -6.39999485016
vertex -56.0 1.18862700462 -6.39999485016
endloop
endfacet
facet normal -0.0 -1.0 0.0
outer loop
vertex 5.99999981001e-15 1.18862700462 -6.39999485016
vertex -56.0 1.18862700462 -6.39999485016
vertex -56.0 1.18862700462 -18.2644405365
endloop
endfacet
facet normal 0.0 -1.0 0.0
outer loop
vertex 1.70000003793e-14 1.18862700462 -18.2644405365
vertex 5.99999981001e-15 1.18862700462 -6.39999485016
vertex -56.0 1.18862700462 -18.2644405365
endloop
endfacet
facet normal 0.0 0.0 1.0
outer loop
vertex 1.70000003793e-14 1.18862700462 -18.2644405365
vertex -56.0 1.18862700462 -18.2644405365
vertex -56.0 -0.897351980209 -18.2644405365
endloop
endfacet
facet normal 0.0 -0.0 1.0
outer loop
vertex 1.6000000058e-14 -0.897351980209 -18.2644405365
vertex 1.70000003793e-14 1.18862700462 -18.2644405365
vertex -56.0 -0.897351980209 -18.2644405365
endloop
endfacet
facet normal 0.0 1.0 0.0
outer loop
vertex 5.99999981001e-15 -0.897351980209 -6.93928909302
vertex 1.6000000058e-14 -0.897351980209 -18.2644405365
vertex -56.0 -0.897351980209 -18.2644405365
endloop
endfacet
facet normal 0.0 1.0 0.0
outer loop
vertex 5.99999981001e-15 -0.897351980209 -6.93928909302
vertex -56.0 -0.897351980209 -18.2644405365
vertex -56.0 -0.897351980209 -6.93928909302
endloop
endfacet
facet normal 0.0 0.0 1.0
outer loop
vertex -56.0 -2.11454391479 -6.93928909302
vertex 4.99999991226e-15 -2.11454391479 -6.93928909302
vertex -56.0 -0.897351980209 -6.93928909302
endloop
endfacet
facet normal 0.0 -0.0 1.0
outer loop
vertex 4.99999991226e-15 -2.11454391479 -6.93928909302
vertex 5.99999981001e-15 -0.897351980209 -6.93928909302
vertex -56.0 -0.897351980209 -6.93928909302
endloop
endfacet
facet normal -0.0 1.0 0.0
outer loop
vertex -56.0 -2.11454391479 5.66668605804
vertex -5.99999981001e-15 -2.11454391479 5.66668605804
vertex -56.0 -2.11454391479 -6.93928909302
endloop
endfacet
facet normal 0.0 1.0 0.0
outer loop
vertex -5.99999981001e-15 -2.11454391479 5.66668605804
vertex 4.99999991226e-15 -2.11454391479 -6.93928909302
vertex -56.0 -2.11454391479 -6.93928909302
endloop
endfacet
facet normal 0.0 0.0 -1.0
outer loop
vertex -56.0 -0.897351980209 5.66668605804
vertex -4.99999991226e-15 -0.897351980209 5.66668605804
vertex -56.0 -2.11454391479 5.66668605804
endloop
endfacet
facet normal 0.0 0.0 -1.0
outer loop
vertex -4.99999991226e-15 -0.897351980209 5.66668605804
vertex -5.99999981001e-15 -2.11454391479 5.66668605804
vertex -56.0 -2.11454391479 5.66668605804
endloop
endfacet
